<?xml version="1.0" encoding="utf-8" standalone="no"?>
<!DOCTYPE svg PUBLIC "-//W3C//DTD SVG 1.1//EN"
  "http://www.w3.org/Graphics/SVG/1.1/DTD/svg11.dtd">
<!-- Created with matplotlib (https://matplotlib.org/) -->
<svg height="345.6pt" version="1.1" viewBox="0 0 460.8 345.6" width="460.8pt" xmlns="http://www.w3.org/2000/svg" xmlns:xlink="http://www.w3.org/1999/xlink">
 <defs>
  <style type="text/css">
*{stroke-linecap:butt;stroke-linejoin:round;}
  </style>
 </defs>
 <g id="figure_1">
  <g id="patch_1">
   <path d="M 0 345.6 
L 460.8 345.6 
L 460.8 0 
L 0 0 
z
" style="fill:#ffffff;"/>
  </g>
  <g id="axes_1">
   <g id="patch_2">
    <path d="M 57.6 157.17287 
L 414.72 157.17287 
L 414.72 41.472 
L 57.6 41.472 
z
" style="fill:#ffffff;"/>
   </g>
   <g id="matplotlib.axis_1">
    <g id="xtick_1">
     <g id="line2d_1">
      <path clip-path="url(#pd4149ec59f)" d="M 73.832727 157.17287 
L 73.832727 41.472 
" style="fill:none;stroke:#b0b0b0;stroke-linecap:square;stroke-width:0.8;"/>
     </g>
     <g id="line2d_2">
      <defs>
       <path d="M 0 0 
L 0 3.5 
" id="mb2facb81f1" style="stroke:#000000;stroke-width:0.8;"/>
      </defs>
      <g>
       <use style="stroke:#000000;stroke-width:0.8;" x="73.832727" xlink:href="#mb2facb81f1" y="157.17287"/>
      </g>
     </g>
     <g id="text_1">
      <!-- 0 -->
      <defs>
       <path d="M 31.78125 66.40625 
Q 24.171875 66.40625 20.328125 58.90625 
Q 16.5 51.421875 16.5 36.375 
Q 16.5 21.390625 20.328125 13.890625 
Q 24.171875 6.390625 31.78125 6.390625 
Q 39.453125 6.390625 43.28125 13.890625 
Q 47.125 21.390625 47.125 36.375 
Q 47.125 51.421875 43.28125 58.90625 
Q 39.453125 66.40625 31.78125 66.40625 
z
M 31.78125 74.21875 
Q 44.046875 74.21875 50.515625 64.515625 
Q 56.984375 54.828125 56.984375 36.375 
Q 56.984375 17.96875 50.515625 8.265625 
Q 44.046875 -1.421875 31.78125 -1.421875 
Q 19.53125 -1.421875 13.0625 8.265625 
Q 6.59375 17.96875 6.59375 36.375 
Q 6.59375 54.828125 13.0625 64.515625 
Q 19.53125 74.21875 31.78125 74.21875 
z
" id="DejaVuSans-48"/>
      </defs>
      <g transform="translate(70.651477 171.771307)scale(0.1 -0.1)">
       <use xlink:href="#DejaVuSans-48"/>
      </g>
     </g>
    </g>
    <g id="xtick_2">
     <g id="line2d_3">
      <path clip-path="url(#pd4149ec59f)" d="M 138.893758 157.17287 
L 138.893758 41.472 
" style="fill:none;stroke:#b0b0b0;stroke-linecap:square;stroke-width:0.8;"/>
     </g>
     <g id="line2d_4">
      <g>
       <use style="stroke:#000000;stroke-width:0.8;" x="138.893758" xlink:href="#mb2facb81f1" y="157.17287"/>
      </g>
     </g>
     <g id="text_2">
      <!-- 100 -->
      <defs>
       <path d="M 12.40625 8.296875 
L 28.515625 8.296875 
L 28.515625 63.921875 
L 10.984375 60.40625 
L 10.984375 69.390625 
L 28.421875 72.90625 
L 38.28125 72.90625 
L 38.28125 8.296875 
L 54.390625 8.296875 
L 54.390625 0 
L 12.40625 0 
z
" id="DejaVuSans-49"/>
      </defs>
      <g transform="translate(129.350008 171.771307)scale(0.1 -0.1)">
       <use xlink:href="#DejaVuSans-49"/>
       <use x="63.623047" xlink:href="#DejaVuSans-48"/>
       <use x="127.246094" xlink:href="#DejaVuSans-48"/>
      </g>
     </g>
    </g>
    <g id="xtick_3">
     <g id="line2d_5">
      <path clip-path="url(#pd4149ec59f)" d="M 203.95479 157.17287 
L 203.95479 41.472 
" style="fill:none;stroke:#b0b0b0;stroke-linecap:square;stroke-width:0.8;"/>
     </g>
     <g id="line2d_6">
      <g>
       <use style="stroke:#000000;stroke-width:0.8;" x="203.95479" xlink:href="#mb2facb81f1" y="157.17287"/>
      </g>
     </g>
     <g id="text_3">
      <!-- 200 -->
      <defs>
       <path d="M 19.1875 8.296875 
L 53.609375 8.296875 
L 53.609375 0 
L 7.328125 0 
L 7.328125 8.296875 
Q 12.9375 14.109375 22.625 23.890625 
Q 32.328125 33.6875 34.8125 36.53125 
Q 39.546875 41.84375 41.421875 45.53125 
Q 43.3125 49.21875 43.3125 52.78125 
Q 43.3125 58.59375 39.234375 62.25 
Q 35.15625 65.921875 28.609375 65.921875 
Q 23.96875 65.921875 18.8125 64.3125 
Q 13.671875 62.703125 7.8125 59.421875 
L 7.8125 69.390625 
Q 13.765625 71.78125 18.9375 73 
Q 24.125 74.21875 28.421875 74.21875 
Q 39.75 74.21875 46.484375 68.546875 
Q 53.21875 62.890625 53.21875 53.421875 
Q 53.21875 48.921875 51.53125 44.890625 
Q 49.859375 40.875 45.40625 35.40625 
Q 44.1875 33.984375 37.640625 27.21875 
Q 31.109375 20.453125 19.1875 8.296875 
z
" id="DejaVuSans-50"/>
      </defs>
      <g transform="translate(194.41104 171.771307)scale(0.1 -0.1)">
       <use xlink:href="#DejaVuSans-50"/>
       <use x="63.623047" xlink:href="#DejaVuSans-48"/>
       <use x="127.246094" xlink:href="#DejaVuSans-48"/>
      </g>
     </g>
    </g>
    <g id="xtick_4">
     <g id="line2d_7">
      <path clip-path="url(#pd4149ec59f)" d="M 269.015821 157.17287 
L 269.015821 41.472 
" style="fill:none;stroke:#b0b0b0;stroke-linecap:square;stroke-width:0.8;"/>
     </g>
     <g id="line2d_8">
      <g>
       <use style="stroke:#000000;stroke-width:0.8;" x="269.015821" xlink:href="#mb2facb81f1" y="157.17287"/>
      </g>
     </g>
     <g id="text_4">
      <!-- 300 -->
      <defs>
       <path d="M 40.578125 39.3125 
Q 47.65625 37.796875 51.625 33 
Q 55.609375 28.21875 55.609375 21.1875 
Q 55.609375 10.40625 48.1875 4.484375 
Q 40.765625 -1.421875 27.09375 -1.421875 
Q 22.515625 -1.421875 17.65625 -0.515625 
Q 12.796875 0.390625 7.625 2.203125 
L 7.625 11.71875 
Q 11.71875 9.328125 16.59375 8.109375 
Q 21.484375 6.890625 26.8125 6.890625 
Q 36.078125 6.890625 40.9375 10.546875 
Q 45.796875 14.203125 45.796875 21.1875 
Q 45.796875 27.640625 41.28125 31.265625 
Q 36.765625 34.90625 28.71875 34.90625 
L 20.21875 34.90625 
L 20.21875 43.015625 
L 29.109375 43.015625 
Q 36.375 43.015625 40.234375 45.921875 
Q 44.09375 48.828125 44.09375 54.296875 
Q 44.09375 59.90625 40.109375 62.90625 
Q 36.140625 65.921875 28.71875 65.921875 
Q 24.65625 65.921875 20.015625 65.03125 
Q 15.375 64.15625 9.8125 62.3125 
L 9.8125 71.09375 
Q 15.4375 72.65625 20.34375 73.4375 
Q 25.25 74.21875 29.59375 74.21875 
Q 40.828125 74.21875 47.359375 69.109375 
Q 53.90625 64.015625 53.90625 55.328125 
Q 53.90625 49.265625 50.4375 45.09375 
Q 46.96875 40.921875 40.578125 39.3125 
z
" id="DejaVuSans-51"/>
      </defs>
      <g transform="translate(259.472071 171.771307)scale(0.1 -0.1)">
       <use xlink:href="#DejaVuSans-51"/>
       <use x="63.623047" xlink:href="#DejaVuSans-48"/>
       <use x="127.246094" xlink:href="#DejaVuSans-48"/>
      </g>
     </g>
    </g>
    <g id="xtick_5">
     <g id="line2d_9">
      <path clip-path="url(#pd4149ec59f)" d="M 334.076852 157.17287 
L 334.076852 41.472 
" style="fill:none;stroke:#b0b0b0;stroke-linecap:square;stroke-width:0.8;"/>
     </g>
     <g id="line2d_10">
      <g>
       <use style="stroke:#000000;stroke-width:0.8;" x="334.076852" xlink:href="#mb2facb81f1" y="157.17287"/>
      </g>
     </g>
     <g id="text_5">
      <!-- 400 -->
      <defs>
       <path d="M 37.796875 64.3125 
L 12.890625 25.390625 
L 37.796875 25.390625 
z
M 35.203125 72.90625 
L 47.609375 72.90625 
L 47.609375 25.390625 
L 58.015625 25.390625 
L 58.015625 17.1875 
L 47.609375 17.1875 
L 47.609375 0 
L 37.796875 0 
L 37.796875 17.1875 
L 4.890625 17.1875 
L 4.890625 26.703125 
z
" id="DejaVuSans-52"/>
      </defs>
      <g transform="translate(324.533102 171.771307)scale(0.1 -0.1)">
       <use xlink:href="#DejaVuSans-52"/>
       <use x="63.623047" xlink:href="#DejaVuSans-48"/>
       <use x="127.246094" xlink:href="#DejaVuSans-48"/>
      </g>
     </g>
    </g>
    <g id="xtick_6">
     <g id="line2d_11">
      <path clip-path="url(#pd4149ec59f)" d="M 399.137883 157.17287 
L 399.137883 41.472 
" style="fill:none;stroke:#b0b0b0;stroke-linecap:square;stroke-width:0.8;"/>
     </g>
     <g id="line2d_12">
      <g>
       <use style="stroke:#000000;stroke-width:0.8;" x="399.137883" xlink:href="#mb2facb81f1" y="157.17287"/>
      </g>
     </g>
     <g id="text_6">
      <!-- 500 -->
      <defs>
       <path d="M 10.796875 72.90625 
L 49.515625 72.90625 
L 49.515625 64.59375 
L 19.828125 64.59375 
L 19.828125 46.734375 
Q 21.96875 47.46875 24.109375 47.828125 
Q 26.265625 48.1875 28.421875 48.1875 
Q 40.625 48.1875 47.75 41.5 
Q 54.890625 34.8125 54.890625 23.390625 
Q 54.890625 11.625 47.5625 5.09375 
Q 40.234375 -1.421875 26.90625 -1.421875 
Q 22.3125 -1.421875 17.546875 -0.640625 
Q 12.796875 0.140625 7.71875 1.703125 
L 7.71875 11.625 
Q 12.109375 9.234375 16.796875 8.0625 
Q 21.484375 6.890625 26.703125 6.890625 
Q 35.15625 6.890625 40.078125 11.328125 
Q 45.015625 15.765625 45.015625 23.390625 
Q 45.015625 31 40.078125 35.4375 
Q 35.15625 39.890625 26.703125 39.890625 
Q 22.75 39.890625 18.8125 39.015625 
Q 14.890625 38.140625 10.796875 36.28125 
z
" id="DejaVuSans-53"/>
      </defs>
      <g transform="translate(389.594133 171.771307)scale(0.1 -0.1)">
       <use xlink:href="#DejaVuSans-53"/>
       <use x="63.623047" xlink:href="#DejaVuSans-48"/>
       <use x="127.246094" xlink:href="#DejaVuSans-48"/>
      </g>
     </g>
    </g>
    <g id="text_7">
     <!-- episodes -->
     <defs>
      <path d="M 56.203125 29.59375 
L 56.203125 25.203125 
L 14.890625 25.203125 
Q 15.484375 15.921875 20.484375 11.0625 
Q 25.484375 6.203125 34.421875 6.203125 
Q 39.59375 6.203125 44.453125 7.46875 
Q 49.3125 8.734375 54.109375 11.28125 
L 54.109375 2.78125 
Q 49.265625 0.734375 44.1875 -0.34375 
Q 39.109375 -1.421875 33.890625 -1.421875 
Q 20.796875 -1.421875 13.15625 6.1875 
Q 5.515625 13.8125 5.515625 26.8125 
Q 5.515625 40.234375 12.765625 48.109375 
Q 20.015625 56 32.328125 56 
Q 43.359375 56 49.78125 48.890625 
Q 56.203125 41.796875 56.203125 29.59375 
z
M 47.21875 32.234375 
Q 47.125 39.59375 43.09375 43.984375 
Q 39.0625 48.390625 32.421875 48.390625 
Q 24.90625 48.390625 20.390625 44.140625 
Q 15.875 39.890625 15.1875 32.171875 
z
" id="DejaVuSans-101"/>
      <path d="M 18.109375 8.203125 
L 18.109375 -20.796875 
L 9.078125 -20.796875 
L 9.078125 54.6875 
L 18.109375 54.6875 
L 18.109375 46.390625 
Q 20.953125 51.265625 25.265625 53.625 
Q 29.59375 56 35.59375 56 
Q 45.5625 56 51.78125 48.09375 
Q 58.015625 40.1875 58.015625 27.296875 
Q 58.015625 14.40625 51.78125 6.484375 
Q 45.5625 -1.421875 35.59375 -1.421875 
Q 29.59375 -1.421875 25.265625 0.953125 
Q 20.953125 3.328125 18.109375 8.203125 
z
M 48.6875 27.296875 
Q 48.6875 37.203125 44.609375 42.84375 
Q 40.53125 48.484375 33.40625 48.484375 
Q 26.265625 48.484375 22.1875 42.84375 
Q 18.109375 37.203125 18.109375 27.296875 
Q 18.109375 17.390625 22.1875 11.75 
Q 26.265625 6.109375 33.40625 6.109375 
Q 40.53125 6.109375 44.609375 11.75 
Q 48.6875 17.390625 48.6875 27.296875 
z
" id="DejaVuSans-112"/>
      <path d="M 9.421875 54.6875 
L 18.40625 54.6875 
L 18.40625 0 
L 9.421875 0 
z
M 9.421875 75.984375 
L 18.40625 75.984375 
L 18.40625 64.59375 
L 9.421875 64.59375 
z
" id="DejaVuSans-105"/>
      <path d="M 44.28125 53.078125 
L 44.28125 44.578125 
Q 40.484375 46.53125 36.375 47.5 
Q 32.28125 48.484375 27.875 48.484375 
Q 21.1875 48.484375 17.84375 46.4375 
Q 14.5 44.390625 14.5 40.28125 
Q 14.5 37.15625 16.890625 35.375 
Q 19.28125 33.59375 26.515625 31.984375 
L 29.59375 31.296875 
Q 39.15625 29.25 43.1875 25.515625 
Q 47.21875 21.78125 47.21875 15.09375 
Q 47.21875 7.46875 41.1875 3.015625 
Q 35.15625 -1.421875 24.609375 -1.421875 
Q 20.21875 -1.421875 15.453125 -0.5625 
Q 10.6875 0.296875 5.421875 2 
L 5.421875 11.28125 
Q 10.40625 8.6875 15.234375 7.390625 
Q 20.0625 6.109375 24.8125 6.109375 
Q 31.15625 6.109375 34.5625 8.28125 
Q 37.984375 10.453125 37.984375 14.40625 
Q 37.984375 18.0625 35.515625 20.015625 
Q 33.0625 21.96875 24.703125 23.78125 
L 21.578125 24.515625 
Q 13.234375 26.265625 9.515625 29.90625 
Q 5.8125 33.546875 5.8125 39.890625 
Q 5.8125 47.609375 11.28125 51.796875 
Q 16.75 56 26.8125 56 
Q 31.78125 56 36.171875 55.265625 
Q 40.578125 54.546875 44.28125 53.078125 
z
" id="DejaVuSans-115"/>
      <path d="M 30.609375 48.390625 
Q 23.390625 48.390625 19.1875 42.75 
Q 14.984375 37.109375 14.984375 27.296875 
Q 14.984375 17.484375 19.15625 11.84375 
Q 23.34375 6.203125 30.609375 6.203125 
Q 37.796875 6.203125 41.984375 11.859375 
Q 46.1875 17.53125 46.1875 27.296875 
Q 46.1875 37.015625 41.984375 42.703125 
Q 37.796875 48.390625 30.609375 48.390625 
z
M 30.609375 56 
Q 42.328125 56 49.015625 48.375 
Q 55.71875 40.765625 55.71875 27.296875 
Q 55.71875 13.875 49.015625 6.21875 
Q 42.328125 -1.421875 30.609375 -1.421875 
Q 18.84375 -1.421875 12.171875 6.21875 
Q 5.515625 13.875 5.515625 27.296875 
Q 5.515625 40.765625 12.171875 48.375 
Q 18.84375 56 30.609375 56 
z
" id="DejaVuSans-111"/>
      <path d="M 45.40625 46.390625 
L 45.40625 75.984375 
L 54.390625 75.984375 
L 54.390625 0 
L 45.40625 0 
L 45.40625 8.203125 
Q 42.578125 3.328125 38.25 0.953125 
Q 33.9375 -1.421875 27.875 -1.421875 
Q 17.96875 -1.421875 11.734375 6.484375 
Q 5.515625 14.40625 5.515625 27.296875 
Q 5.515625 40.1875 11.734375 48.09375 
Q 17.96875 56 27.875 56 
Q 33.9375 56 38.25 53.625 
Q 42.578125 51.265625 45.40625 46.390625 
z
M 14.796875 27.296875 
Q 14.796875 17.390625 18.875 11.75 
Q 22.953125 6.109375 30.078125 6.109375 
Q 37.203125 6.109375 41.296875 11.75 
Q 45.40625 17.390625 45.40625 27.296875 
Q 45.40625 37.203125 41.296875 42.84375 
Q 37.203125 48.484375 30.078125 48.484375 
Q 22.953125 48.484375 18.875 42.84375 
Q 14.796875 37.203125 14.796875 27.296875 
z
" id="DejaVuSans-100"/>
     </defs>
     <g transform="translate(214.000625 185.449432)scale(0.1 -0.1)">
      <use xlink:href="#DejaVuSans-101"/>
      <use x="61.523438" xlink:href="#DejaVuSans-112"/>
      <use x="125" xlink:href="#DejaVuSans-105"/>
      <use x="152.783203" xlink:href="#DejaVuSans-115"/>
      <use x="204.882812" xlink:href="#DejaVuSans-111"/>
      <use x="266.064453" xlink:href="#DejaVuSans-100"/>
      <use x="329.541016" xlink:href="#DejaVuSans-101"/>
      <use x="391.064453" xlink:href="#DejaVuSans-115"/>
     </g>
    </g>
   </g>
   <g id="matplotlib.axis_2">
    <g id="ytick_1">
     <g id="line2d_13">
      <path clip-path="url(#pd4149ec59f)" d="M 57.6 133.045723 
L 414.72 133.045723 
" style="fill:none;stroke:#b0b0b0;stroke-linecap:square;stroke-width:0.8;"/>
     </g>
     <g id="line2d_14">
      <defs>
       <path d="M 0 0 
L -3.5 0 
" id="m7abaccd9f4" style="stroke:#000000;stroke-width:0.8;"/>
      </defs>
      <g>
       <use style="stroke:#000000;stroke-width:0.8;" x="57.6" xlink:href="#m7abaccd9f4" y="133.045723"/>
      </g>
     </g>
     <g id="text_8">
      <!-- 60 -->
      <defs>
       <path d="M 33.015625 40.375 
Q 26.375 40.375 22.484375 35.828125 
Q 18.609375 31.296875 18.609375 23.390625 
Q 18.609375 15.53125 22.484375 10.953125 
Q 26.375 6.390625 33.015625 6.390625 
Q 39.65625 6.390625 43.53125 10.953125 
Q 47.40625 15.53125 47.40625 23.390625 
Q 47.40625 31.296875 43.53125 35.828125 
Q 39.65625 40.375 33.015625 40.375 
z
M 52.59375 71.296875 
L 52.59375 62.3125 
Q 48.875 64.0625 45.09375 64.984375 
Q 41.3125 65.921875 37.59375 65.921875 
Q 27.828125 65.921875 22.671875 59.328125 
Q 17.53125 52.734375 16.796875 39.40625 
Q 19.671875 43.65625 24.015625 45.921875 
Q 28.375 48.1875 33.59375 48.1875 
Q 44.578125 48.1875 50.953125 41.515625 
Q 57.328125 34.859375 57.328125 23.390625 
Q 57.328125 12.15625 50.6875 5.359375 
Q 44.046875 -1.421875 33.015625 -1.421875 
Q 20.359375 -1.421875 13.671875 8.265625 
Q 6.984375 17.96875 6.984375 36.375 
Q 6.984375 53.65625 15.1875 63.9375 
Q 23.390625 74.21875 37.203125 74.21875 
Q 40.921875 74.21875 44.703125 73.484375 
Q 48.484375 72.75 52.59375 71.296875 
z
" id="DejaVuSans-54"/>
      </defs>
      <g transform="translate(37.875 136.844941)scale(0.1 -0.1)">
       <use xlink:href="#DejaVuSans-54"/>
       <use x="63.623047" xlink:href="#DejaVuSans-48"/>
      </g>
     </g>
    </g>
    <g id="ytick_2">
     <g id="line2d_15">
      <path clip-path="url(#pd4149ec59f)" d="M 57.6 105.621196 
L 414.72 105.621196 
" style="fill:none;stroke:#b0b0b0;stroke-linecap:square;stroke-width:0.8;"/>
     </g>
     <g id="line2d_16">
      <g>
       <use style="stroke:#000000;stroke-width:0.8;" x="57.6" xlink:href="#m7abaccd9f4" y="105.621196"/>
      </g>
     </g>
     <g id="text_9">
      <!-- 80 -->
      <defs>
       <path d="M 31.78125 34.625 
Q 24.75 34.625 20.71875 30.859375 
Q 16.703125 27.09375 16.703125 20.515625 
Q 16.703125 13.921875 20.71875 10.15625 
Q 24.75 6.390625 31.78125 6.390625 
Q 38.8125 6.390625 42.859375 10.171875 
Q 46.921875 13.96875 46.921875 20.515625 
Q 46.921875 27.09375 42.890625 30.859375 
Q 38.875 34.625 31.78125 34.625 
z
M 21.921875 38.8125 
Q 15.578125 40.375 12.03125 44.71875 
Q 8.5 49.078125 8.5 55.328125 
Q 8.5 64.0625 14.71875 69.140625 
Q 20.953125 74.21875 31.78125 74.21875 
Q 42.671875 74.21875 48.875 69.140625 
Q 55.078125 64.0625 55.078125 55.328125 
Q 55.078125 49.078125 51.53125 44.71875 
Q 48 40.375 41.703125 38.8125 
Q 48.828125 37.15625 52.796875 32.3125 
Q 56.78125 27.484375 56.78125 20.515625 
Q 56.78125 9.90625 50.3125 4.234375 
Q 43.84375 -1.421875 31.78125 -1.421875 
Q 19.734375 -1.421875 13.25 4.234375 
Q 6.78125 9.90625 6.78125 20.515625 
Q 6.78125 27.484375 10.78125 32.3125 
Q 14.796875 37.15625 21.921875 38.8125 
z
M 18.3125 54.390625 
Q 18.3125 48.734375 21.84375 45.5625 
Q 25.390625 42.390625 31.78125 42.390625 
Q 38.140625 42.390625 41.71875 45.5625 
Q 45.3125 48.734375 45.3125 54.390625 
Q 45.3125 60.0625 41.71875 63.234375 
Q 38.140625 66.40625 31.78125 66.40625 
Q 25.390625 66.40625 21.84375 63.234375 
Q 18.3125 60.0625 18.3125 54.390625 
z
" id="DejaVuSans-56"/>
      </defs>
      <g transform="translate(37.875 109.420414)scale(0.1 -0.1)">
       <use xlink:href="#DejaVuSans-56"/>
       <use x="63.623047" xlink:href="#DejaVuSans-48"/>
      </g>
     </g>
    </g>
    <g id="ytick_3">
     <g id="line2d_17">
      <path clip-path="url(#pd4149ec59f)" d="M 57.6 78.196669 
L 414.72 78.196669 
" style="fill:none;stroke:#b0b0b0;stroke-linecap:square;stroke-width:0.8;"/>
     </g>
     <g id="line2d_18">
      <g>
       <use style="stroke:#000000;stroke-width:0.8;" x="57.6" xlink:href="#m7abaccd9f4" y="78.196669"/>
      </g>
     </g>
     <g id="text_10">
      <!-- 100 -->
      <g transform="translate(31.5125 81.995887)scale(0.1 -0.1)">
       <use xlink:href="#DejaVuSans-49"/>
       <use x="63.623047" xlink:href="#DejaVuSans-48"/>
       <use x="127.246094" xlink:href="#DejaVuSans-48"/>
      </g>
     </g>
    </g>
    <g id="ytick_4">
     <g id="line2d_19">
      <path clip-path="url(#pd4149ec59f)" d="M 57.6 50.772142 
L 414.72 50.772142 
" style="fill:none;stroke:#b0b0b0;stroke-linecap:square;stroke-width:0.8;"/>
     </g>
     <g id="line2d_20">
      <g>
       <use style="stroke:#000000;stroke-width:0.8;" x="57.6" xlink:href="#m7abaccd9f4" y="50.772142"/>
      </g>
     </g>
     <g id="text_11">
      <!-- 120 -->
      <g transform="translate(31.5125 54.57136)scale(0.1 -0.1)">
       <use xlink:href="#DejaVuSans-49"/>
       <use x="63.623047" xlink:href="#DejaVuSans-50"/>
       <use x="127.246094" xlink:href="#DejaVuSans-48"/>
      </g>
     </g>
    </g>
    <g id="text_12">
     <!-- time reward -->
     <defs>
      <path d="M 18.3125 70.21875 
L 18.3125 54.6875 
L 36.8125 54.6875 
L 36.8125 47.703125 
L 18.3125 47.703125 
L 18.3125 18.015625 
Q 18.3125 11.328125 20.140625 9.421875 
Q 21.96875 7.515625 27.59375 7.515625 
L 36.8125 7.515625 
L 36.8125 0 
L 27.59375 0 
Q 17.1875 0 13.234375 3.875 
Q 9.28125 7.765625 9.28125 18.015625 
L 9.28125 47.703125 
L 2.6875 47.703125 
L 2.6875 54.6875 
L 9.28125 54.6875 
L 9.28125 70.21875 
z
" id="DejaVuSans-116"/>
      <path d="M 52 44.1875 
Q 55.375 50.25 60.0625 53.125 
Q 64.75 56 71.09375 56 
Q 79.640625 56 84.28125 50.015625 
Q 88.921875 44.046875 88.921875 33.015625 
L 88.921875 0 
L 79.890625 0 
L 79.890625 32.71875 
Q 79.890625 40.578125 77.09375 44.375 
Q 74.3125 48.1875 68.609375 48.1875 
Q 61.625 48.1875 57.5625 43.546875 
Q 53.515625 38.921875 53.515625 30.90625 
L 53.515625 0 
L 44.484375 0 
L 44.484375 32.71875 
Q 44.484375 40.625 41.703125 44.40625 
Q 38.921875 48.1875 33.109375 48.1875 
Q 26.21875 48.1875 22.15625 43.53125 
Q 18.109375 38.875 18.109375 30.90625 
L 18.109375 0 
L 9.078125 0 
L 9.078125 54.6875 
L 18.109375 54.6875 
L 18.109375 46.1875 
Q 21.1875 51.21875 25.484375 53.609375 
Q 29.78125 56 35.6875 56 
Q 41.65625 56 45.828125 52.96875 
Q 50 49.953125 52 44.1875 
z
" id="DejaVuSans-109"/>
      <path id="DejaVuSans-32"/>
      <path d="M 41.109375 46.296875 
Q 39.59375 47.171875 37.8125 47.578125 
Q 36.03125 48 33.890625 48 
Q 26.265625 48 22.1875 43.046875 
Q 18.109375 38.09375 18.109375 28.8125 
L 18.109375 0 
L 9.078125 0 
L 9.078125 54.6875 
L 18.109375 54.6875 
L 18.109375 46.1875 
Q 20.953125 51.171875 25.484375 53.578125 
Q 30.03125 56 36.53125 56 
Q 37.453125 56 38.578125 55.875 
Q 39.703125 55.765625 41.0625 55.515625 
z
" id="DejaVuSans-114"/>
      <path d="M 4.203125 54.6875 
L 13.1875 54.6875 
L 24.421875 12.015625 
L 35.59375 54.6875 
L 46.1875 54.6875 
L 57.421875 12.015625 
L 68.609375 54.6875 
L 77.59375 54.6875 
L 63.28125 0 
L 52.6875 0 
L 40.921875 44.828125 
L 29.109375 0 
L 18.5 0 
z
" id="DejaVuSans-119"/>
      <path d="M 34.28125 27.484375 
Q 23.390625 27.484375 19.1875 25 
Q 14.984375 22.515625 14.984375 16.5 
Q 14.984375 11.71875 18.140625 8.90625 
Q 21.296875 6.109375 26.703125 6.109375 
Q 34.1875 6.109375 38.703125 11.40625 
Q 43.21875 16.703125 43.21875 25.484375 
L 43.21875 27.484375 
z
M 52.203125 31.203125 
L 52.203125 0 
L 43.21875 0 
L 43.21875 8.296875 
Q 40.140625 3.328125 35.546875 0.953125 
Q 30.953125 -1.421875 24.3125 -1.421875 
Q 15.921875 -1.421875 10.953125 3.296875 
Q 6 8.015625 6 15.921875 
Q 6 25.140625 12.171875 29.828125 
Q 18.359375 34.515625 30.609375 34.515625 
L 43.21875 34.515625 
L 43.21875 35.40625 
Q 43.21875 41.609375 39.140625 45 
Q 35.0625 48.390625 27.6875 48.390625 
Q 23 48.390625 18.546875 47.265625 
Q 14.109375 46.140625 10.015625 43.890625 
L 10.015625 52.203125 
Q 14.9375 54.109375 19.578125 55.046875 
Q 24.21875 56 28.609375 56 
Q 40.484375 56 46.34375 49.84375 
Q 52.203125 43.703125 52.203125 31.203125 
z
" id="DejaVuSans-97"/>
     </defs>
     <g transform="translate(25.432812 129.720091)rotate(-90)scale(0.1 -0.1)">
      <use xlink:href="#DejaVuSans-116"/>
      <use x="39.208984" xlink:href="#DejaVuSans-105"/>
      <use x="66.992188" xlink:href="#DejaVuSans-109"/>
      <use x="164.404297" xlink:href="#DejaVuSans-101"/>
      <use x="225.927734" xlink:href="#DejaVuSans-32"/>
      <use x="257.714844" xlink:href="#DejaVuSans-114"/>
      <use x="298.796875" xlink:href="#DejaVuSans-101"/>
      <use x="360.320312" xlink:href="#DejaVuSans-119"/>
      <use x="442.107422" xlink:href="#DejaVuSans-97"/>
      <use x="503.386719" xlink:href="#DejaVuSans-114"/>
      <use x="544.484375" xlink:href="#DejaVuSans-100"/>
     </g>
    </g>
   </g>
   <g id="line2d_21">
    <path clip-path="url(#pd4149ec59f)" d="M 73.832727 151.913739 
L 74.483338 105.780213 
L 75.133948 101.321938 
L 75.784558 88.385202 
L 76.435169 79.317959 
L 77.085779 82.525011 
L 77.736389 88.221398 
L 78.386999 105.234088 
L 79.03761 102.133919 
L 79.68822 65.639766 
L 80.33883 64.168148 
L 80.989441 70.91407 
L 81.640051 69.8966 
L 82.290661 81.131773 
L 82.941272 81.777118 
L 83.591882 78.391533 
L 84.242492 68.014703 
L 84.893103 68.007889 
L 85.543713 70.618613 
L 86.194323 70.633787 
L 86.844934 72.284029 
L 87.495544 95.784554 
L 88.146154 79.837114 
L 88.796764 58.852608 
L 89.447375 60.428043 
L 90.097985 64.752175 
L 90.748595 66.755873 
L 91.399206 65.108163 
L 92.049816 60.9847 
L 92.700426 62.15591 
L 93.351037 60.368241 
L 94.001647 65.842653 
L 94.652257 57.71536 
L 95.302868 63.737696 
L 95.953478 61.578788 
L 96.604088 57.661111 
L 97.254698 69.78291 
L 97.905309 74.074078 
L 98.555919 68.429589 
L 99.206529 56.665321 
L 99.85714 59.579928 
L 100.50775 57.10566 
L 101.15836 63.980451 
L 101.808971 61.13591 
L 102.459581 55.575671 
L 103.110191 62.157583 
L 103.760802 74.78758 
L 104.411412 76.597554 
L 105.062022 84.161619 
L 105.712633 64.034064 
L 106.363243 58.820226 
L 107.013853 49.408624 
L 107.664463 62.028968 
L 108.315074 60.01312 
L 108.965684 58.680407 
L 109.616294 57.83859 
L 110.266905 68.765713 
L 110.917515 67.765015 
L 111.568125 57.696655 
L 112.218736 85.188223 
L 112.869346 56.666657 
L 113.519956 61.576943 
L 114.170567 54.154575 
L 114.821177 74.408441 
L 115.471787 68.439797 
L 116.122398 59.024942 
L 116.773008 58.807537 
L 117.423618 67.456663 
L 118.074228 62.662898 
L 118.724839 64.915677 
L 119.375449 65.236398 
L 120.026059 62.122967 
L 120.67667 65.671974 
L 121.32728 64.394929 
L 121.97789 75.786369 
L 122.628501 61.30534 
L 123.279111 58.863174 
L 123.929721 58.73782 
L 124.580332 52.794546 
L 125.230942 66.173677 
L 125.881552 63.929958 
L 126.532163 59.900046 
L 127.182773 54.586594 
L 127.833383 62.518999 
L 128.483993 65.955738 
L 129.134604 55.55367 
L 129.785214 62.031756 
L 130.435824 61.148298 
L 131.086435 49.78986 
L 131.737045 58.028297 
L 132.387655 54.607428 
L 133.038266 61.063472 
L 133.688876 58.512463 
L 134.339486 58.451412 
L 134.990097 56.05646 
L 135.640707 74.022234 
L 136.291317 60.099792 
L 136.941927 56.799328 
L 137.592538 55.799367 
L 138.243148 63.125601 
L 138.893758 54.307817 
L 139.544369 52.365351 
L 140.194979 63.394138 
L 140.845589 54.890095 
L 141.4962 68.478001 
L 142.14681 58.114612 
L 142.79742 63.378516 
L 143.448031 57.108115 
L 144.098641 66.423697 
L 144.749251 61.345707 
L 145.399862 53.569522 
L 146.050472 64.10754 
L 146.701082 51.03679 
L 147.351692 65.06543 
L 148.002303 59.200802 
L 148.652913 56.105133 
L 149.303523 63.794937 
L 149.954134 56.425982 
L 150.604744 62.500729 
L 151.255354 61.877252 
L 151.905965 62.888782 
L 152.556575 62.22409 
L 153.207185 53.610815 
L 153.857796 55.539245 
L 154.508406 64.850104 
L 155.159016 65.081751 
L 155.809627 63.42081 
L 156.460237 61.137275 
L 157.110847 60.022378 
L 157.761457 50.079955 
L 158.412068 63.457638 
L 159.062678 57.547624 
L 159.713288 58.555283 
L 160.363899 54.601135 
L 161.014509 58.985392 
L 161.665119 60.304568 
L 162.31573 58.735917 
L 162.96634 54.623489 
L 163.61695 54.154783 
L 164.267561 63.061799 
L 164.918171 52.879781 
L 165.568781 68.558289 
L 166.219392 59.545202 
L 166.870002 54.879833 
L 167.520612 60.100768 
L 168.171222 64.334324 
L 168.821833 55.018956 
L 169.472443 59.624603 
L 170.773664 53.100692 
L 171.424274 66.308746 
L 172.074884 57.631072 
L 172.725495 57.334022 
L 173.376105 61.598617 
L 174.026715 60.691322 
L 174.677326 66.094179 
L 175.327936 60.084417 
L 175.978546 56.259078 
L 176.629156 62.770416 
L 177.279767 61.502484 
L 177.930377 56.92815 
L 178.580987 53.202988 
L 179.231598 55.156495 
L 179.882208 57.781004 
L 180.532818 73.924691 
L 181.183429 60.611203 
L 181.834039 71.741456 
L 182.484649 61.964761 
L 183.13526 63.058254 
L 183.78587 55.365803 
L 184.43648 54.638455 
L 185.087091 59.422625 
L 185.737701 55.798995 
L 186.388311 60.555796 
L 187.038921 62.071743 
L 187.689532 57.506901 
L 188.340142 54.767518 
L 188.990752 60.708107 
L 189.641363 91.226209 
L 190.291973 77.876657 
L 190.942583 88.280893 
L 191.593194 55.876062 
L 192.243804 72.159453 
L 192.894414 65.592781 
L 193.545025 68.197697 
L 194.195635 57.978353 
L 194.846245 56.217556 
L 195.496856 60.425719 
L 196.147466 54.785591 
L 196.798076 63.70242 
L 197.448686 62.402873 
L 198.099297 54.284009 
L 198.749907 59.105137 
L 199.400517 57.376153 
L 200.701738 55.970969 
L 201.352348 58.010189 
L 202.002959 63.565062 
L 202.653569 57.483142 
L 203.304179 56.836145 
L 203.95479 56.679429 
L 204.6054 62.125771 
L 205.25601 55.131875 
L 205.906621 62.259955 
L 206.557231 54.372755 
L 207.207841 56.211947 
L 207.858451 62.90071 
L 208.509062 54.050629 
L 209.159672 55.742587 
L 209.810282 59.44957 
L 210.460893 59.985376 
L 211.111503 66.167456 
L 211.762113 55.672641 
L 213.063334 56.759978 
L 213.713944 60.869685 
L 214.364555 67.42324 
L 215.015165 60.881929 
L 215.665775 66.490832 
L 216.316385 60.626032 
L 216.966996 56.749954 
L 217.617606 51.63482 
L 218.268216 58.855934 
L 218.918827 58.911524 
L 219.569437 60.715735 
L 220.220047 58.610864 
L 220.870658 63.634723 
L 221.521268 62.241463 
L 222.171878 53.631754 
L 222.822489 54.6545 
L 223.473099 60.80132 
L 224.123709 73.96687 
L 224.77432 58.716278 
L 225.42493 64.783259 
L 226.07554 61.081593 
L 226.72615 66.355357 
L 227.376761 57.404401 
L 228.027371 53.051855 
L 228.677981 60.486637 
L 229.328592 61.360976 
L 229.979202 53.560768 
L 230.629812 59.088644 
L 231.280423 54.219399 
L 232.581643 55.054268 
L 233.232254 64.939138 
L 233.882864 58.726893 
L 235.184085 48.672028 
L 235.834695 62.622263 
L 236.485305 54.140977 
L 237.135915 54.639242 
L 237.786526 51.625486 
L 238.437136 56.955569 
L 239.087746 56.972568 
L 239.738357 56.34816 
L 240.388967 54.949697 
L 241.039577 55.891774 
L 241.690188 53.414457 
L 242.340798 56.322416 
L 242.991408 57.045844 
L 243.642019 55.028366 
L 244.292629 64.627295 
L 244.943239 57.253554 
L 245.59385 56.256523 
L 246.24446 63.893224 
L 246.89507 62.951806 
L 247.54568 55.852881 
L 248.196291 55.738469 
L 248.846901 69.226959 
L 249.497511 67.002951 
L 250.148122 54.997355 
L 250.798732 58.07962 
L 251.449342 56.844669 
L 252.099953 50.843556 
L 252.750563 56.857505 
L 253.401173 54.098612 
L 254.051784 58.2255 
L 254.702394 51.892 
L 256.003615 63.972558 
L 256.654225 87.19957 
L 257.955445 58.586149 
L 258.606056 54.112421 
L 259.256666 59.420655 
L 259.907276 61.36342 
L 260.557887 68.532191 
L 261.208497 65.860491 
L 261.859107 55.90711 
L 262.509718 55.671735 
L 263.160328 54.750893 
L 263.810938 58.478079 
L 264.461549 55.523376 
L 265.112159 57.50391 
L 265.762769 53.286274 
L 266.413379 56.060675 
L 267.06399 63.375463 
L 267.7146 61.674913 
L 268.36521 49.103107 
L 269.015821 47.496993 
L 269.666431 62.244519 
L 270.317041 55.573949 
L 270.967652 53.671836 
L 271.618262 62.518496 
L 272.268872 51.703704 
L 272.919483 59.085405 
L 273.570093 57.777631 
L 274.220703 55.279325 
L 274.871314 50.921539 
L 275.521924 57.851977 
L 276.172534 76.760321 
L 276.823144 57.553151 
L 277.473755 63.262465 
L 278.124365 59.799863 
L 278.774975 58.69816 
L 279.425586 52.055186 
L 280.076196 53.993736 
L 280.726806 54.999885 
L 281.377417 58.590904 
L 282.028027 58.160515 
L 282.678637 52.608839 
L 283.329248 52.056378 
L 283.979858 62.049739 
L 284.630468 58.307997 
L 285.281079 53.211833 
L 286.582299 57.151574 
L 287.232909 53.523493 
L 287.88352 54.170756 
L 288.53413 50.899329 
L 289.18474 56.684498 
L 289.835351 75.476324 
L 290.485961 52.271207 
L 291.136571 55.432687 
L 291.787182 52.780668 
L 292.437792 48.741075 
L 293.088402 52.088181 
L 294.389623 54.22267 
L 295.040233 52.312938 
L 295.690844 62.307066 
L 296.341454 51.500444 
L 296.992064 52.73558 
L 297.642674 54.83053 
L 298.293285 51.35293 
L 298.943895 58.593272 
L 299.594505 53.60405 
L 300.245116 62.32864 
L 300.895726 61.183183 
L 302.196947 54.664841 
L 302.847557 59.502533 
L 303.498167 60.237885 
L 304.148778 52.444574 
L 304.799388 56.948485 
L 305.449998 54.097646 
L 306.100608 60.771581 
L 306.751219 57.048319 
L 307.401829 62.420122 
L 308.052439 65.084108 
L 308.70305 69.160405 
L 309.35366 61.054047 
L 310.00427 60.907001 
L 310.654881 57.094115 
L 311.305491 58.53676 
L 311.956101 51.45627 
L 312.606712 57.418557 
L 313.257322 60.395408 
L 313.907932 52.749006 
L 314.558543 57.006164 
L 315.209153 54.58034 
L 315.859763 56.161317 
L 316.510373 57.061916 
L 317.160984 52.588569 
L 317.811594 57.09155 
L 318.462204 56.103469 
L 319.112815 52.976685 
L 319.763425 57.840192 
L 320.414035 71.802868 
L 321.064646 63.667784 
L 321.715256 64.404763 
L 322.365866 58.449172 
L 323.016477 56.001544 
L 323.667087 51.798594 
L 324.317697 58.58731 
L 324.968308 59.539882 
L 325.618918 54.866345 
L 326.269528 65.639067 
L 326.920138 53.280144 
L 327.570749 56.158462 
L 328.221359 53.905353 
L 328.871969 51.129794 
L 329.52258 53.939615 
L 330.17319 53.191037 
L 330.8238 56.635286 
L 331.474411 57.999494 
L 332.125021 59.045301 
L 332.775631 50.272028 
L 333.426242 50.136008 
L 334.727462 53.535999 
L 335.378073 53.187196 
L 336.028683 51.192901 
L 336.679293 60.211082 
L 337.329903 57.788195 
L 337.980514 54.38368 
L 338.631124 53.273131 
L 339.281734 51.204387 
L 339.932345 59.946562 
L 340.582955 53.02679 
L 341.233565 50.855431 
L 341.884176 56.609226 
L 342.534786 52.602445 
L 343.185396 55.617936 
L 343.836007 52.095905 
L 344.486617 60.672092 
L 345.137227 52.828797 
L 345.787837 56.82952 
L 346.438448 48.517963 
L 347.089058 49.730024 
L 347.739668 50.179939 
L 348.390279 53.904639 
L 349.040889 73.75496 
L 349.691499 54.110054 
L 350.34211 54.02478 
L 350.99272 52.49743 
L 351.64333 55.873659 
L 352.293941 54.239166 
L 352.944551 60.640098 
L 353.595161 51.781638 
L 354.245772 52.87529 
L 354.896382 55.191078 
L 355.546992 52.118058 
L 356.197602 57.045282 
L 356.848213 53.270688 
L 357.498823 54.650017 
L 358.149433 54.824177 
L 358.800044 46.73113 
L 359.450654 60.697114 
L 360.101264 57.157753 
L 360.751875 50.347644 
L 361.402485 51.705378 
L 362.053095 55.376355 
L 362.703706 51.685301 
L 363.354316 54.935629 
L 364.004926 53.150719 
L 364.655537 53.697964 
L 365.306147 53.9869 
L 365.956757 58.694383 
L 366.607367 49.580091 
L 367.257978 57.45987 
L 367.908588 53.730164 
L 368.559198 53.190969 
L 369.209809 52.282229 
L 369.860419 52.103425 
L 370.511029 63.68328 
L 371.16164 71.912104 
L 371.81225 64.239975 
L 372.46286 65.576961 
L 373.113471 55.478213 
L 373.764081 54.760199 
L 374.414691 60.427856 
L 375.065302 57.116487 
L 375.715912 49.742064 
L 376.366522 56.379746 
L 377.017132 53.871135 
L 377.667743 56.033082 
L 378.318353 52.166206 
L 378.968963 56.993195 
L 379.619574 52.12251 
L 380.270184 58.095943 
L 380.920794 50.736266 
L 381.571405 62.957921 
L 382.222015 96.882707 
L 382.872625 56.266557 
L 383.523236 61.539337 
L 384.173846 65.76461 
L 384.824456 54.632303 
L 385.475066 59.08717 
L 386.125677 68.66728 
L 386.776287 55.976625 
L 387.426897 62.840246 
L 388.728118 60.11829 
L 389.378728 55.177924 
L 390.029339 60.392882 
L 390.679949 58.183517 
L 391.330559 60.085032 
L 391.98117 52.561041 
L 392.63178 72.610798 
L 393.28239 88.289322 
L 393.933001 56.28279 
L 394.583611 57.089571 
L 395.234221 57.238235 
L 395.884831 55.434062 
L 396.535442 61.876125 
L 397.186052 50.433617 
L 397.836662 64.782753 
L 398.487273 56.885599 
L 398.487273 56.885599 
" style="fill:none;stroke:#1f77b4;stroke-linecap:square;stroke-width:1.5;"/>
   </g>
   <g id="patch_3">
    <path d="M 57.6 157.17287 
L 57.6 41.472 
" style="fill:none;stroke:#000000;stroke-linecap:square;stroke-linejoin:miter;stroke-width:0.8;"/>
   </g>
   <g id="patch_4">
    <path d="M 414.72 157.17287 
L 414.72 41.472 
" style="fill:none;stroke:#000000;stroke-linecap:square;stroke-linejoin:miter;stroke-width:0.8;"/>
   </g>
   <g id="patch_5">
    <path d="M 57.6 157.17287 
L 414.72 157.17287 
" style="fill:none;stroke:#000000;stroke-linecap:square;stroke-linejoin:miter;stroke-width:0.8;"/>
   </g>
   <g id="patch_6">
    <path d="M 57.6 41.472 
L 414.72 41.472 
" style="fill:none;stroke:#000000;stroke-linecap:square;stroke-linejoin:miter;stroke-width:0.8;"/>
   </g>
  </g>
  <g id="axes_2">
   <g id="patch_7">
    <path d="M 57.6 307.584 
L 414.72 307.584 
L 414.72 191.88313 
L 57.6 191.88313 
z
" style="fill:#ffffff;"/>
   </g>
   <g id="matplotlib.axis_3">
    <g id="xtick_7">
     <g id="line2d_22">
      <path clip-path="url(#p462fafb2a9)" d="M 73.832727 307.584 
L 73.832727 191.88313 
" style="fill:none;stroke:#b0b0b0;stroke-linecap:square;stroke-width:0.8;"/>
     </g>
     <g id="line2d_23">
      <g>
       <use style="stroke:#000000;stroke-width:0.8;" x="73.832727" xlink:href="#mb2facb81f1" y="307.584"/>
      </g>
     </g>
     <g id="text_13">
      <!-- 0 -->
      <g transform="translate(70.651477 322.182437)scale(0.1 -0.1)">
       <use xlink:href="#DejaVuSans-48"/>
      </g>
     </g>
    </g>
    <g id="xtick_8">
     <g id="line2d_24">
      <path clip-path="url(#p462fafb2a9)" d="M 138.893758 307.584 
L 138.893758 191.88313 
" style="fill:none;stroke:#b0b0b0;stroke-linecap:square;stroke-width:0.8;"/>
     </g>
     <g id="line2d_25">
      <g>
       <use style="stroke:#000000;stroke-width:0.8;" x="138.893758" xlink:href="#mb2facb81f1" y="307.584"/>
      </g>
     </g>
     <g id="text_14">
      <!-- 100 -->
      <g transform="translate(129.350008 322.182437)scale(0.1 -0.1)">
       <use xlink:href="#DejaVuSans-49"/>
       <use x="63.623047" xlink:href="#DejaVuSans-48"/>
       <use x="127.246094" xlink:href="#DejaVuSans-48"/>
      </g>
     </g>
    </g>
    <g id="xtick_9">
     <g id="line2d_26">
      <path clip-path="url(#p462fafb2a9)" d="M 203.95479 307.584 
L 203.95479 191.88313 
" style="fill:none;stroke:#b0b0b0;stroke-linecap:square;stroke-width:0.8;"/>
     </g>
     <g id="line2d_27">
      <g>
       <use style="stroke:#000000;stroke-width:0.8;" x="203.95479" xlink:href="#mb2facb81f1" y="307.584"/>
      </g>
     </g>
     <g id="text_15">
      <!-- 200 -->
      <g transform="translate(194.41104 322.182437)scale(0.1 -0.1)">
       <use xlink:href="#DejaVuSans-50"/>
       <use x="63.623047" xlink:href="#DejaVuSans-48"/>
       <use x="127.246094" xlink:href="#DejaVuSans-48"/>
      </g>
     </g>
    </g>
    <g id="xtick_10">
     <g id="line2d_28">
      <path clip-path="url(#p462fafb2a9)" d="M 269.015821 307.584 
L 269.015821 191.88313 
" style="fill:none;stroke:#b0b0b0;stroke-linecap:square;stroke-width:0.8;"/>
     </g>
     <g id="line2d_29">
      <g>
       <use style="stroke:#000000;stroke-width:0.8;" x="269.015821" xlink:href="#mb2facb81f1" y="307.584"/>
      </g>
     </g>
     <g id="text_16">
      <!-- 300 -->
      <g transform="translate(259.472071 322.182437)scale(0.1 -0.1)">
       <use xlink:href="#DejaVuSans-51"/>
       <use x="63.623047" xlink:href="#DejaVuSans-48"/>
       <use x="127.246094" xlink:href="#DejaVuSans-48"/>
      </g>
     </g>
    </g>
    <g id="xtick_11">
     <g id="line2d_30">
      <path clip-path="url(#p462fafb2a9)" d="M 334.076852 307.584 
L 334.076852 191.88313 
" style="fill:none;stroke:#b0b0b0;stroke-linecap:square;stroke-width:0.8;"/>
     </g>
     <g id="line2d_31">
      <g>
       <use style="stroke:#000000;stroke-width:0.8;" x="334.076852" xlink:href="#mb2facb81f1" y="307.584"/>
      </g>
     </g>
     <g id="text_17">
      <!-- 400 -->
      <g transform="translate(324.533102 322.182437)scale(0.1 -0.1)">
       <use xlink:href="#DejaVuSans-52"/>
       <use x="63.623047" xlink:href="#DejaVuSans-48"/>
       <use x="127.246094" xlink:href="#DejaVuSans-48"/>
      </g>
     </g>
    </g>
    <g id="xtick_12">
     <g id="line2d_32">
      <path clip-path="url(#p462fafb2a9)" d="M 399.137883 307.584 
L 399.137883 191.88313 
" style="fill:none;stroke:#b0b0b0;stroke-linecap:square;stroke-width:0.8;"/>
     </g>
     <g id="line2d_33">
      <g>
       <use style="stroke:#000000;stroke-width:0.8;" x="399.137883" xlink:href="#mb2facb81f1" y="307.584"/>
      </g>
     </g>
     <g id="text_18">
      <!-- 500 -->
      <g transform="translate(389.594133 322.182437)scale(0.1 -0.1)">
       <use xlink:href="#DejaVuSans-53"/>
       <use x="63.623047" xlink:href="#DejaVuSans-48"/>
       <use x="127.246094" xlink:href="#DejaVuSans-48"/>
      </g>
     </g>
    </g>
    <g id="text_19">
     <!-- episodes -->
     <g transform="translate(214.000625 335.860562)scale(0.1 -0.1)">
      <use xlink:href="#DejaVuSans-101"/>
      <use x="61.523438" xlink:href="#DejaVuSans-112"/>
      <use x="125" xlink:href="#DejaVuSans-105"/>
      <use x="152.783203" xlink:href="#DejaVuSans-115"/>
      <use x="204.882812" xlink:href="#DejaVuSans-111"/>
      <use x="266.064453" xlink:href="#DejaVuSans-100"/>
      <use x="329.541016" xlink:href="#DejaVuSans-101"/>
      <use x="391.064453" xlink:href="#DejaVuSans-115"/>
     </g>
    </g>
   </g>
   <g id="matplotlib.axis_4">
    <g id="ytick_5">
     <g id="line2d_34">
      <path clip-path="url(#p462fafb2a9)" d="M 57.6 289.436689 
L 414.72 289.436689 
" style="fill:none;stroke:#b0b0b0;stroke-linecap:square;stroke-width:0.8;"/>
     </g>
     <g id="line2d_35">
      <g>
       <use style="stroke:#000000;stroke-width:0.8;" x="57.6" xlink:href="#m7abaccd9f4" y="289.436689"/>
      </g>
     </g>
     <g id="text_20">
      <!-- 40 -->
      <g transform="translate(37.875 293.235908)scale(0.1 -0.1)">
       <use xlink:href="#DejaVuSans-52"/>
       <use x="63.623047" xlink:href="#DejaVuSans-48"/>
      </g>
     </g>
    </g>
    <g id="ytick_6">
     <g id="line2d_36">
      <path clip-path="url(#p462fafb2a9)" d="M 57.6 246.066818 
L 414.72 246.066818 
" style="fill:none;stroke:#b0b0b0;stroke-linecap:square;stroke-width:0.8;"/>
     </g>
     <g id="line2d_37">
      <g>
       <use style="stroke:#000000;stroke-width:0.8;" x="57.6" xlink:href="#m7abaccd9f4" y="246.066818"/>
      </g>
     </g>
     <g id="text_21">
      <!-- 60 -->
      <g transform="translate(37.875 249.866037)scale(0.1 -0.1)">
       <use xlink:href="#DejaVuSans-54"/>
       <use x="63.623047" xlink:href="#DejaVuSans-48"/>
      </g>
     </g>
    </g>
    <g id="ytick_7">
     <g id="line2d_38">
      <path clip-path="url(#p462fafb2a9)" d="M 57.6 202.696946 
L 414.72 202.696946 
" style="fill:none;stroke:#b0b0b0;stroke-linecap:square;stroke-width:0.8;"/>
     </g>
     <g id="line2d_39">
      <g>
       <use style="stroke:#000000;stroke-width:0.8;" x="57.6" xlink:href="#m7abaccd9f4" y="202.696946"/>
      </g>
     </g>
     <g id="text_22">
      <!-- 80 -->
      <g transform="translate(37.875 206.496165)scale(0.1 -0.1)">
       <use xlink:href="#DejaVuSans-56"/>
       <use x="63.623047" xlink:href="#DejaVuSans-48"/>
      </g>
     </g>
    </g>
    <g id="text_23">
     <!-- cost reward -->
     <defs>
      <path d="M 48.78125 52.59375 
L 48.78125 44.1875 
Q 44.96875 46.296875 41.140625 47.34375 
Q 37.3125 48.390625 33.40625 48.390625 
Q 24.65625 48.390625 19.8125 42.84375 
Q 14.984375 37.3125 14.984375 27.296875 
Q 14.984375 17.28125 19.8125 11.734375 
Q 24.65625 6.203125 33.40625 6.203125 
Q 37.3125 6.203125 41.140625 7.25 
Q 44.96875 8.296875 48.78125 10.40625 
L 48.78125 2.09375 
Q 45.015625 0.34375 40.984375 -0.53125 
Q 36.96875 -1.421875 32.421875 -1.421875 
Q 20.0625 -1.421875 12.78125 6.34375 
Q 5.515625 14.109375 5.515625 27.296875 
Q 5.515625 40.671875 12.859375 48.328125 
Q 20.21875 56 33.015625 56 
Q 37.15625 56 41.109375 55.140625 
Q 45.0625 54.296875 48.78125 52.59375 
z
" id="DejaVuSans-99"/>
     </defs>
     <g transform="translate(31.795312 279.208565)rotate(-90)scale(0.1 -0.1)">
      <use xlink:href="#DejaVuSans-99"/>
      <use x="54.980469" xlink:href="#DejaVuSans-111"/>
      <use x="116.162109" xlink:href="#DejaVuSans-115"/>
      <use x="168.261719" xlink:href="#DejaVuSans-116"/>
      <use x="207.470703" xlink:href="#DejaVuSans-32"/>
      <use x="239.257812" xlink:href="#DejaVuSans-114"/>
      <use x="280.339844" xlink:href="#DejaVuSans-101"/>
      <use x="341.863281" xlink:href="#DejaVuSans-119"/>
      <use x="423.650391" xlink:href="#DejaVuSans-97"/>
      <use x="484.929688" xlink:href="#DejaVuSans-114"/>
      <use x="526.027344" xlink:href="#DejaVuSans-100"/>
     </g>
    </g>
   </g>
   <g id="line2d_40">
    <path clip-path="url(#p462fafb2a9)" d="M 73.832727 302.32487 
L 74.483338 241.346751 
L 75.133948 251.879363 
L 75.784558 240.342945 
L 76.435169 217.394691 
L 77.085779 234.104609 
L 77.736389 231.539409 
L 78.386999 235.896772 
L 79.03761 255.974502 
L 79.68822 210.282358 
L 80.33883 219.282915 
L 80.989441 222.085808 
L 81.640051 208.219304 
L 82.290661 218.169263 
L 82.941272 230.79631 
L 83.591882 226.06093 
L 84.242492 218.892419 
L 84.893103 207.170905 
L 85.543713 212.910842 
L 86.194323 222.091058 
L 86.844934 216.613291 
L 87.495544 239.706521 
L 88.796764 209.958708 
L 89.447375 210.983078 
L 90.097985 214.288505 
L 90.748595 211.772743 
L 91.399206 211.645219 
L 92.049816 208.952532 
L 92.700426 212.456265 
L 93.351037 209.292848 
L 94.001647 213.755935 
L 94.652257 209.509597 
L 95.302868 215.548756 
L 95.953478 211.707742 
L 96.604088 209.590212 
L 97.254698 220.67313 
L 97.905309 228.442204 
L 98.555919 218.14634 
L 99.206529 211.796674 
L 99.85714 212.007397 
L 100.50775 211.985758 
L 101.15836 218.414962 
L 102.459581 206.430481 
L 103.110191 210.406517 
L 103.760802 222.193684 
L 104.411412 223.667939 
L 105.062022 233.108139 
L 105.712633 215.399385 
L 106.363243 210.744592 
L 107.013853 207.470138 
L 107.664463 213.210079 
L 108.315074 210.078386 
L 108.965684 212.413057 
L 109.616294 211.469059 
L 110.266905 221.968291 
L 110.917515 218.411899 
L 111.568125 210.116326 
L 112.218736 232.629836 
L 112.869346 209.322634 
L 113.519956 213.5951 
L 114.170567 206.175427 
L 114.821177 222.215172 
L 115.471787 215.016716 
L 116.122398 209.35683 
L 116.773008 209.504895 
L 117.423618 216.773994 
L 118.074228 213.675824 
L 118.724839 216.220504 
L 119.375449 216.096277 
L 120.026059 213.502536 
L 120.67667 213.476848 
L 121.32728 212.42519 
L 121.97789 226.284052 
L 122.628501 212.565008 
L 123.279111 212.5089 
L 123.929721 213.154138 
L 124.580332 209.383892 
L 125.230942 216.777776 
L 125.881552 214.057752 
L 126.532163 214.322331 
L 127.182773 210.698984 
L 127.833383 212.033787 
L 128.483993 215.114441 
L 129.134604 209.033763 
L 130.435824 216.750522 
L 131.086435 204.977976 
L 131.737045 210.892502 
L 132.387655 209.292113 
L 133.038266 216.121464 
L 133.688876 212.084871 
L 134.339486 211.850531 
L 134.990097 209.713846 
L 135.640707 224.881666 
L 136.291317 213.764526 
L 136.941927 210.073962 
L 137.592538 210.525988 
L 138.243148 214.977384 
L 138.893758 206.96429 
L 139.544369 206.6143 
L 140.194979 214.134294 
L 140.845589 208.115997 
L 141.4962 217.545309 
L 142.14681 211.062528 
L 142.79742 213.967203 
L 143.448031 211.494704 
L 144.098641 218.11486 
L 145.399862 204.384044 
L 146.050472 215.481595 
L 146.701082 205.976468 
L 147.351692 216.35804 
L 148.002303 208.932583 
L 148.652913 205.568233 
L 149.303523 215.733328 
L 149.954134 210.280787 
L 150.604744 210.778386 
L 151.255354 213.562419 
L 151.905965 210.971507 
L 152.556575 218.380444 
L 153.207185 205.876879 
L 153.857796 208.826145 
L 154.508406 215.459911 
L 155.159016 216.886677 
L 155.809627 217.310941 
L 156.460237 212.747033 
L 157.110847 213.430178 
L 157.761457 207.277553 
L 158.412068 216.110487 
L 159.062678 212.414376 
L 159.713288 211.395952 
L 160.363899 207.028947 
L 161.014509 213.010448 
L 161.665119 213.786089 
L 162.31573 207.478779 
L 162.96634 210.740992 
L 163.61695 207.323369 
L 164.267561 214.595211 
L 164.918171 208.443485 
L 165.568781 219.890972 
L 166.870002 207.342299 
L 168.171222 217.010225 
L 168.821833 205.73179 
L 169.472443 210.551061 
L 170.123053 210.320846 
L 170.773664 205.583629 
L 171.424274 217.005068 
L 172.074884 212.595773 
L 172.725495 212.783574 
L 173.376105 214.468977 
L 174.026715 213.612856 
L 174.677326 217.288592 
L 175.327936 211.85744 
L 175.978546 211.730947 
L 176.629156 211.18489 
L 177.279767 212.533086 
L 177.930377 210.336986 
L 178.580987 205.607956 
L 179.231598 209.914568 
L 179.882208 210.152269 
L 180.532818 224.975323 
L 181.183429 212.811208 
L 181.834039 221.875749 
L 182.484649 214.482407 
L 183.13526 214.292695 
L 183.78587 206.870312 
L 184.43648 206.6051 
L 185.087091 215.661112 
L 185.737701 209.208699 
L 186.388311 211.069317 
L 187.038921 214.134777 
L 188.340142 202.952706 
L 188.990752 215.026187 
L 189.641363 236.203636 
L 190.291973 223.922882 
L 190.942583 236.780588 
L 191.593194 210.081226 
L 192.243804 220.940833 
L 192.894414 213.892763 
L 193.545025 217.622098 
L 194.195635 211.241655 
L 194.846245 210.669752 
L 195.496856 213.712461 
L 196.147466 207.772752 
L 196.798076 213.77172 
L 197.448686 210.088102 
L 198.099297 204.950317 
L 198.749907 208.792404 
L 199.400517 209.11549 
L 200.051128 208.615626 
L 201.352348 211.432667 
L 202.002959 215.717727 
L 203.304179 206.486836 
L 203.95479 208.370441 
L 204.6054 211.911133 
L 205.25601 206.192704 
L 205.906621 213.597849 
L 206.557231 203.846498 
L 207.858451 212.613086 
L 208.509062 205.639302 
L 209.159672 206.665319 
L 209.810282 210.43224 
L 210.460893 213.152275 
L 211.111503 214.522053 
L 211.762113 207.473765 
L 212.412724 208.774895 
L 213.063334 211.015535 
L 213.713944 206.25569 
L 214.364555 218.155942 
L 215.015165 211.546241 
L 215.665775 216.072691 
L 216.316385 211.187194 
L 216.966996 209.854135 
L 217.617606 206.241037 
L 218.268216 210.181459 
L 218.918827 209.862044 
L 219.569437 213.081961 
L 220.220047 213.725731 
L 220.870658 214.208188 
L 221.521268 215.547429 
L 222.171878 207.002216 
L 222.822489 206.161164 
L 223.473099 207.425537 
L 224.123709 218.046625 
L 224.77432 207.103423 
L 225.42493 215.361184 
L 226.07554 210.484243 
L 226.72615 213.749788 
L 227.376761 207.590295 
L 228.027371 203.871393 
L 228.677981 209.347911 
L 229.328592 212.856605 
L 229.979202 205.935076 
L 230.629812 208.781546 
L 231.280423 207.717571 
L 231.931033 205.095136 
L 232.581643 206.683604 
L 233.232254 213.778044 
L 233.882864 210.655244 
L 234.533474 206.970698 
L 235.184085 205.103033 
L 235.834695 212.211947 
L 236.485305 207.019166 
L 237.135915 205.663514 
L 237.786526 202.446171 
L 238.437136 207.77975 
L 239.087746 209.713598 
L 239.738357 205.902219 
L 240.388967 205.569827 
L 241.039577 207.668837 
L 241.690188 204.724958 
L 242.340798 205.889352 
L 242.991408 209.855264 
L 243.642019 205.090774 
L 244.292629 213.935185 
L 244.943239 208.951986 
L 245.59385 206.170502 
L 246.24446 210.045582 
L 246.89507 213.246497 
L 247.54568 208.104197 
L 248.196291 208.673178 
L 248.846901 215.475804 
L 249.497511 213.104499 
L 250.148122 206.021296 
L 250.798732 207.636744 
L 251.449342 208.484653 
L 252.099953 201.125195 
L 252.750563 206.8186 
L 253.401173 203.466707 
L 254.051784 212.030438 
L 254.702394 204.241535 
L 255.353004 207.603692 
L 256.003615 211.882778 
L 256.654225 230.057021 
L 257.955445 208.820724 
L 258.606056 202.097846 
L 259.256666 210.213539 
L 259.907276 212.121836 
L 260.557887 215.183867 
L 261.208497 209.793621 
L 261.859107 205.895961 
L 262.509718 208.734441 
L 263.160328 203.079826 
L 263.810938 210.104554 
L 264.461549 201.170819 
L 265.112159 206.633837 
L 265.762769 202.975952 
L 266.413379 204.556857 
L 267.06399 210.542349 
L 267.7146 211.444961 
L 268.36521 201.080167 
L 269.015821 197.142261 
L 269.666431 210.985086 
L 270.317041 207.120071 
L 270.967652 205.308273 
L 271.618262 210.23913 
L 272.268872 204.343914 
L 272.919483 208.267819 
L 273.570093 208.458362 
L 274.220703 205.223167 
L 274.871314 204.090599 
L 275.521924 206.440147 
L 276.172534 215.942369 
L 276.823144 207.914433 
L 277.473755 214.541909 
L 278.124365 208.200842 
L 278.774975 209.722732 
L 279.425586 205.456201 
L 280.076196 205.561153 
L 280.726806 206.75133 
L 281.377417 207.551929 
L 282.028027 208.679639 
L 282.678637 205.299019 
L 283.329248 200.744029 
L 283.979858 212.48402 
L 284.630468 210.265832 
L 285.281079 203.425427 
L 285.931689 206.410419 
L 286.582299 207.717113 
L 287.232909 203.513881 
L 287.88352 204.756112 
L 288.53413 203.644373 
L 289.18474 203.780852 
L 289.835351 215.114324 
L 290.485961 205.390123 
L 291.136571 203.902385 
L 291.787182 203.246612 
L 292.437792 199.374935 
L 293.088402 201.511619 
L 293.739013 203.194552 
L 294.389623 204.434986 
L 295.040233 204.74199 
L 295.690844 211.007619 
L 296.341454 204.299611 
L 296.992064 205.188567 
L 297.642674 203.018766 
L 298.293285 200.044506 
L 298.943895 207.105626 
L 299.594505 206.46091 
L 300.245116 210.047976 
L 300.895726 210.555325 
L 301.546336 208.525738 
L 302.196947 202.110091 
L 302.847557 209.969919 
L 303.498167 207.777443 
L 304.148778 202.570508 
L 304.799388 208.146407 
L 305.449998 200.586842 
L 306.100608 209.258709 
L 306.751219 207.058005 
L 307.401829 210.919444 
L 308.052439 211.86277 
L 308.70305 215.653765 
L 309.35366 209.806019 
L 310.00427 210.933385 
L 310.654881 204.530976 
L 311.305491 207.394844 
L 311.956101 199.533428 
L 312.606712 204.523714 
L 313.257322 206.388621 
L 313.907932 206.474587 
L 314.558543 208.160393 
L 315.859763 205.317152 
L 316.510373 206.815119 
L 317.160984 201.356519 
L 317.811594 205.630197 
L 318.462204 198.149347 
L 319.112815 198.83996 
L 319.763425 207.075097 
L 320.414035 217.05344 
L 321.064646 209.842977 
L 321.715256 209.985789 
L 322.365866 205.29512 
L 323.016477 205.614333 
L 323.667087 204.091764 
L 324.317697 206.646971 
L 324.968308 205.852696 
L 325.618918 205.816883 
L 326.269528 210.120684 
L 326.920138 203.503061 
L 327.570749 206.049991 
L 328.221359 205.185314 
L 328.871969 199.231203 
L 329.52258 203.463818 
L 330.17319 204.734 
L 330.8238 206.53783 
L 331.474411 202.605484 
L 332.125021 208.047497 
L 332.775631 202.514545 
L 333.426242 203.965535 
L 334.076852 201.456289 
L 334.727462 200.302155 
L 335.378073 200.645589 
L 336.028683 202.394456 
L 336.679293 206.632256 
L 337.329903 208.092308 
L 337.980514 205.529452 
L 338.631124 202.349351 
L 339.281734 202.714341 
L 339.932345 208.41982 
L 340.582955 202.357225 
L 341.233565 199.923387 
L 341.884176 201.736221 
L 342.534786 201.859128 
L 343.185396 204.8637 
L 343.836007 200.292059 
L 344.486617 207.909815 
L 345.137227 202.738706 
L 345.787837 206.980879 
L 346.438448 200.274217 
L 347.089058 201.913175 
L 347.739668 201.336018 
L 348.390279 202.380346 
L 349.040889 218.054419 
L 349.691499 205.63549 
L 350.34211 200.343522 
L 350.99272 204.422826 
L 351.64333 206.493321 
L 352.293941 204.354002 
L 352.944551 206.98139 
L 353.595161 200.336683 
L 354.245772 200.15222 
L 354.896382 206.043678 
L 355.546992 200.089194 
L 356.197602 207.147356 
L 356.848213 203.416835 
L 357.498823 204.068136 
L 358.149433 206.175193 
L 358.800044 198.255239 
L 359.450654 208.955431 
L 360.751875 199.763558 
L 361.402485 199.499475 
L 362.053095 203.146967 
L 362.703706 201.822781 
L 363.354316 203.751671 
L 364.004926 204.402529 
L 364.655537 204.597785 
L 365.306147 202.93701 
L 365.956757 210.010662 
L 366.607367 199.237053 
L 367.257978 205.457816 
L 367.908588 201.778571 
L 368.559198 204.075318 
L 369.209809 204.097313 
L 369.860419 205.157164 
L 371.16164 218.935196 
L 371.81225 212.608231 
L 372.46286 209.808113 
L 373.113471 205.066521 
L 373.764081 203.836068 
L 374.414691 208.361722 
L 375.065302 205.602217 
L 375.715912 199.712841 
L 376.366522 207.657305 
L 377.017132 202.300674 
L 377.667743 203.787323 
L 378.318353 201.333142 
L 378.968963 204.636197 
L 379.619574 200.74905 
L 380.270184 205.218176 
L 380.920794 200.646192 
L 381.571405 213.647209 
L 382.222015 237.175106 
L 382.872625 207.509071 
L 383.523236 211.43033 
L 384.173846 212.407656 
L 384.824456 206.186394 
L 385.475066 210.042747 
L 386.125677 221.017949 
L 386.776287 207.074239 
L 387.426897 210.0312 
L 388.077508 211.9564 
L 388.728118 209.331011 
L 389.378728 204.609928 
L 390.029339 207.818878 
L 390.679949 207.118368 
L 391.330559 212.683715 
L 391.98117 201.718653 
L 392.63178 217.051052 
L 393.28239 228.35842 
L 393.933001 203.862464 
L 394.583611 206.167808 
L 395.234221 209.019313 
L 395.884831 205.816275 
L 396.535442 209.450611 
L 397.186052 201.299727 
L 397.836662 211.235056 
L 398.487273 204.954498 
L 398.487273 204.954498 
" style="fill:none;stroke:#ffa500;stroke-linecap:square;stroke-width:1.5;"/>
   </g>
   <g id="patch_8">
    <path d="M 57.6 307.584 
L 57.6 191.88313 
" style="fill:none;stroke:#000000;stroke-linecap:square;stroke-linejoin:miter;stroke-width:0.8;"/>
   </g>
   <g id="patch_9">
    <path d="M 414.72 307.584 
L 414.72 191.88313 
" style="fill:none;stroke:#000000;stroke-linecap:square;stroke-linejoin:miter;stroke-width:0.8;"/>
   </g>
   <g id="patch_10">
    <path d="M 57.6 307.584 
L 414.72 307.584 
" style="fill:none;stroke:#000000;stroke-linecap:square;stroke-linejoin:miter;stroke-width:0.8;"/>
   </g>
   <g id="patch_11">
    <path d="M 57.6 191.88313 
L 414.72 191.88313 
" style="fill:none;stroke:#000000;stroke-linecap:square;stroke-linejoin:miter;stroke-width:0.8;"/>
   </g>
  </g>
 </g>
 <defs>
  <clipPath id="pd4149ec59f">
   <rect height="115.70087" width="357.12" x="57.6" y="41.472"/>
  </clipPath>
  <clipPath id="p462fafb2a9">
   <rect height="115.70087" width="357.12" x="57.6" y="191.88313"/>
  </clipPath>
 </defs>
</svg>
