<?xml version="1.0" encoding="utf-8" standalone="no"?>
<!DOCTYPE svg PUBLIC "-//W3C//DTD SVG 1.1//EN"
  "http://www.w3.org/Graphics/SVG/1.1/DTD/svg11.dtd">
<!-- Created with matplotlib (https://matplotlib.org/) -->
<svg height="345.6pt" version="1.1" viewBox="0 0 460.8 345.6" width="460.8pt" xmlns="http://www.w3.org/2000/svg" xmlns:xlink="http://www.w3.org/1999/xlink">
 <defs>
  <style type="text/css">
*{stroke-linecap:butt;stroke-linejoin:round;}
  </style>
 </defs>
 <g id="figure_1">
  <g id="patch_1">
   <path d="M 0 345.6 
L 460.8 345.6 
L 460.8 0 
L 0 0 
z
" style="fill:#ffffff;"/>
  </g>
  <g id="axes_1">
   <g id="patch_2">
    <path d="M 57.6 157.17287 
L 414.72 157.17287 
L 414.72 41.472 
L 57.6 41.472 
z
" style="fill:#ffffff;"/>
   </g>
   <g id="matplotlib.axis_1">
    <g id="xtick_1">
     <g id="line2d_1">
      <path clip-path="url(#p5c644edba7)" d="M 73.832727 157.17287 
L 73.832727 41.472 
" style="fill:none;stroke:#b0b0b0;stroke-linecap:square;stroke-width:0.8;"/>
     </g>
     <g id="line2d_2">
      <defs>
       <path d="M 0 0 
L 0 3.5 
" id="m62a2ec9ba6" style="stroke:#000000;stroke-width:0.8;"/>
      </defs>
      <g>
       <use style="stroke:#000000;stroke-width:0.8;" x="73.832727" xlink:href="#m62a2ec9ba6" y="157.17287"/>
      </g>
     </g>
     <g id="text_1">
      <!-- 0 -->
      <defs>
       <path d="M 31.78125 66.40625 
Q 24.171875 66.40625 20.328125 58.90625 
Q 16.5 51.421875 16.5 36.375 
Q 16.5 21.390625 20.328125 13.890625 
Q 24.171875 6.390625 31.78125 6.390625 
Q 39.453125 6.390625 43.28125 13.890625 
Q 47.125 21.390625 47.125 36.375 
Q 47.125 51.421875 43.28125 58.90625 
Q 39.453125 66.40625 31.78125 66.40625 
z
M 31.78125 74.21875 
Q 44.046875 74.21875 50.515625 64.515625 
Q 56.984375 54.828125 56.984375 36.375 
Q 56.984375 17.96875 50.515625 8.265625 
Q 44.046875 -1.421875 31.78125 -1.421875 
Q 19.53125 -1.421875 13.0625 8.265625 
Q 6.59375 17.96875 6.59375 36.375 
Q 6.59375 54.828125 13.0625 64.515625 
Q 19.53125 74.21875 31.78125 74.21875 
z
" id="DejaVuSans-48"/>
      </defs>
      <g transform="translate(70.651477 171.771307)scale(0.1 -0.1)">
       <use xlink:href="#DejaVuSans-48"/>
      </g>
     </g>
    </g>
    <g id="xtick_2">
     <g id="line2d_3">
      <path clip-path="url(#p5c644edba7)" d="M 138.893758 157.17287 
L 138.893758 41.472 
" style="fill:none;stroke:#b0b0b0;stroke-linecap:square;stroke-width:0.8;"/>
     </g>
     <g id="line2d_4">
      <g>
       <use style="stroke:#000000;stroke-width:0.8;" x="138.893758" xlink:href="#m62a2ec9ba6" y="157.17287"/>
      </g>
     </g>
     <g id="text_2">
      <!-- 100 -->
      <defs>
       <path d="M 12.40625 8.296875 
L 28.515625 8.296875 
L 28.515625 63.921875 
L 10.984375 60.40625 
L 10.984375 69.390625 
L 28.421875 72.90625 
L 38.28125 72.90625 
L 38.28125 8.296875 
L 54.390625 8.296875 
L 54.390625 0 
L 12.40625 0 
z
" id="DejaVuSans-49"/>
      </defs>
      <g transform="translate(129.350008 171.771307)scale(0.1 -0.1)">
       <use xlink:href="#DejaVuSans-49"/>
       <use x="63.623047" xlink:href="#DejaVuSans-48"/>
       <use x="127.246094" xlink:href="#DejaVuSans-48"/>
      </g>
     </g>
    </g>
    <g id="xtick_3">
     <g id="line2d_5">
      <path clip-path="url(#p5c644edba7)" d="M 203.95479 157.17287 
L 203.95479 41.472 
" style="fill:none;stroke:#b0b0b0;stroke-linecap:square;stroke-width:0.8;"/>
     </g>
     <g id="line2d_6">
      <g>
       <use style="stroke:#000000;stroke-width:0.8;" x="203.95479" xlink:href="#m62a2ec9ba6" y="157.17287"/>
      </g>
     </g>
     <g id="text_3">
      <!-- 200 -->
      <defs>
       <path d="M 19.1875 8.296875 
L 53.609375 8.296875 
L 53.609375 0 
L 7.328125 0 
L 7.328125 8.296875 
Q 12.9375 14.109375 22.625 23.890625 
Q 32.328125 33.6875 34.8125 36.53125 
Q 39.546875 41.84375 41.421875 45.53125 
Q 43.3125 49.21875 43.3125 52.78125 
Q 43.3125 58.59375 39.234375 62.25 
Q 35.15625 65.921875 28.609375 65.921875 
Q 23.96875 65.921875 18.8125 64.3125 
Q 13.671875 62.703125 7.8125 59.421875 
L 7.8125 69.390625 
Q 13.765625 71.78125 18.9375 73 
Q 24.125 74.21875 28.421875 74.21875 
Q 39.75 74.21875 46.484375 68.546875 
Q 53.21875 62.890625 53.21875 53.421875 
Q 53.21875 48.921875 51.53125 44.890625 
Q 49.859375 40.875 45.40625 35.40625 
Q 44.1875 33.984375 37.640625 27.21875 
Q 31.109375 20.453125 19.1875 8.296875 
z
" id="DejaVuSans-50"/>
      </defs>
      <g transform="translate(194.41104 171.771307)scale(0.1 -0.1)">
       <use xlink:href="#DejaVuSans-50"/>
       <use x="63.623047" xlink:href="#DejaVuSans-48"/>
       <use x="127.246094" xlink:href="#DejaVuSans-48"/>
      </g>
     </g>
    </g>
    <g id="xtick_4">
     <g id="line2d_7">
      <path clip-path="url(#p5c644edba7)" d="M 269.015821 157.17287 
L 269.015821 41.472 
" style="fill:none;stroke:#b0b0b0;stroke-linecap:square;stroke-width:0.8;"/>
     </g>
     <g id="line2d_8">
      <g>
       <use style="stroke:#000000;stroke-width:0.8;" x="269.015821" xlink:href="#m62a2ec9ba6" y="157.17287"/>
      </g>
     </g>
     <g id="text_4">
      <!-- 300 -->
      <defs>
       <path d="M 40.578125 39.3125 
Q 47.65625 37.796875 51.625 33 
Q 55.609375 28.21875 55.609375 21.1875 
Q 55.609375 10.40625 48.1875 4.484375 
Q 40.765625 -1.421875 27.09375 -1.421875 
Q 22.515625 -1.421875 17.65625 -0.515625 
Q 12.796875 0.390625 7.625 2.203125 
L 7.625 11.71875 
Q 11.71875 9.328125 16.59375 8.109375 
Q 21.484375 6.890625 26.8125 6.890625 
Q 36.078125 6.890625 40.9375 10.546875 
Q 45.796875 14.203125 45.796875 21.1875 
Q 45.796875 27.640625 41.28125 31.265625 
Q 36.765625 34.90625 28.71875 34.90625 
L 20.21875 34.90625 
L 20.21875 43.015625 
L 29.109375 43.015625 
Q 36.375 43.015625 40.234375 45.921875 
Q 44.09375 48.828125 44.09375 54.296875 
Q 44.09375 59.90625 40.109375 62.90625 
Q 36.140625 65.921875 28.71875 65.921875 
Q 24.65625 65.921875 20.015625 65.03125 
Q 15.375 64.15625 9.8125 62.3125 
L 9.8125 71.09375 
Q 15.4375 72.65625 20.34375 73.4375 
Q 25.25 74.21875 29.59375 74.21875 
Q 40.828125 74.21875 47.359375 69.109375 
Q 53.90625 64.015625 53.90625 55.328125 
Q 53.90625 49.265625 50.4375 45.09375 
Q 46.96875 40.921875 40.578125 39.3125 
z
" id="DejaVuSans-51"/>
      </defs>
      <g transform="translate(259.472071 171.771307)scale(0.1 -0.1)">
       <use xlink:href="#DejaVuSans-51"/>
       <use x="63.623047" xlink:href="#DejaVuSans-48"/>
       <use x="127.246094" xlink:href="#DejaVuSans-48"/>
      </g>
     </g>
    </g>
    <g id="xtick_5">
     <g id="line2d_9">
      <path clip-path="url(#p5c644edba7)" d="M 334.076852 157.17287 
L 334.076852 41.472 
" style="fill:none;stroke:#b0b0b0;stroke-linecap:square;stroke-width:0.8;"/>
     </g>
     <g id="line2d_10">
      <g>
       <use style="stroke:#000000;stroke-width:0.8;" x="334.076852" xlink:href="#m62a2ec9ba6" y="157.17287"/>
      </g>
     </g>
     <g id="text_5">
      <!-- 400 -->
      <defs>
       <path d="M 37.796875 64.3125 
L 12.890625 25.390625 
L 37.796875 25.390625 
z
M 35.203125 72.90625 
L 47.609375 72.90625 
L 47.609375 25.390625 
L 58.015625 25.390625 
L 58.015625 17.1875 
L 47.609375 17.1875 
L 47.609375 0 
L 37.796875 0 
L 37.796875 17.1875 
L 4.890625 17.1875 
L 4.890625 26.703125 
z
" id="DejaVuSans-52"/>
      </defs>
      <g transform="translate(324.533102 171.771307)scale(0.1 -0.1)">
       <use xlink:href="#DejaVuSans-52"/>
       <use x="63.623047" xlink:href="#DejaVuSans-48"/>
       <use x="127.246094" xlink:href="#DejaVuSans-48"/>
      </g>
     </g>
    </g>
    <g id="xtick_6">
     <g id="line2d_11">
      <path clip-path="url(#p5c644edba7)" d="M 399.137883 157.17287 
L 399.137883 41.472 
" style="fill:none;stroke:#b0b0b0;stroke-linecap:square;stroke-width:0.8;"/>
     </g>
     <g id="line2d_12">
      <g>
       <use style="stroke:#000000;stroke-width:0.8;" x="399.137883" xlink:href="#m62a2ec9ba6" y="157.17287"/>
      </g>
     </g>
     <g id="text_6">
      <!-- 500 -->
      <defs>
       <path d="M 10.796875 72.90625 
L 49.515625 72.90625 
L 49.515625 64.59375 
L 19.828125 64.59375 
L 19.828125 46.734375 
Q 21.96875 47.46875 24.109375 47.828125 
Q 26.265625 48.1875 28.421875 48.1875 
Q 40.625 48.1875 47.75 41.5 
Q 54.890625 34.8125 54.890625 23.390625 
Q 54.890625 11.625 47.5625 5.09375 
Q 40.234375 -1.421875 26.90625 -1.421875 
Q 22.3125 -1.421875 17.546875 -0.640625 
Q 12.796875 0.140625 7.71875 1.703125 
L 7.71875 11.625 
Q 12.109375 9.234375 16.796875 8.0625 
Q 21.484375 6.890625 26.703125 6.890625 
Q 35.15625 6.890625 40.078125 11.328125 
Q 45.015625 15.765625 45.015625 23.390625 
Q 45.015625 31 40.078125 35.4375 
Q 35.15625 39.890625 26.703125 39.890625 
Q 22.75 39.890625 18.8125 39.015625 
Q 14.890625 38.140625 10.796875 36.28125 
z
" id="DejaVuSans-53"/>
      </defs>
      <g transform="translate(389.594133 171.771307)scale(0.1 -0.1)">
       <use xlink:href="#DejaVuSans-53"/>
       <use x="63.623047" xlink:href="#DejaVuSans-48"/>
       <use x="127.246094" xlink:href="#DejaVuSans-48"/>
      </g>
     </g>
    </g>
    <g id="text_7">
     <!-- episodes -->
     <defs>
      <path d="M 56.203125 29.59375 
L 56.203125 25.203125 
L 14.890625 25.203125 
Q 15.484375 15.921875 20.484375 11.0625 
Q 25.484375 6.203125 34.421875 6.203125 
Q 39.59375 6.203125 44.453125 7.46875 
Q 49.3125 8.734375 54.109375 11.28125 
L 54.109375 2.78125 
Q 49.265625 0.734375 44.1875 -0.34375 
Q 39.109375 -1.421875 33.890625 -1.421875 
Q 20.796875 -1.421875 13.15625 6.1875 
Q 5.515625 13.8125 5.515625 26.8125 
Q 5.515625 40.234375 12.765625 48.109375 
Q 20.015625 56 32.328125 56 
Q 43.359375 56 49.78125 48.890625 
Q 56.203125 41.796875 56.203125 29.59375 
z
M 47.21875 32.234375 
Q 47.125 39.59375 43.09375 43.984375 
Q 39.0625 48.390625 32.421875 48.390625 
Q 24.90625 48.390625 20.390625 44.140625 
Q 15.875 39.890625 15.1875 32.171875 
z
" id="DejaVuSans-101"/>
      <path d="M 18.109375 8.203125 
L 18.109375 -20.796875 
L 9.078125 -20.796875 
L 9.078125 54.6875 
L 18.109375 54.6875 
L 18.109375 46.390625 
Q 20.953125 51.265625 25.265625 53.625 
Q 29.59375 56 35.59375 56 
Q 45.5625 56 51.78125 48.09375 
Q 58.015625 40.1875 58.015625 27.296875 
Q 58.015625 14.40625 51.78125 6.484375 
Q 45.5625 -1.421875 35.59375 -1.421875 
Q 29.59375 -1.421875 25.265625 0.953125 
Q 20.953125 3.328125 18.109375 8.203125 
z
M 48.6875 27.296875 
Q 48.6875 37.203125 44.609375 42.84375 
Q 40.53125 48.484375 33.40625 48.484375 
Q 26.265625 48.484375 22.1875 42.84375 
Q 18.109375 37.203125 18.109375 27.296875 
Q 18.109375 17.390625 22.1875 11.75 
Q 26.265625 6.109375 33.40625 6.109375 
Q 40.53125 6.109375 44.609375 11.75 
Q 48.6875 17.390625 48.6875 27.296875 
z
" id="DejaVuSans-112"/>
      <path d="M 9.421875 54.6875 
L 18.40625 54.6875 
L 18.40625 0 
L 9.421875 0 
z
M 9.421875 75.984375 
L 18.40625 75.984375 
L 18.40625 64.59375 
L 9.421875 64.59375 
z
" id="DejaVuSans-105"/>
      <path d="M 44.28125 53.078125 
L 44.28125 44.578125 
Q 40.484375 46.53125 36.375 47.5 
Q 32.28125 48.484375 27.875 48.484375 
Q 21.1875 48.484375 17.84375 46.4375 
Q 14.5 44.390625 14.5 40.28125 
Q 14.5 37.15625 16.890625 35.375 
Q 19.28125 33.59375 26.515625 31.984375 
L 29.59375 31.296875 
Q 39.15625 29.25 43.1875 25.515625 
Q 47.21875 21.78125 47.21875 15.09375 
Q 47.21875 7.46875 41.1875 3.015625 
Q 35.15625 -1.421875 24.609375 -1.421875 
Q 20.21875 -1.421875 15.453125 -0.5625 
Q 10.6875 0.296875 5.421875 2 
L 5.421875 11.28125 
Q 10.40625 8.6875 15.234375 7.390625 
Q 20.0625 6.109375 24.8125 6.109375 
Q 31.15625 6.109375 34.5625 8.28125 
Q 37.984375 10.453125 37.984375 14.40625 
Q 37.984375 18.0625 35.515625 20.015625 
Q 33.0625 21.96875 24.703125 23.78125 
L 21.578125 24.515625 
Q 13.234375 26.265625 9.515625 29.90625 
Q 5.8125 33.546875 5.8125 39.890625 
Q 5.8125 47.609375 11.28125 51.796875 
Q 16.75 56 26.8125 56 
Q 31.78125 56 36.171875 55.265625 
Q 40.578125 54.546875 44.28125 53.078125 
z
" id="DejaVuSans-115"/>
      <path d="M 30.609375 48.390625 
Q 23.390625 48.390625 19.1875 42.75 
Q 14.984375 37.109375 14.984375 27.296875 
Q 14.984375 17.484375 19.15625 11.84375 
Q 23.34375 6.203125 30.609375 6.203125 
Q 37.796875 6.203125 41.984375 11.859375 
Q 46.1875 17.53125 46.1875 27.296875 
Q 46.1875 37.015625 41.984375 42.703125 
Q 37.796875 48.390625 30.609375 48.390625 
z
M 30.609375 56 
Q 42.328125 56 49.015625 48.375 
Q 55.71875 40.765625 55.71875 27.296875 
Q 55.71875 13.875 49.015625 6.21875 
Q 42.328125 -1.421875 30.609375 -1.421875 
Q 18.84375 -1.421875 12.171875 6.21875 
Q 5.515625 13.875 5.515625 27.296875 
Q 5.515625 40.765625 12.171875 48.375 
Q 18.84375 56 30.609375 56 
z
" id="DejaVuSans-111"/>
      <path d="M 45.40625 46.390625 
L 45.40625 75.984375 
L 54.390625 75.984375 
L 54.390625 0 
L 45.40625 0 
L 45.40625 8.203125 
Q 42.578125 3.328125 38.25 0.953125 
Q 33.9375 -1.421875 27.875 -1.421875 
Q 17.96875 -1.421875 11.734375 6.484375 
Q 5.515625 14.40625 5.515625 27.296875 
Q 5.515625 40.1875 11.734375 48.09375 
Q 17.96875 56 27.875 56 
Q 33.9375 56 38.25 53.625 
Q 42.578125 51.265625 45.40625 46.390625 
z
M 14.796875 27.296875 
Q 14.796875 17.390625 18.875 11.75 
Q 22.953125 6.109375 30.078125 6.109375 
Q 37.203125 6.109375 41.296875 11.75 
Q 45.40625 17.390625 45.40625 27.296875 
Q 45.40625 37.203125 41.296875 42.84375 
Q 37.203125 48.484375 30.078125 48.484375 
Q 22.953125 48.484375 18.875 42.84375 
Q 14.796875 37.203125 14.796875 27.296875 
z
" id="DejaVuSans-100"/>
     </defs>
     <g transform="translate(214.000625 185.449432)scale(0.1 -0.1)">
      <use xlink:href="#DejaVuSans-101"/>
      <use x="61.523438" xlink:href="#DejaVuSans-112"/>
      <use x="125" xlink:href="#DejaVuSans-105"/>
      <use x="152.783203" xlink:href="#DejaVuSans-115"/>
      <use x="204.882812" xlink:href="#DejaVuSans-111"/>
      <use x="266.064453" xlink:href="#DejaVuSans-100"/>
      <use x="329.541016" xlink:href="#DejaVuSans-101"/>
      <use x="391.064453" xlink:href="#DejaVuSans-115"/>
     </g>
    </g>
   </g>
   <g id="matplotlib.axis_2">
    <g id="ytick_1">
     <g id="line2d_13">
      <path clip-path="url(#p5c644edba7)" d="M 57.6 144.275207 
L 414.72 144.275207 
" style="fill:none;stroke:#b0b0b0;stroke-linecap:square;stroke-width:0.8;"/>
     </g>
     <g id="line2d_14">
      <defs>
       <path d="M 0 0 
L -3.5 0 
" id="m4794b0636f" style="stroke:#000000;stroke-width:0.8;"/>
      </defs>
      <g>
       <use style="stroke:#000000;stroke-width:0.8;" x="57.6" xlink:href="#m4794b0636f" y="144.275207"/>
      </g>
     </g>
     <g id="text_8">
      <!-- 40 -->
      <g transform="translate(37.875 148.074426)scale(0.1 -0.1)">
       <use xlink:href="#DejaVuSans-52"/>
       <use x="63.623047" xlink:href="#DejaVuSans-48"/>
      </g>
     </g>
    </g>
    <g id="ytick_2">
     <g id="line2d_15">
      <path clip-path="url(#p5c644edba7)" d="M 57.6 120.890735 
L 414.72 120.890735 
" style="fill:none;stroke:#b0b0b0;stroke-linecap:square;stroke-width:0.8;"/>
     </g>
     <g id="line2d_16">
      <g>
       <use style="stroke:#000000;stroke-width:0.8;" x="57.6" xlink:href="#m4794b0636f" y="120.890735"/>
      </g>
     </g>
     <g id="text_9">
      <!-- 60 -->
      <defs>
       <path d="M 33.015625 40.375 
Q 26.375 40.375 22.484375 35.828125 
Q 18.609375 31.296875 18.609375 23.390625 
Q 18.609375 15.53125 22.484375 10.953125 
Q 26.375 6.390625 33.015625 6.390625 
Q 39.65625 6.390625 43.53125 10.953125 
Q 47.40625 15.53125 47.40625 23.390625 
Q 47.40625 31.296875 43.53125 35.828125 
Q 39.65625 40.375 33.015625 40.375 
z
M 52.59375 71.296875 
L 52.59375 62.3125 
Q 48.875 64.0625 45.09375 64.984375 
Q 41.3125 65.921875 37.59375 65.921875 
Q 27.828125 65.921875 22.671875 59.328125 
Q 17.53125 52.734375 16.796875 39.40625 
Q 19.671875 43.65625 24.015625 45.921875 
Q 28.375 48.1875 33.59375 48.1875 
Q 44.578125 48.1875 50.953125 41.515625 
Q 57.328125 34.859375 57.328125 23.390625 
Q 57.328125 12.15625 50.6875 5.359375 
Q 44.046875 -1.421875 33.015625 -1.421875 
Q 20.359375 -1.421875 13.671875 8.265625 
Q 6.984375 17.96875 6.984375 36.375 
Q 6.984375 53.65625 15.1875 63.9375 
Q 23.390625 74.21875 37.203125 74.21875 
Q 40.921875 74.21875 44.703125 73.484375 
Q 48.484375 72.75 52.59375 71.296875 
z
" id="DejaVuSans-54"/>
      </defs>
      <g transform="translate(37.875 124.689954)scale(0.1 -0.1)">
       <use xlink:href="#DejaVuSans-54"/>
       <use x="63.623047" xlink:href="#DejaVuSans-48"/>
      </g>
     </g>
    </g>
    <g id="ytick_3">
     <g id="line2d_17">
      <path clip-path="url(#p5c644edba7)" d="M 57.6 97.506262 
L 414.72 97.506262 
" style="fill:none;stroke:#b0b0b0;stroke-linecap:square;stroke-width:0.8;"/>
     </g>
     <g id="line2d_18">
      <g>
       <use style="stroke:#000000;stroke-width:0.8;" x="57.6" xlink:href="#m4794b0636f" y="97.506262"/>
      </g>
     </g>
     <g id="text_10">
      <!-- 80 -->
      <defs>
       <path d="M 31.78125 34.625 
Q 24.75 34.625 20.71875 30.859375 
Q 16.703125 27.09375 16.703125 20.515625 
Q 16.703125 13.921875 20.71875 10.15625 
Q 24.75 6.390625 31.78125 6.390625 
Q 38.8125 6.390625 42.859375 10.171875 
Q 46.921875 13.96875 46.921875 20.515625 
Q 46.921875 27.09375 42.890625 30.859375 
Q 38.875 34.625 31.78125 34.625 
z
M 21.921875 38.8125 
Q 15.578125 40.375 12.03125 44.71875 
Q 8.5 49.078125 8.5 55.328125 
Q 8.5 64.0625 14.71875 69.140625 
Q 20.953125 74.21875 31.78125 74.21875 
Q 42.671875 74.21875 48.875 69.140625 
Q 55.078125 64.0625 55.078125 55.328125 
Q 55.078125 49.078125 51.53125 44.71875 
Q 48 40.375 41.703125 38.8125 
Q 48.828125 37.15625 52.796875 32.3125 
Q 56.78125 27.484375 56.78125 20.515625 
Q 56.78125 9.90625 50.3125 4.234375 
Q 43.84375 -1.421875 31.78125 -1.421875 
Q 19.734375 -1.421875 13.25 4.234375 
Q 6.78125 9.90625 6.78125 20.515625 
Q 6.78125 27.484375 10.78125 32.3125 
Q 14.796875 37.15625 21.921875 38.8125 
z
M 18.3125 54.390625 
Q 18.3125 48.734375 21.84375 45.5625 
Q 25.390625 42.390625 31.78125 42.390625 
Q 38.140625 42.390625 41.71875 45.5625 
Q 45.3125 48.734375 45.3125 54.390625 
Q 45.3125 60.0625 41.71875 63.234375 
Q 38.140625 66.40625 31.78125 66.40625 
Q 25.390625 66.40625 21.84375 63.234375 
Q 18.3125 60.0625 18.3125 54.390625 
z
" id="DejaVuSans-56"/>
      </defs>
      <g transform="translate(37.875 101.305481)scale(0.1 -0.1)">
       <use xlink:href="#DejaVuSans-56"/>
       <use x="63.623047" xlink:href="#DejaVuSans-48"/>
      </g>
     </g>
    </g>
    <g id="ytick_4">
     <g id="line2d_19">
      <path clip-path="url(#p5c644edba7)" d="M 57.6 74.12179 
L 414.72 74.12179 
" style="fill:none;stroke:#b0b0b0;stroke-linecap:square;stroke-width:0.8;"/>
     </g>
     <g id="line2d_20">
      <g>
       <use style="stroke:#000000;stroke-width:0.8;" x="57.6" xlink:href="#m4794b0636f" y="74.12179"/>
      </g>
     </g>
     <g id="text_11">
      <!-- 100 -->
      <g transform="translate(31.5125 77.921008)scale(0.1 -0.1)">
       <use xlink:href="#DejaVuSans-49"/>
       <use x="63.623047" xlink:href="#DejaVuSans-48"/>
       <use x="127.246094" xlink:href="#DejaVuSans-48"/>
      </g>
     </g>
    </g>
    <g id="ytick_5">
     <g id="line2d_21">
      <path clip-path="url(#p5c644edba7)" d="M 57.6 50.737317 
L 414.72 50.737317 
" style="fill:none;stroke:#b0b0b0;stroke-linecap:square;stroke-width:0.8;"/>
     </g>
     <g id="line2d_22">
      <g>
       <use style="stroke:#000000;stroke-width:0.8;" x="57.6" xlink:href="#m4794b0636f" y="50.737317"/>
      </g>
     </g>
     <g id="text_12">
      <!-- 120 -->
      <g transform="translate(31.5125 54.536536)scale(0.1 -0.1)">
       <use xlink:href="#DejaVuSans-49"/>
       <use x="63.623047" xlink:href="#DejaVuSans-50"/>
       <use x="127.246094" xlink:href="#DejaVuSans-48"/>
      </g>
     </g>
    </g>
    <g id="text_13">
     <!-- time reward -->
     <defs>
      <path d="M 18.3125 70.21875 
L 18.3125 54.6875 
L 36.8125 54.6875 
L 36.8125 47.703125 
L 18.3125 47.703125 
L 18.3125 18.015625 
Q 18.3125 11.328125 20.140625 9.421875 
Q 21.96875 7.515625 27.59375 7.515625 
L 36.8125 7.515625 
L 36.8125 0 
L 27.59375 0 
Q 17.1875 0 13.234375 3.875 
Q 9.28125 7.765625 9.28125 18.015625 
L 9.28125 47.703125 
L 2.6875 47.703125 
L 2.6875 54.6875 
L 9.28125 54.6875 
L 9.28125 70.21875 
z
" id="DejaVuSans-116"/>
      <path d="M 52 44.1875 
Q 55.375 50.25 60.0625 53.125 
Q 64.75 56 71.09375 56 
Q 79.640625 56 84.28125 50.015625 
Q 88.921875 44.046875 88.921875 33.015625 
L 88.921875 0 
L 79.890625 0 
L 79.890625 32.71875 
Q 79.890625 40.578125 77.09375 44.375 
Q 74.3125 48.1875 68.609375 48.1875 
Q 61.625 48.1875 57.5625 43.546875 
Q 53.515625 38.921875 53.515625 30.90625 
L 53.515625 0 
L 44.484375 0 
L 44.484375 32.71875 
Q 44.484375 40.625 41.703125 44.40625 
Q 38.921875 48.1875 33.109375 48.1875 
Q 26.21875 48.1875 22.15625 43.53125 
Q 18.109375 38.875 18.109375 30.90625 
L 18.109375 0 
L 9.078125 0 
L 9.078125 54.6875 
L 18.109375 54.6875 
L 18.109375 46.1875 
Q 21.1875 51.21875 25.484375 53.609375 
Q 29.78125 56 35.6875 56 
Q 41.65625 56 45.828125 52.96875 
Q 50 49.953125 52 44.1875 
z
" id="DejaVuSans-109"/>
      <path id="DejaVuSans-32"/>
      <path d="M 41.109375 46.296875 
Q 39.59375 47.171875 37.8125 47.578125 
Q 36.03125 48 33.890625 48 
Q 26.265625 48 22.1875 43.046875 
Q 18.109375 38.09375 18.109375 28.8125 
L 18.109375 0 
L 9.078125 0 
L 9.078125 54.6875 
L 18.109375 54.6875 
L 18.109375 46.1875 
Q 20.953125 51.171875 25.484375 53.578125 
Q 30.03125 56 36.53125 56 
Q 37.453125 56 38.578125 55.875 
Q 39.703125 55.765625 41.0625 55.515625 
z
" id="DejaVuSans-114"/>
      <path d="M 4.203125 54.6875 
L 13.1875 54.6875 
L 24.421875 12.015625 
L 35.59375 54.6875 
L 46.1875 54.6875 
L 57.421875 12.015625 
L 68.609375 54.6875 
L 77.59375 54.6875 
L 63.28125 0 
L 52.6875 0 
L 40.921875 44.828125 
L 29.109375 0 
L 18.5 0 
z
" id="DejaVuSans-119"/>
      <path d="M 34.28125 27.484375 
Q 23.390625 27.484375 19.1875 25 
Q 14.984375 22.515625 14.984375 16.5 
Q 14.984375 11.71875 18.140625 8.90625 
Q 21.296875 6.109375 26.703125 6.109375 
Q 34.1875 6.109375 38.703125 11.40625 
Q 43.21875 16.703125 43.21875 25.484375 
L 43.21875 27.484375 
z
M 52.203125 31.203125 
L 52.203125 0 
L 43.21875 0 
L 43.21875 8.296875 
Q 40.140625 3.328125 35.546875 0.953125 
Q 30.953125 -1.421875 24.3125 -1.421875 
Q 15.921875 -1.421875 10.953125 3.296875 
Q 6 8.015625 6 15.921875 
Q 6 25.140625 12.171875 29.828125 
Q 18.359375 34.515625 30.609375 34.515625 
L 43.21875 34.515625 
L 43.21875 35.40625 
Q 43.21875 41.609375 39.140625 45 
Q 35.0625 48.390625 27.6875 48.390625 
Q 23 48.390625 18.546875 47.265625 
Q 14.109375 46.140625 10.015625 43.890625 
L 10.015625 52.203125 
Q 14.9375 54.109375 19.578125 55.046875 
Q 24.21875 56 28.609375 56 
Q 40.484375 56 46.34375 49.84375 
Q 52.203125 43.703125 52.203125 31.203125 
z
" id="DejaVuSans-97"/>
     </defs>
     <g transform="translate(25.432812 129.720091)rotate(-90)scale(0.1 -0.1)">
      <use xlink:href="#DejaVuSans-116"/>
      <use x="39.208984" xlink:href="#DejaVuSans-105"/>
      <use x="66.992188" xlink:href="#DejaVuSans-109"/>
      <use x="164.404297" xlink:href="#DejaVuSans-101"/>
      <use x="225.927734" xlink:href="#DejaVuSans-32"/>
      <use x="257.714844" xlink:href="#DejaVuSans-114"/>
      <use x="298.796875" xlink:href="#DejaVuSans-101"/>
      <use x="360.320312" xlink:href="#DejaVuSans-119"/>
      <use x="442.107422" xlink:href="#DejaVuSans-97"/>
      <use x="503.386719" xlink:href="#DejaVuSans-114"/>
      <use x="544.484375" xlink:href="#DejaVuSans-100"/>
     </g>
    </g>
   </g>
   <g id="line2d_23">
    <path clip-path="url(#p5c644edba7)" d="M 73.832727 136.979202 
L 74.483338 84.652416 
L 75.133948 151.913739 
L 75.784558 101.689521 
L 76.435169 95.006126 
L 77.085779 104.623909 
L 77.736389 116.552436 
L 78.386999 92.724838 
L 79.03761 99.09964 
L 80.33883 88.83036 
L 80.989441 74.021104 
L 81.640051 78.498327 
L 82.290661 104.314587 
L 82.941272 78.899021 
L 83.591882 94.200001 
L 84.242492 99.973687 
L 84.893103 75.296039 
L 85.543713 110.802075 
L 86.194323 94.905183 
L 86.844934 86.8497 
L 87.495544 103.727779 
L 88.146154 82.502481 
L 88.796764 85.839367 
L 89.447375 72.806364 
L 90.097985 73.529979 
L 90.748595 72.703125 
L 91.399206 75.074822 
L 92.049816 85.099926 
L 92.700426 67.531709 
L 93.351037 69.00817 
L 94.001647 87.133655 
L 94.652257 72.946412 
L 95.302868 82.650541 
L 95.953478 96.384653 
L 96.604088 72.689956 
L 97.254698 67.07416 
L 97.905309 78.458882 
L 98.555919 74.956115 
L 99.206529 66.730535 
L 99.85714 71.046078 
L 100.50775 67.184798 
L 101.15836 74.99465 
L 101.808971 68.607045 
L 102.459581 70.854294 
L 103.110191 94.05935 
L 103.760802 78.85681 
L 104.411412 72.102677 
L 105.062022 67.60867 
L 105.712633 74.174676 
L 106.363243 72.593584 
L 107.013853 69.503515 
L 108.315074 73.349486 
L 108.965684 68.101602 
L 109.616294 67.743251 
L 110.266905 79.772423 
L 110.917515 79.199755 
L 111.568125 62.578108 
L 112.218736 71.667083 
L 112.869346 63.951626 
L 113.519956 71.929935 
L 114.170567 69.427444 
L 114.821177 85.984999 
L 115.471787 93.280337 
L 116.122398 71.787071 
L 116.773008 67.005586 
L 117.423618 67.325286 
L 118.074228 74.382213 
L 118.724839 65.286069 
L 119.375449 67.39349 
L 120.026059 64.111424 
L 121.32728 66.725003 
L 121.97789 70.095096 
L 122.628501 71.933661 
L 123.279111 66.022225 
L 123.929721 66.793626 
L 124.580332 67.132276 
L 125.230942 70.279477 
L 125.881552 68.964587 
L 126.532163 65.169519 
L 127.182773 63.036237 
L 127.833383 72.553406 
L 128.483993 61.69529 
L 129.134604 66.677522 
L 129.785214 63.460218 
L 130.435824 68.316665 
L 131.086435 63.998072 
L 131.737045 68.445287 
L 132.387655 69.002974 
L 133.038266 65.944313 
L 133.688876 72.127946 
L 134.990097 67.178354 
L 135.640707 66.425873 
L 136.291317 63.771934 
L 136.941927 57.565571 
L 137.592538 69.7127 
L 138.243148 67.907547 
L 138.893758 68.234156 
L 139.544369 61.33746 
L 140.194979 60.467433 
L 141.4962 68.299261 
L 142.14681 68.660263 
L 142.79742 66.68353 
L 143.448031 85.023019 
L 144.098641 61.115791 
L 144.749251 58.229058 
L 146.050472 63.452062 
L 146.701082 58.259708 
L 147.351692 58.38272 
L 148.002303 55.178969 
L 148.652913 62.832573 
L 149.303523 61.32265 
L 149.954134 63.580819 
L 151.255354 60.134371 
L 151.905965 59.788156 
L 152.556575 55.496977 
L 153.207185 58.135975 
L 153.857796 56.865728 
L 154.508406 57.233462 
L 155.159016 56.463281 
L 155.809627 71.309095 
L 156.460237 69.826678 
L 157.110847 62.40443 
L 157.761457 65.796459 
L 158.412068 76.851904 
L 159.062678 62.291855 
L 159.713288 58.693358 
L 160.363899 62.300194 
L 161.014509 54.166991 
L 161.665119 72.294655 
L 162.31573 62.691351 
L 162.96634 69.539769 
L 163.61695 56.468363 
L 164.918171 59.451723 
L 165.568781 71.951338 
L 166.219392 62.218561 
L 166.870002 57.554646 
L 167.520612 54.540553 
L 168.171222 58.692068 
L 168.821833 56.089752 
L 169.472443 56.108163 
L 170.123053 58.116131 
L 170.773664 59.565464 
L 171.424274 68.133744 
L 172.074884 60.340287 
L 172.725495 71.835011 
L 173.376105 60.247195 
L 174.026715 65.47012 
L 174.677326 60.009894 
L 175.327936 56.162795 
L 175.978546 61.368757 
L 176.629156 53.800625 
L 177.279767 53.497675 
L 177.930377 58.875763 
L 178.580987 51.464822 
L 179.231598 63.607593 
L 179.882208 63.328064 
L 180.532818 65.274157 
L 181.183429 59.446444 
L 181.834039 54.739535 
L 182.484649 60.993846 
L 183.13526 56.827942 
L 183.78587 53.689915 
L 184.43648 59.565702 
L 185.087091 60.153739 
L 185.737701 56.408557 
L 186.388311 56.006303 
L 188.340142 64.738621 
L 188.990752 66.266325 
L 189.641363 64.504924 
L 190.291973 59.948206 
L 191.593194 77.030117 
L 192.243804 60.917227 
L 192.894414 62.321213 
L 193.545025 66.97754 
L 194.195635 57.738663 
L 194.846245 63.686621 
L 195.496856 59.367047 
L 196.147466 60.226574 
L 196.798076 59.138281 
L 197.448686 60.672597 
L 198.099297 59.659503 
L 198.749907 50.821064 
L 199.400517 56.938547 
L 200.051128 59.934748 
L 200.701738 54.251897 
L 201.352348 56.345986 
L 202.002959 67.010932 
L 202.653569 60.737529 
L 203.304179 57.452591 
L 204.6054 65.187235 
L 205.25601 58.6102 
L 206.557231 60.098317 
L 207.207841 63.32383 
L 207.858451 57.751572 
L 208.509062 61.663631 
L 209.159672 59.280715 
L 209.810282 63.001389 
L 210.460893 59.410486 
L 211.111503 53.723799 
L 211.762113 70.691201 
L 212.412724 54.90425 
L 213.063334 63.538658 
L 213.713944 53.150538 
L 214.364555 61.019923 
L 215.015165 59.607794 
L 215.665775 61.78628 
L 216.316385 53.656427 
L 216.966996 52.802599 
L 217.617606 54.735195 
L 218.268216 53.590661 
L 218.918827 63.195693 
L 219.569437 58.02997 
L 220.220047 57.687688 
L 220.870658 67.501214 
L 221.521268 55.721729 
L 222.171878 59.134513 
L 222.822489 56.375567 
L 223.473099 59.901888 
L 224.123709 64.146669 
L 224.77432 53.591214 
L 225.42493 63.220104 
L 226.07554 63.737872 
L 226.72615 54.428778 
L 227.376761 59.560995 
L 228.027371 56.258875 
L 228.677981 65.265854 
L 229.328592 60.487896 
L 229.979202 53.898458 
L 230.629812 54.399669 
L 231.280423 57.369748 
L 231.931033 59.385188 
L 232.581643 56.889215 
L 233.232254 57.471547 
L 233.882864 65.129974 
L 234.533474 69.365792 
L 235.184085 57.01097 
L 235.834695 58.53565 
L 236.485305 55.91591 
L 237.135915 49.101109 
L 237.786526 56.957816 
L 238.437136 51.760489 
L 239.087746 57.189214 
L 239.738357 61.452859 
L 240.388967 55.854547 
L 241.039577 63.315179 
L 241.690188 60.011845 
L 242.340798 55.303465 
L 242.991408 64.070842 
L 243.642019 56.175841 
L 244.292629 53.758858 
L 244.943239 61.963837 
L 245.59385 61.505542 
L 246.24446 58.590346 
L 246.89507 65.206408 
L 247.54568 50.703051 
L 248.196291 58.21006 
L 248.846901 61.243372 
L 249.497511 70.320461 
L 250.148122 66.307103 
L 250.798732 58.185829 
L 251.449342 56.949946 
L 252.099953 60.245208 
L 252.750563 57.176333 
L 253.401173 61.603288 
L 254.051784 54.501749 
L 254.702394 62.007082 
L 255.353004 55.621496 
L 256.003615 56.533681 
L 256.654225 66.371223 
L 257.304835 62.81723 
L 257.955445 58.271683 
L 258.606056 59.69401 
L 259.256666 57.885807 
L 259.907276 61.141004 
L 260.557887 62.945848 
L 261.208497 61.086295 
L 261.859107 55.511734 
L 262.509718 62.173448 
L 263.160328 60.965998 
L 263.810938 62.86336 
L 264.461549 61.606371 
L 265.112159 59.966856 
L 265.762769 53.564279 
L 266.413379 63.272589 
L 267.06399 58.06514 
L 267.7146 66.420542 
L 268.36521 55.729474 
L 269.015821 53.549505 
L 269.666431 61.774006 
L 270.317041 51.351295 
L 271.618262 58.278266 
L 272.268872 56.020185 
L 272.919483 59.029647 
L 273.570093 58.598714 
L 274.220703 53.621255 
L 274.871314 53.520292 
L 275.521924 52.858129 
L 276.172534 52.372893 
L 276.823144 56.307647 
L 277.473755 54.38434 
L 278.124365 58.237895 
L 278.774975 54.201528 
L 279.425586 53.136048 
L 280.076196 57.245966 
L 280.726806 51.685181 
L 281.377417 59.828821 
L 282.028027 61.203896 
L 282.678637 56.695376 
L 283.329248 57.210124 
L 283.979858 56.939844 
L 284.630468 55.025969 
L 285.281079 58.820918 
L 286.582299 51.960154 
L 287.232909 56.130512 
L 287.88352 55.227319 
L 288.53413 62.528491 
L 289.18474 56.186602 
L 289.835351 67.138569 
L 290.485961 55.551003 
L 291.136571 66.694433 
L 291.787182 62.193878 
L 292.437792 58.618807 
L 293.088402 54.189488 
L 293.739013 56.018817 
L 294.389623 64.334584 
L 295.040233 58.484723 
L 295.690844 56.675679 
L 296.341454 53.363781 
L 297.642674 59.334997 
L 298.293285 50.524161 
L 298.943895 57.382992 
L 299.594505 55.510214 
L 300.245116 60.000861 
L 300.895726 58.589785 
L 301.546336 59.2804 
L 302.196947 60.216664 
L 302.847557 60.083796 
L 303.498167 59.249462 
L 304.148778 55.031577 
L 304.799388 62.924537 
L 305.449998 54.579068 
L 306.100608 56.815668 
L 306.751219 60.238569 
L 307.401829 58.655295 
L 308.052439 56.326647 
L 308.70305 61.54844 
L 309.35366 69.252508 
L 310.00427 59.586103 
L 310.654881 54.461404 
L 311.305491 53.438532 
L 311.956101 58.125311 
L 312.606712 60.002021 
L 313.257322 59.500718 
L 313.907932 56.771523 
L 314.558543 55.663356 
L 315.209153 53.66749 
L 315.859763 70.359714 
L 316.510373 58.603653 
L 317.160984 58.086422 
L 317.811594 60.428494 
L 318.462204 51.58263 
L 319.112815 66.610032 
L 319.763425 56.011952 
L 320.414035 55.447565 
L 321.064646 60.01958 
L 321.715256 59.489036 
L 322.365866 55.416629 
L 323.016477 56.564515 
L 323.667087 50.359489 
L 324.317697 59.25555 
L 324.968308 54.57166 
L 325.618918 55.212152 
L 326.269528 53.773914 
L 326.920138 52.818228 
L 327.570749 59.004648 
L 328.221359 62.730982 
L 328.871969 55.925593 
L 329.52258 54.655441 
L 330.17319 54.398707 
L 330.8238 58.420619 
L 331.474411 51.998331 
L 332.125021 62.926195 
L 332.775631 53.799387 
L 333.426242 58.10292 
L 334.076852 51.435055 
L 334.727462 55.709911 
L 335.378073 53.167068 
L 336.028683 63.947991 
L 336.679293 56.515483 
L 337.329903 53.603583 
L 337.980514 59.032396 
L 338.631124 58.708642 
L 339.281734 53.737982 
L 339.932345 55.304544 
L 340.582955 62.42378 
L 341.233565 54.41783 
L 341.884176 57.369404 
L 342.534786 57.45227 
L 343.185396 55.871539 
L 343.836007 56.496476 
L 344.486617 47.866025 
L 345.137227 53.920215 
L 345.787837 58.540585 
L 346.438448 52.763736 
L 347.089058 53.59722 
L 347.739668 55.281554 
L 348.390279 59.886363 
L 349.040889 58.89475 
L 349.691499 54.534027 
L 350.34211 52.294203 
L 350.99272 59.063636 
L 351.64333 56.554423 
L 352.293941 55.401214 
L 352.944551 55.726097 
L 353.595161 52.712145 
L 354.245772 57.328571 
L 354.896382 56.650568 
L 355.546992 61.365618 
L 356.197602 53.119209 
L 356.848213 54.311254 
L 357.498823 65.215954 
L 358.149433 61.605322 
L 360.101264 53.655872 
L 360.751875 53.391562 
L 361.402485 56.542671 
L 362.053095 62.036495 
L 362.703706 58.131329 
L 363.354316 58.984631 
L 364.004926 56.630373 
L 364.655537 57.314252 
L 365.306147 54.594846 
L 365.956757 59.725774 
L 366.607367 58.725445 
L 367.257978 52.086837 
L 368.559198 56.420093 
L 369.209809 50.740804 
L 369.860419 60.81856 
L 370.511029 53.382351 
L 371.81225 53.043902 
L 372.46286 54.05508 
L 373.764081 54.222178 
L 374.414691 54.741396 
L 375.065302 50.05197 
L 375.715912 54.3041 
L 376.366522 51.949803 
L 377.017132 58.974913 
L 377.667743 53.125752 
L 378.318353 55.275378 
L 378.968963 52.497351 
L 379.619574 57.479681 
L 380.270184 52.36095 
L 380.920794 51.339574 
L 381.571405 50.734436 
L 382.222015 59.180175 
L 382.872625 50.015337 
L 383.523236 50.297087 
L 384.824456 57.15942 
L 385.475066 48.464679 
L 386.125677 51.661552 
L 386.776287 53.354025 
L 387.426897 53.585878 
L 388.077508 52.115156 
L 388.728118 50.267416 
L 389.378728 47.075051 
L 390.029339 48.789608 
L 391.330559 59.005944 
L 391.98117 53.622709 
L 392.63178 54.506226 
L 393.28239 48.858408 
L 393.933001 58.970552 
L 394.583611 52.266979 
L 395.234221 51.683879 
L 395.884831 46.73113 
L 396.535442 52.816717 
L 397.186052 54.423104 
L 397.836662 58.922176 
L 398.487273 52.418644 
L 398.487273 52.418644 
" style="fill:none;stroke:#1f77b4;stroke-linecap:square;stroke-width:1.5;"/>
   </g>
   <g id="patch_3">
    <path d="M 57.6 157.17287 
L 57.6 41.472 
" style="fill:none;stroke:#000000;stroke-linecap:square;stroke-linejoin:miter;stroke-width:0.8;"/>
   </g>
   <g id="patch_4">
    <path d="M 414.72 157.17287 
L 414.72 41.472 
" style="fill:none;stroke:#000000;stroke-linecap:square;stroke-linejoin:miter;stroke-width:0.8;"/>
   </g>
   <g id="patch_5">
    <path d="M 57.6 157.17287 
L 414.72 157.17287 
" style="fill:none;stroke:#000000;stroke-linecap:square;stroke-linejoin:miter;stroke-width:0.8;"/>
   </g>
   <g id="patch_6">
    <path d="M 57.6 41.472 
L 414.72 41.472 
" style="fill:none;stroke:#000000;stroke-linecap:square;stroke-linejoin:miter;stroke-width:0.8;"/>
   </g>
  </g>
  <g id="axes_2">
   <g id="patch_7">
    <path d="M 57.6 307.584 
L 414.72 307.584 
L 414.72 191.88313 
L 57.6 191.88313 
z
" style="fill:#ffffff;"/>
   </g>
   <g id="matplotlib.axis_3">
    <g id="xtick_7">
     <g id="line2d_24">
      <path clip-path="url(#p969117da7c)" d="M 73.832727 307.584 
L 73.832727 191.88313 
" style="fill:none;stroke:#b0b0b0;stroke-linecap:square;stroke-width:0.8;"/>
     </g>
     <g id="line2d_25">
      <g>
       <use style="stroke:#000000;stroke-width:0.8;" x="73.832727" xlink:href="#m62a2ec9ba6" y="307.584"/>
      </g>
     </g>
     <g id="text_14">
      <!-- 0 -->
      <g transform="translate(70.651477 322.182437)scale(0.1 -0.1)">
       <use xlink:href="#DejaVuSans-48"/>
      </g>
     </g>
    </g>
    <g id="xtick_8">
     <g id="line2d_26">
      <path clip-path="url(#p969117da7c)" d="M 138.893758 307.584 
L 138.893758 191.88313 
" style="fill:none;stroke:#b0b0b0;stroke-linecap:square;stroke-width:0.8;"/>
     </g>
     <g id="line2d_27">
      <g>
       <use style="stroke:#000000;stroke-width:0.8;" x="138.893758" xlink:href="#m62a2ec9ba6" y="307.584"/>
      </g>
     </g>
     <g id="text_15">
      <!-- 100 -->
      <g transform="translate(129.350008 322.182437)scale(0.1 -0.1)">
       <use xlink:href="#DejaVuSans-49"/>
       <use x="63.623047" xlink:href="#DejaVuSans-48"/>
       <use x="127.246094" xlink:href="#DejaVuSans-48"/>
      </g>
     </g>
    </g>
    <g id="xtick_9">
     <g id="line2d_28">
      <path clip-path="url(#p969117da7c)" d="M 203.95479 307.584 
L 203.95479 191.88313 
" style="fill:none;stroke:#b0b0b0;stroke-linecap:square;stroke-width:0.8;"/>
     </g>
     <g id="line2d_29">
      <g>
       <use style="stroke:#000000;stroke-width:0.8;" x="203.95479" xlink:href="#m62a2ec9ba6" y="307.584"/>
      </g>
     </g>
     <g id="text_16">
      <!-- 200 -->
      <g transform="translate(194.41104 322.182437)scale(0.1 -0.1)">
       <use xlink:href="#DejaVuSans-50"/>
       <use x="63.623047" xlink:href="#DejaVuSans-48"/>
       <use x="127.246094" xlink:href="#DejaVuSans-48"/>
      </g>
     </g>
    </g>
    <g id="xtick_10">
     <g id="line2d_30">
      <path clip-path="url(#p969117da7c)" d="M 269.015821 307.584 
L 269.015821 191.88313 
" style="fill:none;stroke:#b0b0b0;stroke-linecap:square;stroke-width:0.8;"/>
     </g>
     <g id="line2d_31">
      <g>
       <use style="stroke:#000000;stroke-width:0.8;" x="269.015821" xlink:href="#m62a2ec9ba6" y="307.584"/>
      </g>
     </g>
     <g id="text_17">
      <!-- 300 -->
      <g transform="translate(259.472071 322.182437)scale(0.1 -0.1)">
       <use xlink:href="#DejaVuSans-51"/>
       <use x="63.623047" xlink:href="#DejaVuSans-48"/>
       <use x="127.246094" xlink:href="#DejaVuSans-48"/>
      </g>
     </g>
    </g>
    <g id="xtick_11">
     <g id="line2d_32">
      <path clip-path="url(#p969117da7c)" d="M 334.076852 307.584 
L 334.076852 191.88313 
" style="fill:none;stroke:#b0b0b0;stroke-linecap:square;stroke-width:0.8;"/>
     </g>
     <g id="line2d_33">
      <g>
       <use style="stroke:#000000;stroke-width:0.8;" x="334.076852" xlink:href="#m62a2ec9ba6" y="307.584"/>
      </g>
     </g>
     <g id="text_18">
      <!-- 400 -->
      <g transform="translate(324.533102 322.182437)scale(0.1 -0.1)">
       <use xlink:href="#DejaVuSans-52"/>
       <use x="63.623047" xlink:href="#DejaVuSans-48"/>
       <use x="127.246094" xlink:href="#DejaVuSans-48"/>
      </g>
     </g>
    </g>
    <g id="xtick_12">
     <g id="line2d_34">
      <path clip-path="url(#p969117da7c)" d="M 399.137883 307.584 
L 399.137883 191.88313 
" style="fill:none;stroke:#b0b0b0;stroke-linecap:square;stroke-width:0.8;"/>
     </g>
     <g id="line2d_35">
      <g>
       <use style="stroke:#000000;stroke-width:0.8;" x="399.137883" xlink:href="#m62a2ec9ba6" y="307.584"/>
      </g>
     </g>
     <g id="text_19">
      <!-- 500 -->
      <g transform="translate(389.594133 322.182437)scale(0.1 -0.1)">
       <use xlink:href="#DejaVuSans-53"/>
       <use x="63.623047" xlink:href="#DejaVuSans-48"/>
       <use x="127.246094" xlink:href="#DejaVuSans-48"/>
      </g>
     </g>
    </g>
    <g id="text_20">
     <!-- episodes -->
     <g transform="translate(214.000625 335.860562)scale(0.1 -0.1)">
      <use xlink:href="#DejaVuSans-101"/>
      <use x="61.523438" xlink:href="#DejaVuSans-112"/>
      <use x="125" xlink:href="#DejaVuSans-105"/>
      <use x="152.783203" xlink:href="#DejaVuSans-115"/>
      <use x="204.882812" xlink:href="#DejaVuSans-111"/>
      <use x="266.064453" xlink:href="#DejaVuSans-100"/>
      <use x="329.541016" xlink:href="#DejaVuSans-101"/>
      <use x="391.064453" xlink:href="#DejaVuSans-115"/>
     </g>
    </g>
   </g>
   <g id="matplotlib.axis_4">
    <g id="ytick_6">
     <g id="line2d_36">
      <path clip-path="url(#p969117da7c)" d="M 57.6 272.55615 
L 414.72 272.55615 
" style="fill:none;stroke:#b0b0b0;stroke-linecap:square;stroke-width:0.8;"/>
     </g>
     <g id="line2d_37">
      <g>
       <use style="stroke:#000000;stroke-width:0.8;" x="57.6" xlink:href="#m4794b0636f" y="272.55615"/>
      </g>
     </g>
     <g id="text_21">
      <!-- 40 -->
      <g transform="translate(37.875 276.355369)scale(0.1 -0.1)">
       <use xlink:href="#DejaVuSans-52"/>
       <use x="63.623047" xlink:href="#DejaVuSans-48"/>
      </g>
     </g>
    </g>
    <g id="ytick_7">
     <g id="line2d_38">
      <path clip-path="url(#p969117da7c)" d="M 57.6 236.820153 
L 414.72 236.820153 
" style="fill:none;stroke:#b0b0b0;stroke-linecap:square;stroke-width:0.8;"/>
     </g>
     <g id="line2d_39">
      <g>
       <use style="stroke:#000000;stroke-width:0.8;" x="57.6" xlink:href="#m4794b0636f" y="236.820153"/>
      </g>
     </g>
     <g id="text_22">
      <!-- 60 -->
      <g transform="translate(37.875 240.619372)scale(0.1 -0.1)">
       <use xlink:href="#DejaVuSans-54"/>
       <use x="63.623047" xlink:href="#DejaVuSans-48"/>
      </g>
     </g>
    </g>
    <g id="ytick_8">
     <g id="line2d_40">
      <path clip-path="url(#p969117da7c)" d="M 57.6 201.084157 
L 414.72 201.084157 
" style="fill:none;stroke:#b0b0b0;stroke-linecap:square;stroke-width:0.8;"/>
     </g>
     <g id="line2d_41">
      <g>
       <use style="stroke:#000000;stroke-width:0.8;" x="57.6" xlink:href="#m4794b0636f" y="201.084157"/>
      </g>
     </g>
     <g id="text_23">
      <!-- 80 -->
      <g transform="translate(37.875 204.883375)scale(0.1 -0.1)">
       <use xlink:href="#DejaVuSans-56"/>
       <use x="63.623047" xlink:href="#DejaVuSans-48"/>
      </g>
     </g>
    </g>
    <g id="text_24">
     <!-- cost reward -->
     <defs>
      <path d="M 48.78125 52.59375 
L 48.78125 44.1875 
Q 44.96875 46.296875 41.140625 47.34375 
Q 37.3125 48.390625 33.40625 48.390625 
Q 24.65625 48.390625 19.8125 42.84375 
Q 14.984375 37.3125 14.984375 27.296875 
Q 14.984375 17.28125 19.8125 11.734375 
Q 24.65625 6.203125 33.40625 6.203125 
Q 37.3125 6.203125 41.140625 7.25 
Q 44.96875 8.296875 48.78125 10.40625 
L 48.78125 2.09375 
Q 45.015625 0.34375 40.984375 -0.53125 
Q 36.96875 -1.421875 32.421875 -1.421875 
Q 20.0625 -1.421875 12.78125 6.34375 
Q 5.515625 14.109375 5.515625 27.296875 
Q 5.515625 40.671875 12.859375 48.328125 
Q 20.21875 56 33.015625 56 
Q 37.15625 56 41.109375 55.140625 
Q 45.0625 54.296875 48.78125 52.59375 
z
" id="DejaVuSans-99"/>
     </defs>
     <g transform="translate(31.795312 279.208565)rotate(-90)scale(0.1 -0.1)">
      <use xlink:href="#DejaVuSans-99"/>
      <use x="54.980469" xlink:href="#DejaVuSans-111"/>
      <use x="116.162109" xlink:href="#DejaVuSans-115"/>
      <use x="168.261719" xlink:href="#DejaVuSans-116"/>
      <use x="207.470703" xlink:href="#DejaVuSans-32"/>
      <use x="239.257812" xlink:href="#DejaVuSans-114"/>
      <use x="280.339844" xlink:href="#DejaVuSans-101"/>
      <use x="341.863281" xlink:href="#DejaVuSans-119"/>
      <use x="423.650391" xlink:href="#DejaVuSans-97"/>
      <use x="484.929688" xlink:href="#DejaVuSans-114"/>
      <use x="526.027344" xlink:href="#DejaVuSans-100"/>
     </g>
    </g>
   </g>
   <g id="line2d_42">
    <path clip-path="url(#p969117da7c)" d="M 73.832727 283.175779 
L 74.483338 233.364254 
L 75.133948 302.32487 
L 75.784558 256.120437 
L 76.435169 244.31175 
L 77.085779 256.775201 
L 77.736389 246.939177 
L 78.386999 212.254506 
L 79.03761 218.462603 
L 79.68822 237.344753 
L 80.33883 226.16742 
L 80.989441 219.125848 
L 81.640051 224.083061 
L 82.290661 251.880685 
L 82.941272 221.807641 
L 83.591882 244.665367 
L 84.242492 241.219117 
L 84.893103 216.962644 
L 85.543713 250.330074 
L 86.194323 238.473874 
L 86.844934 230.600943 
L 87.495544 251.402114 
L 88.146154 227.196243 
L 88.796764 234.56028 
L 89.447375 217.962847 
L 90.097985 218.260139 
L 90.748595 218.426399 
L 91.399206 218.984836 
L 92.049816 229.597682 
L 92.700426 211.834015 
L 93.351037 209.853107 
L 94.001647 226.870449 
L 94.652257 211.684001 
L 95.953478 239.747612 
L 96.604088 209.383157 
L 97.254698 208.989797 
L 97.905309 220.084682 
L 98.555919 216.963883 
L 99.206529 207.637646 
L 99.85714 211.550162 
L 100.50775 210.10615 
L 101.15836 213.107994 
L 101.808971 210.015542 
L 102.459581 212.597861 
L 103.110191 237.106071 
L 103.760802 217.225835 
L 104.411412 212.714189 
L 105.062022 211.266626 
L 105.712633 214.358026 
L 106.363243 225.415001 
L 107.013853 216.078133 
L 107.664463 223.157603 
L 108.315074 214.861892 
L 108.965684 215.253424 
L 109.616294 211.738181 
L 110.266905 223.699385 
L 110.917515 220.773813 
L 111.568125 207.532848 
L 112.218736 215.100182 
L 112.869346 213.744911 
L 113.519956 218.355435 
L 114.170567 211.759735 
L 114.821177 232.408236 
L 115.471787 233.248449 
L 116.122398 212.7995 
L 116.773008 213.742645 
L 117.423618 212.496538 
L 118.074228 216.836342 
L 118.724839 210.149124 
L 119.375449 210.369825 
L 120.026059 208.396284 
L 120.67667 209.620573 
L 121.32728 214.701837 
L 121.97789 215.843935 
L 122.628501 219.351187 
L 123.279111 214.478759 
L 123.929721 213.240425 
L 124.580332 213.765193 
L 125.230942 216.961145 
L 125.881552 216.14643 
L 126.532163 213.877874 
L 127.182773 206.911607 
L 127.833383 217.548746 
L 128.483993 209.502138 
L 129.134604 215.070085 
L 129.785214 208.908873 
L 130.435824 215.225026 
L 131.086435 209.502939 
L 131.737045 214.8969 
L 132.387655 215.72901 
L 133.038266 212.185454 
L 133.688876 218.142771 
L 134.339486 217.936638 
L 135.640707 212.988256 
L 136.291317 211.083877 
L 136.941927 204.766585 
L 137.592538 214.763403 
L 138.243148 215.517203 
L 138.893758 215.255554 
L 139.544369 209.549266 
L 140.194979 207.725539 
L 140.845589 210.554188 
L 141.4962 211.688184 
L 142.14681 214.649882 
L 142.79742 214.086474 
L 143.448031 226.535207 
L 144.098641 209.266762 
L 144.749251 207.23928 
L 145.399862 210.179964 
L 146.050472 211.636614 
L 146.701082 207.659353 
L 147.351692 208.007836 
L 148.002303 204.967615 
L 148.652913 210.008442 
L 149.303523 209.764548 
L 149.954134 210.229186 
L 150.604744 208.73812 
L 151.255354 209.582719 
L 151.905965 204.809151 
L 152.556575 206.973146 
L 153.207185 208.581333 
L 153.857796 207.394444 
L 154.508406 207.624916 
L 155.159016 207.210676 
L 155.809627 218.956864 
L 156.460237 216.635772 
L 157.110847 210.666105 
L 157.761457 215.085487 
L 158.412068 222.839581 
L 159.062678 210.582651 
L 159.713288 209.137213 
L 160.363899 209.65413 
L 161.014509 208.204384 
L 161.665119 218.102944 
L 162.31573 211.98237 
L 162.96634 218.264929 
L 163.61695 207.064072 
L 164.267561 208.829581 
L 164.918171 209.196632 
L 165.568781 219.210243 
L 166.219392 210.739543 
L 166.870002 207.535774 
L 167.520612 205.074618 
L 168.171222 209.499146 
L 168.821833 206.571878 
L 169.472443 205.326303 
L 170.123053 207.94272 
L 170.773664 208.139895 
L 171.424274 216.52623 
L 172.074884 211.019074 
L 172.725495 217.743024 
L 173.376105 210.973105 
L 174.026715 213.509534 
L 174.677326 211.707473 
L 175.327936 205.761557 
L 175.978546 212.138075 
L 176.629156 204.724913 
L 177.279767 205.674181 
L 177.930377 209.508952 
L 178.580987 204.075002 
L 179.231598 212.285109 
L 179.882208 208.45457 
L 180.532818 214.103091 
L 181.183429 207.399583 
L 181.834039 207.869469 
L 182.484649 209.668976 
L 183.78587 204.14713 
L 185.087091 210.457416 
L 186.388311 204.557957 
L 187.038921 209.252226 
L 187.689532 211.315561 
L 188.340142 216.492448 
L 188.990752 213.930374 
L 189.641363 213.072164 
L 190.291973 209.701601 
L 190.942583 217.703097 
L 191.593194 222.640465 
L 192.243804 209.913513 
L 192.894414 212.411628 
L 193.545025 216.49522 
L 194.195635 208.811536 
L 194.846245 212.428096 
L 195.496856 209.65846 
L 196.147466 210.785892 
L 196.798076 208.912102 
L 197.448686 209.984079 
L 198.099297 211.453788 
L 198.749907 202.466154 
L 199.400517 208.542464 
L 200.051128 211.159282 
L 200.701738 207.246952 
L 201.352348 206.912804 
L 202.002959 216.451819 
L 203.304179 206.899003 
L 203.95479 210.364612 
L 204.6054 212.630565 
L 205.25601 205.861956 
L 206.557231 212.49343 
L 207.207841 211.16821 
L 207.858451 207.738192 
L 208.509062 211.307348 
L 209.159672 207.729635 
L 209.810282 213.075943 
L 210.460893 209.073281 
L 211.111503 206.77642 
L 211.762113 217.39617 
L 212.412724 205.653107 
L 213.063334 212.853529 
L 213.713944 200.536594 
L 214.364555 211.953528 
L 215.015165 208.677312 
L 215.665775 211.737879 
L 216.316385 206.583147 
L 216.966996 206.079913 
L 217.617606 207.142788 
L 218.268216 206.2934 
L 218.918827 211.153936 
L 219.569437 208.877705 
L 220.220047 210.695811 
L 220.870658 216.673925 
L 221.521268 206.528903 
L 222.171878 210.184447 
L 222.822489 205.509582 
L 223.473099 209.639285 
L 224.123709 211.01766 
L 224.77432 203.864133 
L 225.42493 212.644236 
L 226.07554 212.709481 
L 226.72615 204.490983 
L 227.376761 207.953573 
L 228.027371 207.635501 
L 228.677981 214.324537 
L 229.328592 211.125341 
L 229.979202 204.820235 
L 230.629812 205.477087 
L 231.280423 207.436444 
L 231.931033 208.605079 
L 232.581643 207.882613 
L 233.232254 209.025402 
L 234.533474 217.317595 
L 235.184085 208.508842 
L 235.834695 208.74863 
L 236.485305 207.805657 
L 237.135915 201.195651 
L 237.786526 207.260863 
L 238.437136 203.112611 
L 239.087746 206.999501 
L 239.738357 211.79677 
L 240.388967 208.501362 
L 241.039577 214.653772 
L 241.690188 210.523991 
L 242.340798 205.586668 
L 242.991408 214.051713 
L 243.642019 208.047353 
L 244.292629 203.947448 
L 244.943239 213.151118 
L 245.59385 211.618325 
L 246.24446 206.980191 
L 246.89507 214.48065 
L 247.54568 201.979099 
L 248.196291 209.572096 
L 248.846901 211.425532 
L 249.497511 217.993686 
L 250.148122 213.312282 
L 250.798732 209.579959 
L 251.449342 209.141467 
L 252.099953 209.825397 
L 252.750563 207.712361 
L 253.401173 209.325329 
L 254.051784 207.211757 
L 254.702394 211.760336 
L 255.353004 205.322687 
L 256.003615 206.757191 
L 256.654225 214.432359 
L 257.304835 211.80823 
L 257.955445 208.127307 
L 258.606056 211.428907 
L 259.256666 207.53384 
L 260.557887 212.574653 
L 261.208497 210.357071 
L 261.859107 206.84334 
L 262.509718 210.161498 
L 263.160328 211.150893 
L 263.810938 212.734815 
L 265.112159 209.592983 
L 265.762769 206.779364 
L 266.413379 213.004283 
L 267.06399 210.403408 
L 267.7146 215.855306 
L 268.36521 206.830473 
L 269.015821 205.031293 
L 269.666431 212.334131 
L 270.317041 204.360403 
L 271.618262 209.209713 
L 272.268872 208.17797 
L 272.919483 210.086587 
L 273.570093 208.482983 
L 274.220703 204.45233 
L 274.871314 204.095437 
L 275.521924 202.590594 
L 276.172534 204.824878 
L 276.823144 207.762007 
L 277.473755 206.223127 
L 278.124365 208.497421 
L 278.774975 206.26798 
L 279.425586 205.59688 
L 280.076196 207.550789 
L 280.726806 203.323089 
L 281.377417 210.179233 
L 282.028027 211.461512 
L 282.678637 207.643933 
L 283.329248 207.696743 
L 283.979858 206.039842 
L 284.630468 205.657825 
L 285.281079 210.353132 
L 285.931689 205.362065 
L 286.582299 204.946308 
L 287.232909 207.197353 
L 287.88352 204.081315 
L 288.53413 210.25024 
L 289.18474 206.364537 
L 289.835351 215.079485 
L 290.485961 203.983579 
L 291.136571 216.973813 
L 291.787182 209.850392 
L 292.437792 208.87502 
L 293.088402 207.49657 
L 293.739013 206.565721 
L 294.389623 211.218865 
L 295.040233 210.729887 
L 295.690844 208.95309 
L 296.341454 204.830481 
L 296.992064 205.741465 
L 297.642674 208.762095 
L 298.293285 201.224215 
L 298.943895 205.900359 
L 300.245116 209.527376 
L 300.895726 206.05312 
L 301.546336 209.725945 
L 302.196947 209.115671 
L 302.847557 209.955571 
L 303.498167 209.15241 
L 304.148778 207.02372 
L 304.799388 210.245202 
L 305.449998 204.935644 
L 306.100608 208.461053 
L 306.751219 210.012693 
L 307.401829 207.771857 
L 308.052439 208.891821 
L 309.35366 212.549604 
L 310.00427 210.912845 
L 310.654881 206.511138 
L 311.305491 206.372413 
L 311.956101 208.857096 
L 312.606712 209.740471 
L 313.257322 206.166183 
L 313.907932 207.170225 
L 314.558543 207.61335 
L 315.209153 205.111159 
L 315.859763 213.072505 
L 316.510373 206.06032 
L 317.811594 210.328681 
L 318.462204 202.253286 
L 319.112815 212.849835 
L 319.763425 204.914376 
L 320.414035 206.483863 
L 321.064646 207.426682 
L 321.715256 209.186465 
L 322.365866 207.637107 
L 323.016477 208.540633 
L 323.667087 203.063679 
L 324.317697 208.977629 
L 324.968308 205.237676 
L 325.618918 206.989948 
L 326.269528 205.931832 
L 326.920138 205.09657 
L 327.570749 210.58817 
L 328.221359 209.239152 
L 328.871969 206.306692 
L 329.52258 205.504695 
L 330.17319 206.681336 
L 330.8238 209.34022 
L 331.474411 205.338407 
L 332.125021 211.569584 
L 332.775631 206.886098 
L 333.426242 210.896346 
L 334.076852 204.704161 
L 334.727462 206.437339 
L 335.378073 202.634888 
L 336.028683 215.020805 
L 337.329903 205.408994 
L 337.980514 210.642875 
L 338.631124 209.285563 
L 339.281734 206.315537 
L 339.932345 205.783235 
L 340.582955 213.572955 
L 341.233565 208.297026 
L 341.884176 207.710146 
L 342.534786 206.812789 
L 343.185396 208.88971 
L 343.836007 207.560143 
L 344.486617 198.975539 
L 345.787837 209.10414 
L 346.438448 206.373174 
L 347.089058 205.723686 
L 347.739668 205.938058 
L 348.390279 209.376515 
L 349.040889 209.22155 
L 349.691499 204.133549 
L 350.34211 204.514127 
L 350.99272 208.765764 
L 351.64333 208.049255 
L 352.293941 205.672171 
L 352.944551 208.406247 
L 353.595161 204.995625 
L 354.245772 209.327308 
L 354.896382 206.151806 
L 355.546992 209.584196 
L 356.197602 202.026065 
L 356.848213 205.659146 
L 357.498823 214.447776 
L 358.800044 208.096592 
L 360.101264 203.581952 
L 360.751875 205.581165 
L 361.402485 204.450261 
L 362.053095 211.014925 
L 362.703706 209.863885 
L 363.354316 209.140545 
L 364.004926 206.577632 
L 364.655537 207.056879 
L 365.306147 204.562948 
L 365.956757 210.29028 
L 366.607367 208.502718 
L 367.257978 205.332167 
L 367.908588 204.271844 
L 368.559198 206.464118 
L 369.209809 203.63255 
L 369.860419 208.434521 
L 371.16164 200.672474 
L 371.81225 202.834477 
L 372.46286 203.08013 
L 373.113471 205.547668 
L 373.764081 203.035508 
L 374.414691 205.93683 
L 375.065302 202.237861 
L 375.715912 204.228199 
L 376.366522 204.785949 
L 377.017132 207.733454 
L 377.667743 204.940514 
L 378.318353 204.478902 
L 378.968963 201.742992 
L 379.619574 206.114326 
L 380.270184 199.713511 
L 380.920794 203.509133 
L 381.571405 201.194767 
L 382.222015 205.154192 
L 382.872625 200.953658 
L 383.523236 201.480199 
L 384.824456 206.320425 
L 385.475066 198.795785 
L 386.125677 201.359656 
L 386.776287 201.703011 
L 387.426897 200.281994 
L 388.728118 199.956754 
L 389.378728 197.142261 
L 390.029339 198.351398 
L 390.679949 204.477709 
L 391.330559 207.426408 
L 391.98117 203.896936 
L 392.63178 205.164663 
L 393.28239 199.783157 
L 393.933001 205.416164 
L 394.583611 202.671077 
L 395.234221 203.356709 
L 395.884831 199.32197 
L 396.535442 200.3848 
L 397.186052 202.103427 
L 397.836662 205.856557 
L 398.487273 201.761952 
L 398.487273 201.761952 
" style="fill:none;stroke:#ffa500;stroke-linecap:square;stroke-width:1.5;"/>
   </g>
   <g id="patch_8">
    <path d="M 57.6 307.584 
L 57.6 191.88313 
" style="fill:none;stroke:#000000;stroke-linecap:square;stroke-linejoin:miter;stroke-width:0.8;"/>
   </g>
   <g id="patch_9">
    <path d="M 414.72 307.584 
L 414.72 191.88313 
" style="fill:none;stroke:#000000;stroke-linecap:square;stroke-linejoin:miter;stroke-width:0.8;"/>
   </g>
   <g id="patch_10">
    <path d="M 57.6 307.584 
L 414.72 307.584 
" style="fill:none;stroke:#000000;stroke-linecap:square;stroke-linejoin:miter;stroke-width:0.8;"/>
   </g>
   <g id="patch_11">
    <path d="M 57.6 191.88313 
L 414.72 191.88313 
" style="fill:none;stroke:#000000;stroke-linecap:square;stroke-linejoin:miter;stroke-width:0.8;"/>
   </g>
  </g>
 </g>
 <defs>
  <clipPath id="p5c644edba7">
   <rect height="115.70087" width="357.12" x="57.6" y="41.472"/>
  </clipPath>
  <clipPath id="p969117da7c">
   <rect height="115.70087" width="357.12" x="57.6" y="191.88313"/>
  </clipPath>
 </defs>
</svg>
