<?xml version="1.0" encoding="utf-8" standalone="no"?>
<!DOCTYPE svg PUBLIC "-//W3C//DTD SVG 1.1//EN"
  "http://www.w3.org/Graphics/SVG/1.1/DTD/svg11.dtd">
<!-- Created with matplotlib (https://matplotlib.org/) -->
<svg height="345.6pt" version="1.1" viewBox="0 0 460.8 345.6" width="460.8pt" xmlns="http://www.w3.org/2000/svg" xmlns:xlink="http://www.w3.org/1999/xlink">
 <defs>
  <style type="text/css">
*{stroke-linecap:butt;stroke-linejoin:round;}
  </style>
 </defs>
 <g id="figure_1">
  <g id="patch_1">
   <path d="M 0 345.6 
L 460.8 345.6 
L 460.8 0 
L 0 0 
z
" style="fill:#ffffff;"/>
  </g>
  <g id="axes_1">
   <g id="patch_2">
    <path d="M 50.87 140.367283 
L 447.48 140.367283 
L 447.48 21.574565 
L 50.87 21.574565 
z
" style="fill:#ffffff;"/>
   </g>
   <g id="matplotlib.axis_1">
    <g id="xtick_1">
     <g id="line2d_1">
      <path clip-path="url(#p54d6006590)" d="M 68.897727 140.367283 
L 68.897727 21.574565 
" style="fill:none;stroke:#b0b0b0;stroke-linecap:square;stroke-width:0.8;"/>
     </g>
     <g id="line2d_2">
      <defs>
       <path d="M 0 0 
L 0 3.5 
" id="mf7afff792c" style="stroke:#000000;stroke-width:0.8;"/>
      </defs>
      <g>
       <use style="stroke:#000000;stroke-width:0.8;" x="68.897727" xlink:href="#mf7afff792c" y="140.367283"/>
      </g>
     </g>
     <g id="text_1">
      <!-- 0 -->
      <defs>
       <path d="M 31.78125 66.40625 
Q 24.171875 66.40625 20.328125 58.90625 
Q 16.5 51.421875 16.5 36.375 
Q 16.5 21.390625 20.328125 13.890625 
Q 24.171875 6.390625 31.78125 6.390625 
Q 39.453125 6.390625 43.28125 13.890625 
Q 47.125 21.390625 47.125 36.375 
Q 47.125 51.421875 43.28125 58.90625 
Q 39.453125 66.40625 31.78125 66.40625 
z
M 31.78125 74.21875 
Q 44.046875 74.21875 50.515625 64.515625 
Q 56.984375 54.828125 56.984375 36.375 
Q 56.984375 17.96875 50.515625 8.265625 
Q 44.046875 -1.421875 31.78125 -1.421875 
Q 19.53125 -1.421875 13.0625 8.265625 
Q 6.59375 17.96875 6.59375 36.375 
Q 6.59375 54.828125 13.0625 64.515625 
Q 19.53125 74.21875 31.78125 74.21875 
z
" id="DejaVuSans-48"/>
      </defs>
      <g transform="translate(65.716477 154.96572)scale(0.1 -0.1)">
       <use xlink:href="#DejaVuSans-48"/>
      </g>
     </g>
    </g>
    <g id="xtick_2">
     <g id="line2d_3">
      <path clip-path="url(#p54d6006590)" d="M 141.153147 140.367283 
L 141.153147 21.574565 
" style="fill:none;stroke:#b0b0b0;stroke-linecap:square;stroke-width:0.8;"/>
     </g>
     <g id="line2d_4">
      <g>
       <use style="stroke:#000000;stroke-width:0.8;" x="141.153147" xlink:href="#mf7afff792c" y="140.367283"/>
      </g>
     </g>
     <g id="text_2">
      <!-- 100 -->
      <defs>
       <path d="M 12.40625 8.296875 
L 28.515625 8.296875 
L 28.515625 63.921875 
L 10.984375 60.40625 
L 10.984375 69.390625 
L 28.421875 72.90625 
L 38.28125 72.90625 
L 38.28125 8.296875 
L 54.390625 8.296875 
L 54.390625 0 
L 12.40625 0 
z
" id="DejaVuSans-49"/>
      </defs>
      <g transform="translate(131.609397 154.96572)scale(0.1 -0.1)">
       <use xlink:href="#DejaVuSans-49"/>
       <use x="63.623047" xlink:href="#DejaVuSans-48"/>
       <use x="127.246094" xlink:href="#DejaVuSans-48"/>
      </g>
     </g>
    </g>
    <g id="xtick_3">
     <g id="line2d_5">
      <path clip-path="url(#p54d6006590)" d="M 213.408567 140.367283 
L 213.408567 21.574565 
" style="fill:none;stroke:#b0b0b0;stroke-linecap:square;stroke-width:0.8;"/>
     </g>
     <g id="line2d_6">
      <g>
       <use style="stroke:#000000;stroke-width:0.8;" x="213.408567" xlink:href="#mf7afff792c" y="140.367283"/>
      </g>
     </g>
     <g id="text_3">
      <!-- 200 -->
      <defs>
       <path d="M 19.1875 8.296875 
L 53.609375 8.296875 
L 53.609375 0 
L 7.328125 0 
L 7.328125 8.296875 
Q 12.9375 14.109375 22.625 23.890625 
Q 32.328125 33.6875 34.8125 36.53125 
Q 39.546875 41.84375 41.421875 45.53125 
Q 43.3125 49.21875 43.3125 52.78125 
Q 43.3125 58.59375 39.234375 62.25 
Q 35.15625 65.921875 28.609375 65.921875 
Q 23.96875 65.921875 18.8125 64.3125 
Q 13.671875 62.703125 7.8125 59.421875 
L 7.8125 69.390625 
Q 13.765625 71.78125 18.9375 73 
Q 24.125 74.21875 28.421875 74.21875 
Q 39.75 74.21875 46.484375 68.546875 
Q 53.21875 62.890625 53.21875 53.421875 
Q 53.21875 48.921875 51.53125 44.890625 
Q 49.859375 40.875 45.40625 35.40625 
Q 44.1875 33.984375 37.640625 27.21875 
Q 31.109375 20.453125 19.1875 8.296875 
z
" id="DejaVuSans-50"/>
      </defs>
      <g transform="translate(203.864817 154.96572)scale(0.1 -0.1)">
       <use xlink:href="#DejaVuSans-50"/>
       <use x="63.623047" xlink:href="#DejaVuSans-48"/>
       <use x="127.246094" xlink:href="#DejaVuSans-48"/>
      </g>
     </g>
    </g>
    <g id="xtick_4">
     <g id="line2d_7">
      <path clip-path="url(#p54d6006590)" d="M 285.663987 140.367283 
L 285.663987 21.574565 
" style="fill:none;stroke:#b0b0b0;stroke-linecap:square;stroke-width:0.8;"/>
     </g>
     <g id="line2d_8">
      <g>
       <use style="stroke:#000000;stroke-width:0.8;" x="285.663987" xlink:href="#mf7afff792c" y="140.367283"/>
      </g>
     </g>
     <g id="text_4">
      <!-- 300 -->
      <defs>
       <path d="M 40.578125 39.3125 
Q 47.65625 37.796875 51.625 33 
Q 55.609375 28.21875 55.609375 21.1875 
Q 55.609375 10.40625 48.1875 4.484375 
Q 40.765625 -1.421875 27.09375 -1.421875 
Q 22.515625 -1.421875 17.65625 -0.515625 
Q 12.796875 0.390625 7.625 2.203125 
L 7.625 11.71875 
Q 11.71875 9.328125 16.59375 8.109375 
Q 21.484375 6.890625 26.8125 6.890625 
Q 36.078125 6.890625 40.9375 10.546875 
Q 45.796875 14.203125 45.796875 21.1875 
Q 45.796875 27.640625 41.28125 31.265625 
Q 36.765625 34.90625 28.71875 34.90625 
L 20.21875 34.90625 
L 20.21875 43.015625 
L 29.109375 43.015625 
Q 36.375 43.015625 40.234375 45.921875 
Q 44.09375 48.828125 44.09375 54.296875 
Q 44.09375 59.90625 40.109375 62.90625 
Q 36.140625 65.921875 28.71875 65.921875 
Q 24.65625 65.921875 20.015625 65.03125 
Q 15.375 64.15625 9.8125 62.3125 
L 9.8125 71.09375 
Q 15.4375 72.65625 20.34375 73.4375 
Q 25.25 74.21875 29.59375 74.21875 
Q 40.828125 74.21875 47.359375 69.109375 
Q 53.90625 64.015625 53.90625 55.328125 
Q 53.90625 49.265625 50.4375 45.09375 
Q 46.96875 40.921875 40.578125 39.3125 
z
" id="DejaVuSans-51"/>
      </defs>
      <g transform="translate(276.120237 154.96572)scale(0.1 -0.1)">
       <use xlink:href="#DejaVuSans-51"/>
       <use x="63.623047" xlink:href="#DejaVuSans-48"/>
       <use x="127.246094" xlink:href="#DejaVuSans-48"/>
      </g>
     </g>
    </g>
    <g id="xtick_5">
     <g id="line2d_9">
      <path clip-path="url(#p54d6006590)" d="M 357.919407 140.367283 
L 357.919407 21.574565 
" style="fill:none;stroke:#b0b0b0;stroke-linecap:square;stroke-width:0.8;"/>
     </g>
     <g id="line2d_10">
      <g>
       <use style="stroke:#000000;stroke-width:0.8;" x="357.919407" xlink:href="#mf7afff792c" y="140.367283"/>
      </g>
     </g>
     <g id="text_5">
      <!-- 400 -->
      <defs>
       <path d="M 37.796875 64.3125 
L 12.890625 25.390625 
L 37.796875 25.390625 
z
M 35.203125 72.90625 
L 47.609375 72.90625 
L 47.609375 25.390625 
L 58.015625 25.390625 
L 58.015625 17.1875 
L 47.609375 17.1875 
L 47.609375 0 
L 37.796875 0 
L 37.796875 17.1875 
L 4.890625 17.1875 
L 4.890625 26.703125 
z
" id="DejaVuSans-52"/>
      </defs>
      <g transform="translate(348.375657 154.96572)scale(0.1 -0.1)">
       <use xlink:href="#DejaVuSans-52"/>
       <use x="63.623047" xlink:href="#DejaVuSans-48"/>
       <use x="127.246094" xlink:href="#DejaVuSans-48"/>
      </g>
     </g>
    </g>
    <g id="xtick_6">
     <g id="line2d_11">
      <path clip-path="url(#p54d6006590)" d="M 430.174827 140.367283 
L 430.174827 21.574565 
" style="fill:none;stroke:#b0b0b0;stroke-linecap:square;stroke-width:0.8;"/>
     </g>
     <g id="line2d_12">
      <g>
       <use style="stroke:#000000;stroke-width:0.8;" x="430.174827" xlink:href="#mf7afff792c" y="140.367283"/>
      </g>
     </g>
     <g id="text_6">
      <!-- 500 -->
      <defs>
       <path d="M 10.796875 72.90625 
L 49.515625 72.90625 
L 49.515625 64.59375 
L 19.828125 64.59375 
L 19.828125 46.734375 
Q 21.96875 47.46875 24.109375 47.828125 
Q 26.265625 48.1875 28.421875 48.1875 
Q 40.625 48.1875 47.75 41.5 
Q 54.890625 34.8125 54.890625 23.390625 
Q 54.890625 11.625 47.5625 5.09375 
Q 40.234375 -1.421875 26.90625 -1.421875 
Q 22.3125 -1.421875 17.546875 -0.640625 
Q 12.796875 0.140625 7.71875 1.703125 
L 7.71875 11.625 
Q 12.109375 9.234375 16.796875 8.0625 
Q 21.484375 6.890625 26.703125 6.890625 
Q 35.15625 6.890625 40.078125 11.328125 
Q 45.015625 15.765625 45.015625 23.390625 
Q 45.015625 31 40.078125 35.4375 
Q 35.15625 39.890625 26.703125 39.890625 
Q 22.75 39.890625 18.8125 39.015625 
Q 14.890625 38.140625 10.796875 36.28125 
z
" id="DejaVuSans-53"/>
      </defs>
      <g transform="translate(420.631077 154.96572)scale(0.1 -0.1)">
       <use xlink:href="#DejaVuSans-53"/>
       <use x="63.623047" xlink:href="#DejaVuSans-48"/>
       <use x="127.246094" xlink:href="#DejaVuSans-48"/>
      </g>
     </g>
    </g>
    <g id="text_7">
     <!-- episodes -->
     <defs>
      <path d="M 56.203125 29.59375 
L 56.203125 25.203125 
L 14.890625 25.203125 
Q 15.484375 15.921875 20.484375 11.0625 
Q 25.484375 6.203125 34.421875 6.203125 
Q 39.59375 6.203125 44.453125 7.46875 
Q 49.3125 8.734375 54.109375 11.28125 
L 54.109375 2.78125 
Q 49.265625 0.734375 44.1875 -0.34375 
Q 39.109375 -1.421875 33.890625 -1.421875 
Q 20.796875 -1.421875 13.15625 6.1875 
Q 5.515625 13.8125 5.515625 26.8125 
Q 5.515625 40.234375 12.765625 48.109375 
Q 20.015625 56 32.328125 56 
Q 43.359375 56 49.78125 48.890625 
Q 56.203125 41.796875 56.203125 29.59375 
z
M 47.21875 32.234375 
Q 47.125 39.59375 43.09375 43.984375 
Q 39.0625 48.390625 32.421875 48.390625 
Q 24.90625 48.390625 20.390625 44.140625 
Q 15.875 39.890625 15.1875 32.171875 
z
" id="DejaVuSans-101"/>
      <path d="M 18.109375 8.203125 
L 18.109375 -20.796875 
L 9.078125 -20.796875 
L 9.078125 54.6875 
L 18.109375 54.6875 
L 18.109375 46.390625 
Q 20.953125 51.265625 25.265625 53.625 
Q 29.59375 56 35.59375 56 
Q 45.5625 56 51.78125 48.09375 
Q 58.015625 40.1875 58.015625 27.296875 
Q 58.015625 14.40625 51.78125 6.484375 
Q 45.5625 -1.421875 35.59375 -1.421875 
Q 29.59375 -1.421875 25.265625 0.953125 
Q 20.953125 3.328125 18.109375 8.203125 
z
M 48.6875 27.296875 
Q 48.6875 37.203125 44.609375 42.84375 
Q 40.53125 48.484375 33.40625 48.484375 
Q 26.265625 48.484375 22.1875 42.84375 
Q 18.109375 37.203125 18.109375 27.296875 
Q 18.109375 17.390625 22.1875 11.75 
Q 26.265625 6.109375 33.40625 6.109375 
Q 40.53125 6.109375 44.609375 11.75 
Q 48.6875 17.390625 48.6875 27.296875 
z
" id="DejaVuSans-112"/>
      <path d="M 9.421875 54.6875 
L 18.40625 54.6875 
L 18.40625 0 
L 9.421875 0 
z
M 9.421875 75.984375 
L 18.40625 75.984375 
L 18.40625 64.59375 
L 9.421875 64.59375 
z
" id="DejaVuSans-105"/>
      <path d="M 44.28125 53.078125 
L 44.28125 44.578125 
Q 40.484375 46.53125 36.375 47.5 
Q 32.28125 48.484375 27.875 48.484375 
Q 21.1875 48.484375 17.84375 46.4375 
Q 14.5 44.390625 14.5 40.28125 
Q 14.5 37.15625 16.890625 35.375 
Q 19.28125 33.59375 26.515625 31.984375 
L 29.59375 31.296875 
Q 39.15625 29.25 43.1875 25.515625 
Q 47.21875 21.78125 47.21875 15.09375 
Q 47.21875 7.46875 41.1875 3.015625 
Q 35.15625 -1.421875 24.609375 -1.421875 
Q 20.21875 -1.421875 15.453125 -0.5625 
Q 10.6875 0.296875 5.421875 2 
L 5.421875 11.28125 
Q 10.40625 8.6875 15.234375 7.390625 
Q 20.0625 6.109375 24.8125 6.109375 
Q 31.15625 6.109375 34.5625 8.28125 
Q 37.984375 10.453125 37.984375 14.40625 
Q 37.984375 18.0625 35.515625 20.015625 
Q 33.0625 21.96875 24.703125 23.78125 
L 21.578125 24.515625 
Q 13.234375 26.265625 9.515625 29.90625 
Q 5.8125 33.546875 5.8125 39.890625 
Q 5.8125 47.609375 11.28125 51.796875 
Q 16.75 56 26.8125 56 
Q 31.78125 56 36.171875 55.265625 
Q 40.578125 54.546875 44.28125 53.078125 
z
" id="DejaVuSans-115"/>
      <path d="M 30.609375 48.390625 
Q 23.390625 48.390625 19.1875 42.75 
Q 14.984375 37.109375 14.984375 27.296875 
Q 14.984375 17.484375 19.15625 11.84375 
Q 23.34375 6.203125 30.609375 6.203125 
Q 37.796875 6.203125 41.984375 11.859375 
Q 46.1875 17.53125 46.1875 27.296875 
Q 46.1875 37.015625 41.984375 42.703125 
Q 37.796875 48.390625 30.609375 48.390625 
z
M 30.609375 56 
Q 42.328125 56 49.015625 48.375 
Q 55.71875 40.765625 55.71875 27.296875 
Q 55.71875 13.875 49.015625 6.21875 
Q 42.328125 -1.421875 30.609375 -1.421875 
Q 18.84375 -1.421875 12.171875 6.21875 
Q 5.515625 13.875 5.515625 27.296875 
Q 5.515625 40.765625 12.171875 48.375 
Q 18.84375 56 30.609375 56 
z
" id="DejaVuSans-111"/>
      <path d="M 45.40625 46.390625 
L 45.40625 75.984375 
L 54.390625 75.984375 
L 54.390625 0 
L 45.40625 0 
L 45.40625 8.203125 
Q 42.578125 3.328125 38.25 0.953125 
Q 33.9375 -1.421875 27.875 -1.421875 
Q 17.96875 -1.421875 11.734375 6.484375 
Q 5.515625 14.40625 5.515625 27.296875 
Q 5.515625 40.1875 11.734375 48.09375 
Q 17.96875 56 27.875 56 
Q 33.9375 56 38.25 53.625 
Q 42.578125 51.265625 45.40625 46.390625 
z
M 14.796875 27.296875 
Q 14.796875 17.390625 18.875 11.75 
Q 22.953125 6.109375 30.078125 6.109375 
Q 37.203125 6.109375 41.296875 11.75 
Q 45.40625 17.390625 45.40625 27.296875 
Q 45.40625 37.203125 41.296875 42.84375 
Q 37.203125 48.484375 30.078125 48.484375 
Q 22.953125 48.484375 18.875 42.84375 
Q 14.796875 37.203125 14.796875 27.296875 
z
" id="DejaVuSans-100"/>
     </defs>
     <g transform="translate(227.015625 168.643845)scale(0.1 -0.1)">
      <use xlink:href="#DejaVuSans-101"/>
      <use x="61.523438" xlink:href="#DejaVuSans-112"/>
      <use x="125" xlink:href="#DejaVuSans-105"/>
      <use x="152.783203" xlink:href="#DejaVuSans-115"/>
      <use x="204.882812" xlink:href="#DejaVuSans-111"/>
      <use x="266.064453" xlink:href="#DejaVuSans-100"/>
      <use x="329.541016" xlink:href="#DejaVuSans-101"/>
      <use x="391.064453" xlink:href="#DejaVuSans-115"/>
     </g>
    </g>
   </g>
   <g id="matplotlib.axis_2">
    <g id="ytick_1">
     <g id="line2d_13">
      <path clip-path="url(#p54d6006590)" d="M 50.87 123.943003 
L 447.48 123.943003 
" style="fill:none;stroke:#b0b0b0;stroke-linecap:square;stroke-width:0.8;"/>
     </g>
     <g id="line2d_14">
      <defs>
       <path d="M 0 0 
L -3.5 0 
" id="m9097c021f3" style="stroke:#000000;stroke-width:0.8;"/>
      </defs>
      <g>
       <use style="stroke:#000000;stroke-width:0.8;" x="50.87" xlink:href="#m9097c021f3" y="123.943003"/>
      </g>
     </g>
     <g id="text_8">
      <!-- 25 -->
      <g transform="translate(31.145 127.742222)scale(0.1 -0.1)">
       <use xlink:href="#DejaVuSans-50"/>
       <use x="63.623047" xlink:href="#DejaVuSans-53"/>
      </g>
     </g>
    </g>
    <g id="ytick_2">
     <g id="line2d_15">
      <path clip-path="url(#p54d6006590)" d="M 50.87 97.007916 
L 447.48 97.007916 
" style="fill:none;stroke:#b0b0b0;stroke-linecap:square;stroke-width:0.8;"/>
     </g>
     <g id="line2d_16">
      <g>
       <use style="stroke:#000000;stroke-width:0.8;" x="50.87" xlink:href="#m9097c021f3" y="97.007916"/>
      </g>
     </g>
     <g id="text_9">
      <!-- 50 -->
      <g transform="translate(31.145 100.807135)scale(0.1 -0.1)">
       <use xlink:href="#DejaVuSans-53"/>
       <use x="63.623047" xlink:href="#DejaVuSans-48"/>
      </g>
     </g>
    </g>
    <g id="ytick_3">
     <g id="line2d_17">
      <path clip-path="url(#p54d6006590)" d="M 50.87 70.07283 
L 447.48 70.07283 
" style="fill:none;stroke:#b0b0b0;stroke-linecap:square;stroke-width:0.8;"/>
     </g>
     <g id="line2d_18">
      <g>
       <use style="stroke:#000000;stroke-width:0.8;" x="50.87" xlink:href="#m9097c021f3" y="70.07283"/>
      </g>
     </g>
     <g id="text_10">
      <!-- 75 -->
      <defs>
       <path d="M 8.203125 72.90625 
L 55.078125 72.90625 
L 55.078125 68.703125 
L 28.609375 0 
L 18.3125 0 
L 43.21875 64.59375 
L 8.203125 64.59375 
z
" id="DejaVuSans-55"/>
      </defs>
      <g transform="translate(31.145 73.872049)scale(0.1 -0.1)">
       <use xlink:href="#DejaVuSans-55"/>
       <use x="63.623047" xlink:href="#DejaVuSans-53"/>
      </g>
     </g>
    </g>
    <g id="ytick_4">
     <g id="line2d_19">
      <path clip-path="url(#p54d6006590)" d="M 50.87 43.137743 
L 447.48 43.137743 
" style="fill:none;stroke:#b0b0b0;stroke-linecap:square;stroke-width:0.8;"/>
     </g>
     <g id="line2d_20">
      <g>
       <use style="stroke:#000000;stroke-width:0.8;" x="50.87" xlink:href="#m9097c021f3" y="43.137743"/>
      </g>
     </g>
     <g id="text_11">
      <!-- 100 -->
      <g transform="translate(24.7825 46.936962)scale(0.1 -0.1)">
       <use xlink:href="#DejaVuSans-49"/>
       <use x="63.623047" xlink:href="#DejaVuSans-48"/>
       <use x="127.246094" xlink:href="#DejaVuSans-48"/>
      </g>
     </g>
    </g>
    <g id="text_12">
     <!-- Reward 1(makespan merit) -->
     <defs>
      <path d="M 44.390625 34.1875 
Q 47.5625 33.109375 50.5625 29.59375 
Q 53.5625 26.078125 56.59375 19.921875 
L 66.609375 0 
L 56 0 
L 46.6875 18.703125 
Q 43.0625 26.03125 39.671875 28.421875 
Q 36.28125 30.8125 30.421875 30.8125 
L 19.671875 30.8125 
L 19.671875 0 
L 9.8125 0 
L 9.8125 72.90625 
L 32.078125 72.90625 
Q 44.578125 72.90625 50.734375 67.671875 
Q 56.890625 62.453125 56.890625 51.90625 
Q 56.890625 45.015625 53.6875 40.46875 
Q 50.484375 35.9375 44.390625 34.1875 
z
M 19.671875 64.796875 
L 19.671875 38.921875 
L 32.078125 38.921875 
Q 39.203125 38.921875 42.84375 42.21875 
Q 46.484375 45.515625 46.484375 51.90625 
Q 46.484375 58.296875 42.84375 61.546875 
Q 39.203125 64.796875 32.078125 64.796875 
z
" id="DejaVuSans-82"/>
      <path d="M 4.203125 54.6875 
L 13.1875 54.6875 
L 24.421875 12.015625 
L 35.59375 54.6875 
L 46.1875 54.6875 
L 57.421875 12.015625 
L 68.609375 54.6875 
L 77.59375 54.6875 
L 63.28125 0 
L 52.6875 0 
L 40.921875 44.828125 
L 29.109375 0 
L 18.5 0 
z
" id="DejaVuSans-119"/>
      <path d="M 34.28125 27.484375 
Q 23.390625 27.484375 19.1875 25 
Q 14.984375 22.515625 14.984375 16.5 
Q 14.984375 11.71875 18.140625 8.90625 
Q 21.296875 6.109375 26.703125 6.109375 
Q 34.1875 6.109375 38.703125 11.40625 
Q 43.21875 16.703125 43.21875 25.484375 
L 43.21875 27.484375 
z
M 52.203125 31.203125 
L 52.203125 0 
L 43.21875 0 
L 43.21875 8.296875 
Q 40.140625 3.328125 35.546875 0.953125 
Q 30.953125 -1.421875 24.3125 -1.421875 
Q 15.921875 -1.421875 10.953125 3.296875 
Q 6 8.015625 6 15.921875 
Q 6 25.140625 12.171875 29.828125 
Q 18.359375 34.515625 30.609375 34.515625 
L 43.21875 34.515625 
L 43.21875 35.40625 
Q 43.21875 41.609375 39.140625 45 
Q 35.0625 48.390625 27.6875 48.390625 
Q 23 48.390625 18.546875 47.265625 
Q 14.109375 46.140625 10.015625 43.890625 
L 10.015625 52.203125 
Q 14.9375 54.109375 19.578125 55.046875 
Q 24.21875 56 28.609375 56 
Q 40.484375 56 46.34375 49.84375 
Q 52.203125 43.703125 52.203125 31.203125 
z
" id="DejaVuSans-97"/>
      <path d="M 41.109375 46.296875 
Q 39.59375 47.171875 37.8125 47.578125 
Q 36.03125 48 33.890625 48 
Q 26.265625 48 22.1875 43.046875 
Q 18.109375 38.09375 18.109375 28.8125 
L 18.109375 0 
L 9.078125 0 
L 9.078125 54.6875 
L 18.109375 54.6875 
L 18.109375 46.1875 
Q 20.953125 51.171875 25.484375 53.578125 
Q 30.03125 56 36.53125 56 
Q 37.453125 56 38.578125 55.875 
Q 39.703125 55.765625 41.0625 55.515625 
z
" id="DejaVuSans-114"/>
      <path id="DejaVuSans-32"/>
      <path d="M 31 75.875 
Q 24.46875 64.65625 21.28125 53.65625 
Q 18.109375 42.671875 18.109375 31.390625 
Q 18.109375 20.125 21.3125 9.0625 
Q 24.515625 -2 31 -13.1875 
L 23.1875 -13.1875 
Q 15.875 -1.703125 12.234375 9.375 
Q 8.59375 20.453125 8.59375 31.390625 
Q 8.59375 42.28125 12.203125 53.3125 
Q 15.828125 64.359375 23.1875 75.875 
z
" id="DejaVuSans-40"/>
      <path d="M 52 44.1875 
Q 55.375 50.25 60.0625 53.125 
Q 64.75 56 71.09375 56 
Q 79.640625 56 84.28125 50.015625 
Q 88.921875 44.046875 88.921875 33.015625 
L 88.921875 0 
L 79.890625 0 
L 79.890625 32.71875 
Q 79.890625 40.578125 77.09375 44.375 
Q 74.3125 48.1875 68.609375 48.1875 
Q 61.625 48.1875 57.5625 43.546875 
Q 53.515625 38.921875 53.515625 30.90625 
L 53.515625 0 
L 44.484375 0 
L 44.484375 32.71875 
Q 44.484375 40.625 41.703125 44.40625 
Q 38.921875 48.1875 33.109375 48.1875 
Q 26.21875 48.1875 22.15625 43.53125 
Q 18.109375 38.875 18.109375 30.90625 
L 18.109375 0 
L 9.078125 0 
L 9.078125 54.6875 
L 18.109375 54.6875 
L 18.109375 46.1875 
Q 21.1875 51.21875 25.484375 53.609375 
Q 29.78125 56 35.6875 56 
Q 41.65625 56 45.828125 52.96875 
Q 50 49.953125 52 44.1875 
z
" id="DejaVuSans-109"/>
      <path d="M 9.078125 75.984375 
L 18.109375 75.984375 
L 18.109375 31.109375 
L 44.921875 54.6875 
L 56.390625 54.6875 
L 27.390625 29.109375 
L 57.625 0 
L 45.90625 0 
L 18.109375 26.703125 
L 18.109375 0 
L 9.078125 0 
z
" id="DejaVuSans-107"/>
      <path d="M 54.890625 33.015625 
L 54.890625 0 
L 45.90625 0 
L 45.90625 32.71875 
Q 45.90625 40.484375 42.875 44.328125 
Q 39.84375 48.1875 33.796875 48.1875 
Q 26.515625 48.1875 22.3125 43.546875 
Q 18.109375 38.921875 18.109375 30.90625 
L 18.109375 0 
L 9.078125 0 
L 9.078125 54.6875 
L 18.109375 54.6875 
L 18.109375 46.1875 
Q 21.34375 51.125 25.703125 53.5625 
Q 30.078125 56 35.796875 56 
Q 45.21875 56 50.046875 50.171875 
Q 54.890625 44.34375 54.890625 33.015625 
z
" id="DejaVuSans-110"/>
      <path d="M 18.3125 70.21875 
L 18.3125 54.6875 
L 36.8125 54.6875 
L 36.8125 47.703125 
L 18.3125 47.703125 
L 18.3125 18.015625 
Q 18.3125 11.328125 20.140625 9.421875 
Q 21.96875 7.515625 27.59375 7.515625 
L 36.8125 7.515625 
L 36.8125 0 
L 27.59375 0 
Q 17.1875 0 13.234375 3.875 
Q 9.28125 7.765625 9.28125 18.015625 
L 9.28125 47.703125 
L 2.6875 47.703125 
L 2.6875 54.6875 
L 9.28125 54.6875 
L 9.28125 70.21875 
z
" id="DejaVuSans-116"/>
      <path d="M 8.015625 75.875 
L 15.828125 75.875 
Q 23.140625 64.359375 26.78125 53.3125 
Q 30.421875 42.28125 30.421875 31.390625 
Q 30.421875 20.453125 26.78125 9.375 
Q 23.140625 -1.703125 15.828125 -13.1875 
L 8.015625 -13.1875 
Q 14.5 -2 17.703125 9.0625 
Q 20.90625 20.125 20.90625 31.390625 
Q 20.90625 42.671875 17.703125 53.65625 
Q 14.5 64.65625 8.015625 75.875 
z
" id="DejaVuSans-41"/>
     </defs>
     <g transform="translate(18.702813 149.428736)rotate(-90)scale(0.1 -0.1)">
      <use xlink:href="#DejaVuSans-82"/>
      <use x="69.419922" xlink:href="#DejaVuSans-101"/>
      <use x="130.943359" xlink:href="#DejaVuSans-119"/>
      <use x="212.730469" xlink:href="#DejaVuSans-97"/>
      <use x="274.009766" xlink:href="#DejaVuSans-114"/>
      <use x="315.107422" xlink:href="#DejaVuSans-100"/>
      <use x="378.583984" xlink:href="#DejaVuSans-32"/>
      <use x="410.371094" xlink:href="#DejaVuSans-49"/>
      <use x="473.994141" xlink:href="#DejaVuSans-40"/>
      <use x="513.007812" xlink:href="#DejaVuSans-109"/>
      <use x="610.419922" xlink:href="#DejaVuSans-97"/>
      <use x="671.699219" xlink:href="#DejaVuSans-107"/>
      <use x="729.5625" xlink:href="#DejaVuSans-101"/>
      <use x="791.085938" xlink:href="#DejaVuSans-115"/>
      <use x="843.185547" xlink:href="#DejaVuSans-112"/>
      <use x="906.662109" xlink:href="#DejaVuSans-97"/>
      <use x="967.941406" xlink:href="#DejaVuSans-110"/>
      <use x="1031.320312" xlink:href="#DejaVuSans-32"/>
      <use x="1063.107422" xlink:href="#DejaVuSans-109"/>
      <use x="1160.519531" xlink:href="#DejaVuSans-101"/>
      <use x="1222.042969" xlink:href="#DejaVuSans-114"/>
      <use x="1263.15625" xlink:href="#DejaVuSans-105"/>
      <use x="1290.939453" xlink:href="#DejaVuSans-116"/>
      <use x="1330.148438" xlink:href="#DejaVuSans-41"/>
     </g>
    </g>
   </g>
   <g id="line2d_21">
    <path clip-path="url(#p54d6006590)" d="M 68.897727 70.755093 
L 69.620281 63.91441 
L 70.342836 80.366524 
L 71.06539 82.994706 
L 71.787944 84.60301 
L 72.510498 71.518264 
L 73.233052 66.366107 
L 74.678161 76.74254 
L 75.400715 62.876864 
L 76.123269 73.80384 
L 76.845823 62.947346 
L 77.568378 59.136967 
L 78.290932 68.309724 
L 79.013486 79.60238 
L 79.73604 59.977535 
L 80.458594 68.067764 
L 81.181149 54.82353 
L 81.903703 80.554969 
L 82.626257 86.075688 
L 83.348811 47.9856 
L 84.071365 90.744137 
L 84.79392 58.531877 
L 85.516474 83.891991 
L 86.239028 72.043485 
L 86.961582 50.044543 
L 87.684136 106.704547 
L 88.406691 40.511192 
L 89.129245 39.184343 
L 89.851799 46.930277 
L 90.574353 59.008394 
L 91.296907 76.182785 
L 92.019462 57.416823 
L 92.742016 82.411423 
L 93.46457 45.141419 
L 94.187124 84.525494 
L 95.632233 56.512596 
L 96.354787 91.992042 
L 97.077341 62.747159 
L 97.799895 63.262121 
L 98.522449 63.363558 
L 99.245004 52.994445 
L 99.967558 96.084781 
L 100.690112 65.689253 
L 101.412666 65.349383 
L 102.13522 59.255451 
L 102.857775 84.396408 
L 103.580329 68.379122 
L 104.302883 68.014051 
L 105.025437 74.523432 
L 105.747991 62.014654 
L 106.470546 52.53028 
L 107.1931 67.780991 
L 107.915654 108.159792 
L 108.638208 75.723603 
L 109.360762 62.602905 
L 110.805871 54.070147 
L 111.528425 58.852519 
L 112.250979 82.65683 
L 112.973533 54.066037 
L 113.696088 37.511882 
L 114.418642 66.840619 
L 115.141196 59.291832 
L 115.86375 77.662529 
L 118.031413 53.433342 
L 118.753967 52.433169 
L 119.476521 74.952705 
L 120.199075 53.637721 
L 120.92163 54.224639 
L 121.644184 58.666103 
L 122.366738 78.86845 
L 123.089292 57.411386 
L 123.811846 49.570613 
L 124.534401 60.165247 
L 125.256955 50.185981 
L 125.979509 61.010561 
L 126.702063 50.506234 
L 127.424617 49.981838 
L 128.147172 41.155213 
L 128.869726 66.284017 
L 129.59228 73.541802 
L 130.314834 66.619155 
L 131.037388 57.265487 
L 131.759943 82.062926 
L 132.482497 49.828452 
L 133.205051 73.791899 
L 133.927605 34.631273 
L 134.650159 39.625442 
L 135.372714 58.790828 
L 136.095268 57.954419 
L 136.817822 26.974234 
L 137.540376 39.447091 
L 138.26293 69.395648 
L 138.985485 62.871396 
L 139.708039 71.025805 
L 140.430593 61.12202 
L 141.153147 82.961868 
L 141.875701 61.588341 
L 142.598256 66.825092 
L 143.32081 48.525048 
L 144.043364 44.199373 
L 145.488472 63.582971 
L 146.211027 78.326757 
L 146.933581 55.897769 
L 147.656135 38.716815 
L 148.378689 58.150428 
L 149.101243 57.189501 
L 149.823798 54.876729 
L 150.546352 42.028955 
L 151.99146 59.142305 
L 152.714014 54.582417 
L 154.159123 48.830343 
L 154.881677 50.030974 
L 155.604231 44.892748 
L 156.326785 50.498204 
L 157.04934 64.824243 
L 157.771894 60.306246 
L 158.494448 44.223169 
L 159.217002 37.437878 
L 159.939556 84.117542 
L 160.662111 43.298231 
L 161.384665 75.525976 
L 162.107219 55.204058 
L 162.829773 45.264826 
L 163.552327 51.187081 
L 164.274882 50.164937 
L 164.997436 76.198172 
L 165.71999 45.878774 
L 166.442544 45.297488 
L 167.165098 42.310036 
L 167.887653 43.040749 
L 168.610207 47.053865 
L 169.332761 60.378375 
L 170.055315 46.487108 
L 170.777869 48.524761 
L 171.500424 63.883011 
L 172.222978 48.785276 
L 172.945532 41.580662 
L 173.668086 53.837155 
L 174.39064 49.680213 
L 175.113195 42.738746 
L 175.835749 40.222859 
L 176.558303 36.502712 
L 177.280857 68.159424 
L 178.003411 37.245639 
L 178.725966 41.975636 
L 179.44852 37.81484 
L 180.171074 41.803075 
L 180.893628 44.899948 
L 181.616182 55.367275 
L 182.338737 41.288456 
L 183.061291 47.634382 
L 183.783845 40.545632 
L 184.506399 39.750059 
L 185.228953 54.202019 
L 185.951508 38.572252 
L 186.674062 39.235336 
L 187.396616 39.237648 
L 188.11917 35.500821 
L 188.841724 46.753353 
L 189.564279 43.944746 
L 190.286833 45.04878 
L 191.009387 41.627527 
L 191.731941 46.431419 
L 192.454495 40.983072 
L 193.17705 41.382847 
L 193.899604 41.601028 
L 194.622158 49.397065 
L 196.067266 40.616286 
L 196.789821 41.607087 
L 197.512375 42.004703 
L 198.234929 40.856426 
L 198.957483 36.925612 
L 199.680037 38.402235 
L 200.402592 51.552261 
L 201.125146 41.910142 
L 201.8477 48.012403 
L 202.570254 37.809189 
L 203.292808 41.559058 
L 204.015363 37.044627 
L 204.737917 37.442998 
L 205.460471 39.315283 
L 206.183025 40.377249 
L 206.905579 29.951386 
L 207.628134 41.916347 
L 208.350688 37.728483 
L 209.073242 39.897907 
L 209.795796 38.885158 
L 210.51835 38.4706 
L 211.240905 40.206582 
L 211.963459 38.646429 
L 212.686013 40.564734 
L 213.408567 36.554576 
L 214.131121 42.147883 
L 214.853676 44.610851 
L 215.57623 39.673634 
L 216.298784 41.868754 
L 217.021338 32.992332 
L 217.743892 40.686004 
L 218.466447 40.94577 
L 219.189001 67.64137 
L 219.911555 40.331296 
L 220.634109 37.581869 
L 221.356663 36.481666 
L 222.079218 36.95298 
L 222.801772 41.798622 
L 223.524326 39.52266 
L 224.24688 42.449353 
L 224.969434 38.49362 
L 225.691989 40.712886 
L 226.414543 43.916467 
L 227.137097 37.542671 
L 227.859651 45.440507 
L 228.582205 39.184829 
L 229.30476 40.080744 
L 230.027314 37.235158 
L 230.749868 43.772689 
L 231.472422 42.388833 
L 232.917531 43.633221 
L 233.640085 49.107562 
L 234.362639 36.362936 
L 235.807747 40.553932 
L 236.530302 38.948479 
L 237.252856 33.247541 
L 237.97541 36.558456 
L 238.697964 64.252006 
L 239.420518 40.195264 
L 240.143073 39.34827 
L 240.865627 40.649089 
L 241.588181 41.626257 
L 243.033289 42.54748 
L 243.755844 31.762352 
L 244.478398 39.141192 
L 245.200952 36.799148 
L 245.923506 41.641836 
L 246.64606 42.790475 
L 247.368615 43.297749 
L 248.091169 34.993742 
L 248.813723 40.272973 
L 249.536277 39.774698 
L 250.258831 37.561718 
L 250.981385 35.81358 
L 251.70394 39.644426 
L 252.426494 36.499882 
L 253.149048 36.499306 
L 253.871602 38.328764 
L 254.594156 41.451586 
L 255.316711 37.491819 
L 256.039265 43.781889 
L 256.761819 41.591278 
L 257.484373 36.387353 
L 258.206927 39.599766 
L 258.929482 36.855476 
L 259.652036 51.669665 
L 260.37459 36.564415 
L 261.097144 29.9335 
L 261.819698 36.786423 
L 262.542253 37.206365 
L 263.264807 42.847432 
L 263.987361 36.357258 
L 264.709915 41.148733 
L 265.432469 41.71425 
L 266.155024 42.476346 
L 266.877578 38.594934 
L 267.600132 41.021979 
L 268.322686 35.344993 
L 269.04524 35.215087 
L 269.767795 42.956711 
L 270.490349 37.382641 
L 271.212903 38.610604 
L 271.935457 134.967614 
L 272.658011 42.390537 
L 273.380566 38.337079 
L 274.10312 41.816055 
L 274.825674 42.895293 
L 275.548228 44.701837 
L 276.270782 34.561943 
L 276.993337 36.834327 
L 277.715891 38.464899 
L 278.438445 41.13208 
L 279.160999 35.166048 
L 279.883553 36.971168 
L 281.328662 32.965995 
L 282.051216 41.840709 
L 282.77377 38.056766 
L 283.496324 39.321875 
L 284.218879 42.001866 
L 284.941433 42.803542 
L 285.663987 34.636007 
L 286.386541 42.411017 
L 287.109095 35.321856 
L 287.83165 36.330484 
L 288.554204 38.159565 
L 289.276758 37.534499 
L 289.999312 35.088942 
L 290.721866 38.088664 
L 291.444421 37.306577 
L 292.166975 39.457306 
L 292.889529 40.380092 
L 293.612083 34.225453 
L 294.334637 95.031318 
L 295.057192 33.500185 
L 295.779746 33.881746 
L 297.947408 37.841408 
L 298.669963 33.984411 
L 299.392517 38.386882 
L 300.115071 33.476887 
L 300.837625 32.35271 
L 301.560179 36.767175 
L 302.282734 38.237792 
L 303.005288 34.0323 
L 303.727842 34.348064 
L 304.450396 35.841007 
L 305.17295 36.549121 
L 305.895505 35.229129 
L 306.618059 36.583543 
L 307.340613 36.925911 
L 308.063167 40.862522 
L 308.785721 38.52265 
L 309.508276 37.533896 
L 310.23083 35.788002 
L 310.953384 39.709894 
L 311.675938 38.7353 
L 312.398492 35.6225 
L 313.843601 35.841292 
L 314.566155 34.888416 
L 315.288709 38.157822 
L 316.011263 40.338782 
L 316.733818 37.19266 
L 317.456372 38.526161 
L 318.178926 39.363851 
L 318.90148 34.480432 
L 319.624034 36.468507 
L 320.346589 36.077185 
L 321.069143 46.317403 
L 321.791697 36.914088 
L 322.514251 41.565151 
L 323.236805 36.656667 
L 323.95936 39.48702 
L 324.681914 32.040374 
L 325.404468 45.303491 
L 326.127022 40.358163 
L 326.849576 42.44628 
L 327.572131 39.988812 
L 328.294685 39.615494 
L 329.739793 41.43391 
L 330.462347 39.82967 
L 331.184902 40.67681 
L 331.907456 36.969486 
L 332.63001 34.703748 
L 333.352564 38.851342 
L 334.075118 44.415411 
L 334.797673 42.167802 
L 335.520227 37.402973 
L 336.965335 31.971946 
L 337.687889 47.083629 
L 338.410444 42.678202 
L 339.132998 49.279261 
L 339.855552 41.358564 
L 340.578106 44.557722 
L 341.30066 34.174338 
L 342.023215 61.92641 
L 342.745769 36.91165 
L 343.468323 35.729373 
L 344.190877 43.765653 
L 344.913431 33.502007 
L 345.635986 31.587216 
L 346.35854 36.214452 
L 347.081094 39.372609 
L 347.803648 30.713945 
L 348.526202 37.922867 
L 349.248757 42.70198 
L 349.971311 32.433514 
L 350.693865 36.499474 
L 351.416419 36.123309 
L 352.138973 41.493455 
L 352.861528 61.167695 
L 353.584082 37.139306 
L 354.306636 42.589953 
L 355.02919 45.088473 
L 355.751744 36.785539 
L 356.474299 48.494495 
L 357.196853 39.405616 
L 357.919407 40.934143 
L 358.641961 39.669625 
L 359.364515 36.138035 
L 360.08707 39.227189 
L 360.809624 36.576818 
L 361.532178 43.965205 
L 362.254732 43.283516 
L 362.977286 34.149287 
L 363.699841 36.678279 
L 364.422395 39.966484 
L 365.144949 37.844096 
L 365.867503 39.469946 
L 366.590057 30.814934 
L 367.312612 68.93074 
L 368.035166 76.46468 
L 368.75772 96.425456 
L 369.480274 31.98405 
L 370.202828 46.007595 
L 370.925383 41.418671 
L 371.647937 102.061591 
L 372.370491 30.462635 
L 373.093045 38.385671 
L 373.815599 41.831662 
L 374.538154 30.58546 
L 375.260708 72.164196 
L 375.983262 29.426439 
L 376.705816 44.882066 
L 377.42837 35.231834 
L 378.150925 36.308988 
L 378.873479 36.217409 
L 379.596033 37.931124 
L 380.318587 103.192868 
L 381.041141 32.158895 
L 381.763696 34.7402 
L 382.48625 38.098162 
L 383.208804 38.855305 
L 383.931358 47.837486 
L 384.653912 64.9425 
L 385.376467 34.588677 
L 386.821575 40.757072 
L 387.544129 31.066128 
L 388.266683 38.633961 
L 388.989238 36.546784 
L 389.711792 37.504652 
L 390.434346 38.008967 
L 391.1569 35.497369 
L 391.879454 28.821991 
L 392.602009 42.786361 
L 393.324563 33.549014 
L 394.047117 42.044772 
L 394.769671 41.984568 
L 395.492225 40.938936 
L 396.21478 35.650259 
L 396.937334 36.713795 
L 397.659888 34.166129 
L 398.382442 40.944875 
L 399.104996 35.596173 
L 399.827551 32.758763 
L 400.550105 43.323711 
L 401.272659 40.828253 
L 401.995213 36.802804 
L 402.717767 41.852381 
L 403.440322 34.300558 
L 404.162876 40.031504 
L 404.88543 33.622938 
L 405.607984 35.536116 
L 406.330538 31.441634 
L 407.053093 36.094769 
L 407.775647 92.003705 
L 408.498201 35.59736 
L 409.220755 41.030153 
L 409.943309 36.053389 
L 410.665864 42.87064 
L 411.388418 37.618732 
L 412.110972 30.776927 
L 412.833526 32.183065 
L 413.55608 35.02794 
L 414.278635 32.652253 
L 415.001189 35.048309 
L 415.723743 38.103138 
L 416.446297 32.984343 
L 417.168851 36.563689 
L 417.891406 36.416878 
L 418.61396 42.28949 
L 419.336514 37.49826 
L 420.059068 36.568947 
L 420.781622 33.437061 
L 421.504177 37.809627 
L 422.226731 95.850627 
L 422.949285 33.637303 
L 423.671839 38.326828 
L 424.394393 34.56453 
L 425.116948 29.109893 
L 425.839502 37.770243 
L 426.562056 35.060603 
L 427.28461 38.481676 
L 428.007164 38.314476 
L 428.729719 30.02384 
L 429.452273 30.238264 
L 429.452273 30.238264 
" style="fill:none;stroke:#1f77b4;stroke-linecap:square;stroke-width:1.5;"/>
   </g>
   <g id="patch_3">
    <path d="M 50.87 140.367283 
L 50.87 21.574565 
" style="fill:none;stroke:#000000;stroke-linecap:square;stroke-linejoin:miter;stroke-width:0.8;"/>
   </g>
   <g id="patch_4">
    <path d="M 447.48 140.367283 
L 447.48 21.574565 
" style="fill:none;stroke:#000000;stroke-linecap:square;stroke-linejoin:miter;stroke-width:0.8;"/>
   </g>
   <g id="patch_5">
    <path d="M 50.87 140.367283 
L 447.48 140.367283 
" style="fill:none;stroke:#000000;stroke-linecap:square;stroke-linejoin:miter;stroke-width:0.8;"/>
   </g>
   <g id="patch_6">
    <path d="M 50.87 21.574565 
L 447.48 21.574565 
" style="fill:none;stroke:#000000;stroke-linecap:square;stroke-linejoin:miter;stroke-width:0.8;"/>
   </g>
   <g id="legend_1">
    <g id="patch_7">
     <path d="M 57.87 135.367283 
L 141.70125 135.367283 
Q 143.70125 135.367283 143.70125 133.367283 
L 143.70125 119.689158 
Q 143.70125 117.689158 141.70125 117.689158 
L 57.87 117.689158 
Q 55.87 117.689158 55.87 119.689158 
L 55.87 133.367283 
Q 55.87 135.367283 57.87 135.367283 
z
" style="fill:#ffffff;opacity:0.8;stroke:#cccccc;stroke-linejoin:miter;"/>
    </g>
    <g id="line2d_22">
     <path d="M 59.87 125.787595 
L 79.87 125.787595 
" style="fill:none;stroke:#1f77b4;stroke-linecap:square;stroke-width:1.5;"/>
    </g>
    <g id="line2d_23"/>
    <g id="text_13">
     <!-- makespan -->
     <g transform="translate(87.87 129.287595)scale(0.1 -0.1)">
      <use xlink:href="#DejaVuSans-109"/>
      <use x="97.412109" xlink:href="#DejaVuSans-97"/>
      <use x="158.691406" xlink:href="#DejaVuSans-107"/>
      <use x="216.554688" xlink:href="#DejaVuSans-101"/>
      <use x="278.078125" xlink:href="#DejaVuSans-115"/>
      <use x="330.177734" xlink:href="#DejaVuSans-112"/>
      <use x="393.654297" xlink:href="#DejaVuSans-97"/>
      <use x="454.933594" xlink:href="#DejaVuSans-110"/>
     </g>
    </g>
   </g>
  </g>
  <g id="axes_2">
   <g id="patch_8">
    <path d="M 50.87 303.64 
L 447.48 303.64 
L 447.48 184.847283 
L 50.87 184.847283 
z
" style="fill:#ffffff;"/>
   </g>
   <g id="matplotlib.axis_3">
    <g id="xtick_7">
     <g id="line2d_24">
      <path clip-path="url(#p36cf8e9321)" d="M 68.897727 303.64 
L 68.897727 184.847283 
" style="fill:none;stroke:#b0b0b0;stroke-linecap:square;stroke-width:0.8;"/>
     </g>
     <g id="line2d_25">
      <g>
       <use style="stroke:#000000;stroke-width:0.8;" x="68.897727" xlink:href="#mf7afff792c" y="303.64"/>
      </g>
     </g>
     <g id="text_14">
      <!-- 0 -->
      <g transform="translate(65.716477 318.238437)scale(0.1 -0.1)">
       <use xlink:href="#DejaVuSans-48"/>
      </g>
     </g>
    </g>
    <g id="xtick_8">
     <g id="line2d_26">
      <path clip-path="url(#p36cf8e9321)" d="M 141.153147 303.64 
L 141.153147 184.847283 
" style="fill:none;stroke:#b0b0b0;stroke-linecap:square;stroke-width:0.8;"/>
     </g>
     <g id="line2d_27">
      <g>
       <use style="stroke:#000000;stroke-width:0.8;" x="141.153147" xlink:href="#mf7afff792c" y="303.64"/>
      </g>
     </g>
     <g id="text_15">
      <!-- 100 -->
      <g transform="translate(131.609397 318.238437)scale(0.1 -0.1)">
       <use xlink:href="#DejaVuSans-49"/>
       <use x="63.623047" xlink:href="#DejaVuSans-48"/>
       <use x="127.246094" xlink:href="#DejaVuSans-48"/>
      </g>
     </g>
    </g>
    <g id="xtick_9">
     <g id="line2d_28">
      <path clip-path="url(#p36cf8e9321)" d="M 213.408567 303.64 
L 213.408567 184.847283 
" style="fill:none;stroke:#b0b0b0;stroke-linecap:square;stroke-width:0.8;"/>
     </g>
     <g id="line2d_29">
      <g>
       <use style="stroke:#000000;stroke-width:0.8;" x="213.408567" xlink:href="#mf7afff792c" y="303.64"/>
      </g>
     </g>
     <g id="text_16">
      <!-- 200 -->
      <g transform="translate(203.864817 318.238437)scale(0.1 -0.1)">
       <use xlink:href="#DejaVuSans-50"/>
       <use x="63.623047" xlink:href="#DejaVuSans-48"/>
       <use x="127.246094" xlink:href="#DejaVuSans-48"/>
      </g>
     </g>
    </g>
    <g id="xtick_10">
     <g id="line2d_30">
      <path clip-path="url(#p36cf8e9321)" d="M 285.663987 303.64 
L 285.663987 184.847283 
" style="fill:none;stroke:#b0b0b0;stroke-linecap:square;stroke-width:0.8;"/>
     </g>
     <g id="line2d_31">
      <g>
       <use style="stroke:#000000;stroke-width:0.8;" x="285.663987" xlink:href="#mf7afff792c" y="303.64"/>
      </g>
     </g>
     <g id="text_17">
      <!-- 300 -->
      <g transform="translate(276.120237 318.238437)scale(0.1 -0.1)">
       <use xlink:href="#DejaVuSans-51"/>
       <use x="63.623047" xlink:href="#DejaVuSans-48"/>
       <use x="127.246094" xlink:href="#DejaVuSans-48"/>
      </g>
     </g>
    </g>
    <g id="xtick_11">
     <g id="line2d_32">
      <path clip-path="url(#p36cf8e9321)" d="M 357.919407 303.64 
L 357.919407 184.847283 
" style="fill:none;stroke:#b0b0b0;stroke-linecap:square;stroke-width:0.8;"/>
     </g>
     <g id="line2d_33">
      <g>
       <use style="stroke:#000000;stroke-width:0.8;" x="357.919407" xlink:href="#mf7afff792c" y="303.64"/>
      </g>
     </g>
     <g id="text_18">
      <!-- 400 -->
      <g transform="translate(348.375657 318.238437)scale(0.1 -0.1)">
       <use xlink:href="#DejaVuSans-52"/>
       <use x="63.623047" xlink:href="#DejaVuSans-48"/>
       <use x="127.246094" xlink:href="#DejaVuSans-48"/>
      </g>
     </g>
    </g>
    <g id="xtick_12">
     <g id="line2d_34">
      <path clip-path="url(#p36cf8e9321)" d="M 430.174827 303.64 
L 430.174827 184.847283 
" style="fill:none;stroke:#b0b0b0;stroke-linecap:square;stroke-width:0.8;"/>
     </g>
     <g id="line2d_35">
      <g>
       <use style="stroke:#000000;stroke-width:0.8;" x="430.174827" xlink:href="#mf7afff792c" y="303.64"/>
      </g>
     </g>
     <g id="text_19">
      <!-- 500 -->
      <g transform="translate(420.631077 318.238437)scale(0.1 -0.1)">
       <use xlink:href="#DejaVuSans-53"/>
       <use x="63.623047" xlink:href="#DejaVuSans-48"/>
       <use x="127.246094" xlink:href="#DejaVuSans-48"/>
      </g>
     </g>
    </g>
    <g id="text_20">
     <!-- episodes -->
     <g transform="translate(227.015625 331.916562)scale(0.1 -0.1)">
      <use xlink:href="#DejaVuSans-101"/>
      <use x="61.523438" xlink:href="#DejaVuSans-112"/>
      <use x="125" xlink:href="#DejaVuSans-105"/>
      <use x="152.783203" xlink:href="#DejaVuSans-115"/>
      <use x="204.882812" xlink:href="#DejaVuSans-111"/>
      <use x="266.064453" xlink:href="#DejaVuSans-100"/>
      <use x="329.541016" xlink:href="#DejaVuSans-101"/>
      <use x="391.064453" xlink:href="#DejaVuSans-115"/>
     </g>
    </g>
   </g>
   <g id="matplotlib.axis_4">
    <g id="ytick_5">
     <g id="line2d_36">
      <path clip-path="url(#p36cf8e9321)" d="M 50.87 295.685879 
L 447.48 295.685879 
" style="fill:none;stroke:#b0b0b0;stroke-linecap:square;stroke-width:0.8;"/>
     </g>
     <g id="line2d_37">
      <g>
       <use style="stroke:#000000;stroke-width:0.8;" x="50.87" xlink:href="#m9097c021f3" y="295.685879"/>
      </g>
     </g>
     <g id="text_21">
      <!-- 20 -->
      <g transform="translate(31.145 299.485098)scale(0.1 -0.1)">
       <use xlink:href="#DejaVuSans-50"/>
       <use x="63.623047" xlink:href="#DejaVuSans-48"/>
      </g>
     </g>
    </g>
    <g id="ytick_6">
     <g id="line2d_38">
      <path clip-path="url(#p36cf8e9321)" d="M 50.87 268.757747 
L 447.48 268.757747 
" style="fill:none;stroke:#b0b0b0;stroke-linecap:square;stroke-width:0.8;"/>
     </g>
     <g id="line2d_39">
      <g>
       <use style="stroke:#000000;stroke-width:0.8;" x="50.87" xlink:href="#m9097c021f3" y="268.757747"/>
      </g>
     </g>
     <g id="text_22">
      <!-- 40 -->
      <g transform="translate(31.145 272.556965)scale(0.1 -0.1)">
       <use xlink:href="#DejaVuSans-52"/>
       <use x="63.623047" xlink:href="#DejaVuSans-48"/>
      </g>
     </g>
    </g>
    <g id="ytick_7">
     <g id="line2d_40">
      <path clip-path="url(#p36cf8e9321)" d="M 50.87 241.829614 
L 447.48 241.829614 
" style="fill:none;stroke:#b0b0b0;stroke-linecap:square;stroke-width:0.8;"/>
     </g>
     <g id="line2d_41">
      <g>
       <use style="stroke:#000000;stroke-width:0.8;" x="50.87" xlink:href="#m9097c021f3" y="241.829614"/>
      </g>
     </g>
     <g id="text_23">
      <!-- 60 -->
      <defs>
       <path d="M 33.015625 40.375 
Q 26.375 40.375 22.484375 35.828125 
Q 18.609375 31.296875 18.609375 23.390625 
Q 18.609375 15.53125 22.484375 10.953125 
Q 26.375 6.390625 33.015625 6.390625 
Q 39.65625 6.390625 43.53125 10.953125 
Q 47.40625 15.53125 47.40625 23.390625 
Q 47.40625 31.296875 43.53125 35.828125 
Q 39.65625 40.375 33.015625 40.375 
z
M 52.59375 71.296875 
L 52.59375 62.3125 
Q 48.875 64.0625 45.09375 64.984375 
Q 41.3125 65.921875 37.59375 65.921875 
Q 27.828125 65.921875 22.671875 59.328125 
Q 17.53125 52.734375 16.796875 39.40625 
Q 19.671875 43.65625 24.015625 45.921875 
Q 28.375 48.1875 33.59375 48.1875 
Q 44.578125 48.1875 50.953125 41.515625 
Q 57.328125 34.859375 57.328125 23.390625 
Q 57.328125 12.15625 50.6875 5.359375 
Q 44.046875 -1.421875 33.015625 -1.421875 
Q 20.359375 -1.421875 13.671875 8.265625 
Q 6.984375 17.96875 6.984375 36.375 
Q 6.984375 53.65625 15.1875 63.9375 
Q 23.390625 74.21875 37.203125 74.21875 
Q 40.921875 74.21875 44.703125 73.484375 
Q 48.484375 72.75 52.59375 71.296875 
z
" id="DejaVuSans-54"/>
      </defs>
      <g transform="translate(31.145 245.628833)scale(0.1 -0.1)">
       <use xlink:href="#DejaVuSans-54"/>
       <use x="63.623047" xlink:href="#DejaVuSans-48"/>
      </g>
     </g>
    </g>
    <g id="ytick_8">
     <g id="line2d_42">
      <path clip-path="url(#p36cf8e9321)" d="M 50.87 214.901482 
L 447.48 214.901482 
" style="fill:none;stroke:#b0b0b0;stroke-linecap:square;stroke-width:0.8;"/>
     </g>
     <g id="line2d_43">
      <g>
       <use style="stroke:#000000;stroke-width:0.8;" x="50.87" xlink:href="#m9097c021f3" y="214.901482"/>
      </g>
     </g>
     <g id="text_24">
      <!-- 80 -->
      <defs>
       <path d="M 31.78125 34.625 
Q 24.75 34.625 20.71875 30.859375 
Q 16.703125 27.09375 16.703125 20.515625 
Q 16.703125 13.921875 20.71875 10.15625 
Q 24.75 6.390625 31.78125 6.390625 
Q 38.8125 6.390625 42.859375 10.171875 
Q 46.921875 13.96875 46.921875 20.515625 
Q 46.921875 27.09375 42.890625 30.859375 
Q 38.875 34.625 31.78125 34.625 
z
M 21.921875 38.8125 
Q 15.578125 40.375 12.03125 44.71875 
Q 8.5 49.078125 8.5 55.328125 
Q 8.5 64.0625 14.71875 69.140625 
Q 20.953125 74.21875 31.78125 74.21875 
Q 42.671875 74.21875 48.875 69.140625 
Q 55.078125 64.0625 55.078125 55.328125 
Q 55.078125 49.078125 51.53125 44.71875 
Q 48 40.375 41.703125 38.8125 
Q 48.828125 37.15625 52.796875 32.3125 
Q 56.78125 27.484375 56.78125 20.515625 
Q 56.78125 9.90625 50.3125 4.234375 
Q 43.84375 -1.421875 31.78125 -1.421875 
Q 19.734375 -1.421875 13.25 4.234375 
Q 6.78125 9.90625 6.78125 20.515625 
Q 6.78125 27.484375 10.78125 32.3125 
Q 14.796875 37.15625 21.921875 38.8125 
z
M 18.3125 54.390625 
Q 18.3125 48.734375 21.84375 45.5625 
Q 25.390625 42.390625 31.78125 42.390625 
Q 38.140625 42.390625 41.71875 45.5625 
Q 45.3125 48.734375 45.3125 54.390625 
Q 45.3125 60.0625 41.71875 63.234375 
Q 38.140625 66.40625 31.78125 66.40625 
Q 25.390625 66.40625 21.84375 63.234375 
Q 18.3125 60.0625 18.3125 54.390625 
z
" id="DejaVuSans-56"/>
      </defs>
      <g transform="translate(31.145 218.700701)scale(0.1 -0.1)">
       <use xlink:href="#DejaVuSans-56"/>
       <use x="63.623047" xlink:href="#DejaVuSans-48"/>
      </g>
     </g>
    </g>
    <g id="ytick_9">
     <g id="line2d_44">
      <path clip-path="url(#p36cf8e9321)" d="M 50.87 187.97335 
L 447.48 187.97335 
" style="fill:none;stroke:#b0b0b0;stroke-linecap:square;stroke-width:0.8;"/>
     </g>
     <g id="line2d_45">
      <g>
       <use style="stroke:#000000;stroke-width:0.8;" x="50.87" xlink:href="#m9097c021f3" y="187.97335"/>
      </g>
     </g>
     <g id="text_25">
      <!-- 100 -->
      <g transform="translate(24.7825 191.772569)scale(0.1 -0.1)">
       <use xlink:href="#DejaVuSans-49"/>
       <use x="63.623047" xlink:href="#DejaVuSans-48"/>
       <use x="127.246094" xlink:href="#DejaVuSans-48"/>
      </g>
     </g>
    </g>
    <g id="text_26">
     <!-- Reward 2(cost merit) -->
     <defs>
      <path d="M 48.78125 52.59375 
L 48.78125 44.1875 
Q 44.96875 46.296875 41.140625 47.34375 
Q 37.3125 48.390625 33.40625 48.390625 
Q 24.65625 48.390625 19.8125 42.84375 
Q 14.984375 37.3125 14.984375 27.296875 
Q 14.984375 17.28125 19.8125 11.734375 
Q 24.65625 6.203125 33.40625 6.203125 
Q 37.3125 6.203125 41.140625 7.25 
Q 44.96875 8.296875 48.78125 10.40625 
L 48.78125 2.09375 
Q 45.015625 0.34375 40.984375 -0.53125 
Q 36.96875 -1.421875 32.421875 -1.421875 
Q 20.0625 -1.421875 12.78125 6.34375 
Q 5.515625 14.109375 5.515625 27.296875 
Q 5.515625 40.671875 12.859375 48.328125 
Q 20.21875 56 33.015625 56 
Q 37.15625 56 41.109375 55.140625 
Q 45.0625 54.296875 48.78125 52.59375 
z
" id="DejaVuSans-99"/>
     </defs>
     <g transform="translate(18.702813 297.159266)rotate(-90)scale(0.1 -0.1)">
      <use xlink:href="#DejaVuSans-82"/>
      <use x="69.419922" xlink:href="#DejaVuSans-101"/>
      <use x="130.943359" xlink:href="#DejaVuSans-119"/>
      <use x="212.730469" xlink:href="#DejaVuSans-97"/>
      <use x="274.009766" xlink:href="#DejaVuSans-114"/>
      <use x="315.107422" xlink:href="#DejaVuSans-100"/>
      <use x="378.583984" xlink:href="#DejaVuSans-32"/>
      <use x="410.371094" xlink:href="#DejaVuSans-50"/>
      <use x="473.994141" xlink:href="#DejaVuSans-40"/>
      <use x="513.007812" xlink:href="#DejaVuSans-99"/>
      <use x="567.988281" xlink:href="#DejaVuSans-111"/>
      <use x="629.169922" xlink:href="#DejaVuSans-115"/>
      <use x="681.269531" xlink:href="#DejaVuSans-116"/>
      <use x="720.478516" xlink:href="#DejaVuSans-32"/>
      <use x="752.265625" xlink:href="#DejaVuSans-109"/>
      <use x="849.677734" xlink:href="#DejaVuSans-101"/>
      <use x="911.201172" xlink:href="#DejaVuSans-114"/>
      <use x="952.314453" xlink:href="#DejaVuSans-105"/>
      <use x="980.097656" xlink:href="#DejaVuSans-116"/>
      <use x="1019.306641" xlink:href="#DejaVuSans-41"/>
     </g>
    </g>
   </g>
   <g id="line2d_46">
    <path clip-path="url(#p36cf8e9321)" d="M 68.897727 234.501093 
L 69.620281 226.435539 
L 70.342836 243.611825 
L 71.06539 249.259969 
L 71.787944 249.536699 
L 72.510498 234.475072 
L 73.233052 228.994364 
L 73.955607 236.069639 
L 74.678161 240.874846 
L 75.400715 226.540999 
L 76.123269 238.708669 
L 76.845823 227.112839 
L 77.568378 222.66784 
L 79.013486 244.458567 
L 79.73604 224.201495 
L 80.458594 233.853565 
L 81.181149 218.084908 
L 81.903703 243.133907 
L 82.626257 251.077253 
L 83.348811 209.808063 
L 84.071365 256.449616 
L 84.79392 221.966882 
L 85.516474 249.14958 
L 86.239028 236.493735 
L 86.961582 212.287441 
L 87.684136 272.621798 
L 88.406691 200.981458 
L 89.129245 198.532081 
L 89.851799 208.986266 
L 91.296907 238.468211 
L 92.019462 219.52573 
L 92.742016 246.186586 
L 93.46457 203.867964 
L 94.187124 249.151319 
L 94.909678 234.184175 
L 95.632233 215.111234 
L 96.354787 255.097877 
L 97.077341 222.063876 
L 97.799895 224.134074 
L 98.522449 222.964594 
L 99.245004 212.648897 
L 99.967558 262.495655 
L 100.690112 228.151144 
L 101.412666 221.581284 
L 102.13522 223.245825 
L 102.857775 247.273955 
L 103.580329 229.972955 
L 104.302883 230.500112 
L 105.025437 236.767368 
L 105.747991 221.455788 
L 106.470546 210.522716 
L 107.1931 228.058026 
L 107.915654 275.643862 
L 108.638208 238.712844 
L 109.360762 226.86626 
L 110.805871 217.215432 
L 111.528425 221.62874 
L 112.250979 246.593822 
L 112.973533 216.759637 
L 113.696088 200.274252 
L 114.418642 230.510406 
L 115.141196 222.681746 
L 115.86375 236.313778 
L 116.586304 231.754483 
L 117.308859 220.30711 
L 118.031413 215.758937 
L 118.753967 214.773361 
L 119.476521 235.491705 
L 120.199075 214.495927 
L 121.644184 219.51694 
L 122.366738 241.134489 
L 123.089292 219.94612 
L 123.811846 210.780771 
L 124.534401 221.193899 
L 125.256955 212.674317 
L 125.979509 220.93847 
L 126.702063 214.968317 
L 127.424617 207.82788 
L 128.147172 204.03814 
L 128.869726 228.420977 
L 129.59228 235.15255 
L 130.314834 228.168105 
L 131.037388 217.552401 
L 131.759943 245.648823 
L 132.482497 212.096559 
L 133.205051 235.724834 
L 133.927605 196.813793 
L 134.650159 202.448877 
L 135.372714 217.138776 
L 136.095268 218.235793 
L 136.817822 190.857042 
L 137.540376 201.540129 
L 138.26293 227.632496 
L 138.985485 222.448494 
L 139.708039 231.965403 
L 140.430593 225.657539 
L 141.153147 247.124284 
L 141.875701 222.703753 
L 142.598256 226.930102 
L 143.32081 207.642754 
L 144.043364 205.197212 
L 144.765918 214.696689 
L 145.488472 225.704094 
L 146.211027 242.797274 
L 146.933581 215.419788 
L 147.656135 200.888545 
L 148.378689 219.701608 
L 149.101243 217.741932 
L 149.823798 217.584234 
L 150.546352 204.731014 
L 151.99146 219.339449 
L 152.714014 217.326821 
L 153.436569 213.55033 
L 154.159123 211.362364 
L 154.881677 213.03595 
L 155.604231 205.850747 
L 156.326785 212.493859 
L 157.04934 226.885701 
L 157.771894 218.631326 
L 158.494448 206.401782 
L 159.217002 199.530961 
L 159.939556 248.800351 
L 160.662111 204.347686 
L 161.384665 236.728626 
L 162.107219 216.40389 
L 162.829773 207.781969 
L 163.552327 213.739094 
L 164.274882 211.563002 
L 164.997436 236.97964 
L 165.71999 208.633077 
L 166.442544 206.691685 
L 167.165098 204.18617 
L 167.887653 204.545651 
L 168.610207 210.027981 
L 169.332761 221.720847 
L 170.055315 208.18916 
L 170.777869 207.759387 
L 171.500424 219.865793 
L 172.222978 209.452957 
L 172.945532 203.963283 
L 173.668086 214.497508 
L 174.39064 212.533607 
L 175.113195 204.080944 
L 175.835749 202.244983 
L 176.558303 199.325036 
L 177.280857 229.509676 
L 178.003411 199.320139 
L 178.725966 204.417898 
L 179.44852 199.80036 
L 180.171074 205.000422 
L 180.893628 207.126528 
L 181.616182 215.12707 
L 182.338737 203.176746 
L 183.061291 209.125664 
L 183.783845 203.375896 
L 184.506399 201.757525 
L 185.228953 213.198293 
L 185.951508 200.609093 
L 186.674062 201.041303 
L 187.396616 201.977161 
L 188.11917 197.64742 
L 188.841724 208.142122 
L 189.564279 206.938115 
L 190.286833 206.879745 
L 191.009387 203.590688 
L 191.731941 207.065321 
L 192.454495 203.151594 
L 193.17705 202.589026 
L 193.899604 203.214128 
L 194.622158 209.292977 
L 195.344712 205.438943 
L 196.067266 202.744848 
L 196.789821 203.648516 
L 197.512375 203.692068 
L 198.234929 202.927988 
L 198.957483 198.64234 
L 199.680037 199.677167 
L 200.402592 217.96481 
L 201.125146 204.370626 
L 201.8477 210.137983 
L 202.570254 198.996697 
L 203.292808 203.362946 
L 204.015363 198.871525 
L 204.737917 199.498062 
L 206.183025 202.628556 
L 206.905579 191.582342 
L 207.628134 203.870853 
L 208.350688 199.554571 
L 209.073242 201.372255 
L 211.240905 199.662509 
L 211.963459 197.796249 
L 212.686013 202.054161 
L 213.408567 198.396617 
L 214.131121 203.75011 
L 214.853676 205.825312 
L 215.57623 201.220199 
L 216.298784 203.829909 
L 217.021338 196.281373 
L 217.743892 201.80553 
L 218.466447 202.734719 
L 219.189001 226.781324 
L 219.911555 201.932444 
L 220.634109 200.198826 
L 221.356663 198.078073 
L 222.079218 197.855742 
L 222.801772 203.664955 
L 223.524326 200.994173 
L 224.24688 203.79303 
L 224.969434 199.779635 
L 226.414543 205.110364 
L 227.137097 199.070676 
L 227.859651 207.028277 
L 228.582205 200.709398 
L 229.30476 201.783961 
L 230.027314 199.311104 
L 230.749868 204.476071 
L 231.472422 205.239135 
L 232.194976 205.345678 
L 232.917531 205.208426 
L 233.640085 207.836518 
L 234.362639 197.857751 
L 235.807747 202.141783 
L 236.530302 200.630306 
L 237.252856 194.95158 
L 237.97541 198.913376 
L 238.697964 228.366161 
L 239.420518 201.384826 
L 240.143073 201.141045 
L 240.865627 201.564704 
L 241.588181 202.163217 
L 242.310735 203.334671 
L 243.033289 204.016306 
L 243.755844 193.847663 
L 244.478398 200.388824 
L 245.200952 198.743234 
L 245.923506 203.134929 
L 246.64606 203.90214 
L 247.368615 203.94909 
L 248.091169 196.655409 
L 248.813723 201.752211 
L 249.536277 200.792216 
L 250.981385 197.746341 
L 251.70394 200.497839 
L 252.426494 197.088747 
L 253.149048 197.438149 
L 254.594156 202.734496 
L 255.316711 199.003964 
L 256.039265 204.357809 
L 256.761819 203.380195 
L 257.484373 197.565098 
L 258.206927 198.534645 
L 258.929482 198.245005 
L 259.652036 214.329518 
L 260.37459 197.715847 
L 261.097144 191.542109 
L 261.819698 198.390702 
L 262.542253 198.585558 
L 263.264807 206.335308 
L 263.987361 197.713885 
L 264.709915 202.15291 
L 265.432469 202.68145 
L 266.155024 202.874947 
L 266.877578 199.908147 
L 267.600132 202.382345 
L 268.322686 196.724681 
L 269.04524 196.633949 
L 269.767795 203.294692 
L 270.490349 198.599232 
L 271.212903 199.926727 
L 271.935457 298.240331 
L 272.658011 203.617181 
L 273.380566 199.913688 
L 274.10312 202.846235 
L 274.825674 203.852058 
L 275.548228 205.130225 
L 276.270782 196.25638 
L 276.993337 197.874996 
L 278.438445 201.966904 
L 279.160999 196.504571 
L 279.883553 198.272786 
L 280.606108 195.943322 
L 281.328662 194.008533 
L 282.051216 202.868685 
L 282.77377 199.076064 
L 283.496324 200.936586 
L 284.218879 203.186926 
L 284.941433 203.905204 
L 285.663987 195.907515 
L 286.386541 203.731898 
L 287.109095 196.567575 
L 287.83165 197.220501 
L 288.554204 198.812255 
L 289.276758 198.975163 
L 289.999312 196.278381 
L 290.721866 199.261817 
L 291.444421 198.576994 
L 292.166975 200.92799 
L 292.889529 201.340944 
L 293.612083 196.2733 
L 294.334637 261.550404 
L 295.057192 194.767723 
L 297.224854 197.169236 
L 297.947408 199.676566 
L 298.669963 195.251576 
L 299.392517 199.778816 
L 300.115071 194.641545 
L 300.837625 193.43459 
L 301.560179 198.169138 
L 302.282734 199.593831 
L 303.005288 195.394985 
L 303.727842 195.474942 
L 304.450396 197.251427 
L 305.17295 198.018839 
L 305.895505 196.10495 
L 306.618059 198.035653 
L 307.340613 197.597955 
L 308.063167 202.255718 
L 308.785721 199.628965 
L 309.508276 198.715491 
L 310.23083 197.019915 
L 310.953384 200.816436 
L 311.675938 199.75324 
L 312.398492 196.781597 
L 313.121047 196.606725 
L 313.843601 197.529019 
L 314.566155 196.116039 
L 315.288709 199.379527 
L 316.011263 201.353215 
L 316.733818 198.466627 
L 317.456372 199.336063 
L 318.178926 199.899257 
L 318.90148 195.664263 
L 319.624034 198.067206 
L 320.346589 196.625222 
L 321.069143 205.449969 
L 321.791697 197.932907 
L 322.514251 202.5524 
L 323.236805 197.531298 
L 323.95936 200.51582 
L 324.681914 193.349438 
L 325.404468 207.11625 
L 326.127022 201.147295 
L 326.849576 203.931763 
L 327.572131 200.641005 
L 328.294685 200.690795 
L 329.017239 202.105829 
L 329.739793 202.075444 
L 330.462347 201.385565 
L 331.184902 201.95884 
L 332.63001 195.664323 
L 333.352564 200.24815 
L 334.075118 205.626656 
L 334.797673 203.389384 
L 335.520227 198.972743 
L 336.242781 196.702101 
L 336.965335 193.906288 
L 337.687889 208.428184 
L 338.410444 203.797629 
L 339.132998 209.709226 
L 339.855552 202.355292 
L 340.578106 206.256909 
L 341.30066 196.074517 
L 342.023215 226.099443 
L 342.745769 198.464036 
L 343.468323 197.276512 
L 344.190877 206.676483 
L 344.913431 194.841268 
L 345.635986 193.384938 
L 346.35854 198.455259 
L 347.081094 200.507627 
L 347.803648 192.965771 
L 348.526202 199.882755 
L 349.248757 203.45602 
L 349.971311 193.803773 
L 350.693865 197.084366 
L 351.416419 196.870929 
L 352.138973 202.569523 
L 352.861528 224.071115 
L 353.584082 198.671632 
L 354.306636 203.761662 
L 355.02919 205.753352 
L 355.751744 199.073057 
L 356.474299 209.084696 
L 357.196853 200.565568 
L 357.919407 201.74998 
L 358.641961 200.468858 
L 359.364515 196.781497 
L 360.08707 200.045384 
L 360.809624 198.064878 
L 361.532178 204.837393 
L 362.254732 204.152144 
L 362.977286 196.348135 
L 363.699841 197.280921 
L 364.422395 201.112778 
L 365.144949 198.853409 
L 365.867503 202.080606 
L 366.590057 193.396248 
L 367.312612 232.598586 
L 368.035166 242.465015 
L 368.75772 264.33203 
L 369.480274 192.873241 
L 370.202828 207.921747 
L 370.925383 203.09437 
L 371.647937 263.61437 
L 372.370491 191.432978 
L 373.093045 199.857832 
L 373.815599 202.959218 
L 374.538154 194.220719 
L 375.260708 234.65667 
L 375.983262 190.246952 
L 376.705816 206.733002 
L 377.42837 196.253119 
L 378.150925 198.071954 
L 378.873479 197.474839 
L 379.596033 199.268892 
L 380.318587 265.359684 
L 381.041141 193.690544 
L 382.48625 199.467136 
L 383.208804 200.207863 
L 383.931358 208.621485 
L 384.653912 227.018432 
L 385.376467 195.987698 
L 386.821575 202.14598 
L 387.544129 191.888252 
L 388.266683 200.474711 
L 388.989238 197.381057 
L 390.434346 199.811103 
L 391.1569 197.15088 
L 391.879454 190.515176 
L 392.602009 203.712519 
L 393.324563 195.507411 
L 394.047117 203.526158 
L 394.769671 203.910693 
L 395.492225 202.41318 
L 396.21478 196.704417 
L 396.937334 198.497101 
L 397.659888 195.368019 
L 398.382442 202.513879 
L 399.104996 196.485096 
L 399.827551 194.420138 
L 400.550105 204.161563 
L 401.272659 202.345798 
L 401.995213 198.629072 
L 402.717767 203.976672 
L 403.440322 195.875647 
L 404.162876 201.419749 
L 404.88543 194.270082 
L 405.607984 197.300526 
L 406.330538 192.176536 
L 407.053093 197.102765 
L 407.775647 253.8799 
L 408.498201 197.424493 
L 409.220755 203.187518 
L 409.943309 197.75115 
L 410.665864 204.793456 
L 412.110972 192.526746 
L 412.833526 195.498168 
L 413.55608 195.534297 
L 414.278635 193.998931 
L 415.723743 199.504937 
L 416.446297 194.390385 
L 417.168851 198.465501 
L 417.891406 198.005883 
L 418.61396 203.99675 
L 419.336514 199.129613 
L 420.059068 198.059346 
L 420.781622 194.866633 
L 421.504177 199.589027 
L 422.226731 257.819181 
L 422.949285 194.892248 
L 423.671839 200.523057 
L 425.116948 191.000787 
L 425.839502 198.997066 
L 426.562056 196.826125 
L 427.28461 199.963204 
L 428.007164 199.807932 
L 428.729719 191.196015 
L 429.452273 191.406287 
L 429.452273 191.406287 
" style="fill:none;stroke:#ffa500;stroke-linecap:square;stroke-width:1.5;"/>
   </g>
   <g id="patch_9">
    <path d="M 50.87 303.64 
L 50.87 184.847283 
" style="fill:none;stroke:#000000;stroke-linecap:square;stroke-linejoin:miter;stroke-width:0.8;"/>
   </g>
   <g id="patch_10">
    <path d="M 447.48 303.64 
L 447.48 184.847283 
" style="fill:none;stroke:#000000;stroke-linecap:square;stroke-linejoin:miter;stroke-width:0.8;"/>
   </g>
   <g id="patch_11">
    <path d="M 50.87 303.64 
L 447.48 303.64 
" style="fill:none;stroke:#000000;stroke-linecap:square;stroke-linejoin:miter;stroke-width:0.8;"/>
   </g>
   <g id="patch_12">
    <path d="M 50.87 184.847283 
L 447.48 184.847283 
" style="fill:none;stroke:#000000;stroke-linecap:square;stroke-linejoin:miter;stroke-width:0.8;"/>
   </g>
   <g id="legend_2">
    <g id="patch_13">
     <path d="M 57.87 298.64 
L 110.616875 298.64 
Q 112.616875 298.64 112.616875 296.64 
L 112.616875 282.961875 
Q 112.616875 280.961875 110.616875 280.961875 
L 57.87 280.961875 
Q 55.87 280.961875 55.87 282.961875 
L 55.87 296.64 
Q 55.87 298.64 57.87 298.64 
z
" style="fill:#ffffff;opacity:0.8;stroke:#cccccc;stroke-linejoin:miter;"/>
    </g>
    <g id="line2d_47">
     <path d="M 59.87 289.060312 
L 79.87 289.060312 
" style="fill:none;stroke:#ffa500;stroke-linecap:square;stroke-width:1.5;"/>
    </g>
    <g id="line2d_48"/>
    <g id="text_27">
     <!-- cost -->
     <g transform="translate(87.87 292.560312)scale(0.1 -0.1)">
      <use xlink:href="#DejaVuSans-99"/>
      <use x="54.980469" xlink:href="#DejaVuSans-111"/>
      <use x="116.162109" xlink:href="#DejaVuSans-115"/>
      <use x="168.261719" xlink:href="#DejaVuSans-116"/>
     </g>
    </g>
   </g>
  </g>
 </g>
 <defs>
  <clipPath id="p54d6006590">
   <rect height="118.792717" width="396.61" x="50.87" y="21.574565"/>
  </clipPath>
  <clipPath id="p36cf8e9321">
   <rect height="118.792717" width="396.61" x="50.87" y="184.847283"/>
  </clipPath>
 </defs>
</svg>
