<?xml version="1.0" encoding="utf-8" standalone="no"?>
<!DOCTYPE svg PUBLIC "-//W3C//DTD SVG 1.1//EN"
  "http://www.w3.org/Graphics/SVG/1.1/DTD/svg11.dtd">
<!-- Created with matplotlib (https://matplotlib.org/) -->
<svg height="345.6pt" version="1.1" viewBox="0 0 460.8 345.6" width="460.8pt" xmlns="http://www.w3.org/2000/svg" xmlns:xlink="http://www.w3.org/1999/xlink">
 <defs>
  <style type="text/css">
*{stroke-linecap:butt;stroke-linejoin:round;}
  </style>
 </defs>
 <g id="figure_1">
  <g id="patch_1">
   <path d="M 0 345.6 
L 460.8 345.6 
L 460.8 0 
L 0 0 
z
" style="fill:#ffffff;"/>
  </g>
  <g id="axes_1">
   <g id="patch_2">
    <path d="M 57.6 157.17287 
L 414.72 157.17287 
L 414.72 41.472 
L 57.6 41.472 
z
" style="fill:#ffffff;"/>
   </g>
   <g id="matplotlib.axis_1">
    <g id="xtick_1">
     <g id="line2d_1">
      <defs>
       <path d="M 0 0 
L 0 3.5 
" id="mf205155528" style="stroke:#000000;stroke-width:0.8;"/>
      </defs>
      <g>
       <use style="stroke:#000000;stroke-width:0.8;" x="73.832727" xlink:href="#mf205155528" y="157.17287"/>
      </g>
     </g>
     <g id="text_1">
      <!-- 0 -->
      <defs>
       <path d="M 31.78125 66.40625 
Q 24.171875 66.40625 20.328125 58.90625 
Q 16.5 51.421875 16.5 36.375 
Q 16.5 21.390625 20.328125 13.890625 
Q 24.171875 6.390625 31.78125 6.390625 
Q 39.453125 6.390625 43.28125 13.890625 
Q 47.125 21.390625 47.125 36.375 
Q 47.125 51.421875 43.28125 58.90625 
Q 39.453125 66.40625 31.78125 66.40625 
z
M 31.78125 74.21875 
Q 44.046875 74.21875 50.515625 64.515625 
Q 56.984375 54.828125 56.984375 36.375 
Q 56.984375 17.96875 50.515625 8.265625 
Q 44.046875 -1.421875 31.78125 -1.421875 
Q 19.53125 -1.421875 13.0625 8.265625 
Q 6.59375 17.96875 6.59375 36.375 
Q 6.59375 54.828125 13.0625 64.515625 
Q 19.53125 74.21875 31.78125 74.21875 
z
" id="DejaVuSans-48"/>
      </defs>
      <g transform="translate(70.651477 171.771307)scale(0.1 -0.1)">
       <use xlink:href="#DejaVuSans-48"/>
      </g>
     </g>
    </g>
    <g id="xtick_2">
     <g id="line2d_2">
      <g>
       <use style="stroke:#000000;stroke-width:0.8;" x="138.893758" xlink:href="#mf205155528" y="157.17287"/>
      </g>
     </g>
     <g id="text_2">
      <!-- 100 -->
      <defs>
       <path d="M 12.40625 8.296875 
L 28.515625 8.296875 
L 28.515625 63.921875 
L 10.984375 60.40625 
L 10.984375 69.390625 
L 28.421875 72.90625 
L 38.28125 72.90625 
L 38.28125 8.296875 
L 54.390625 8.296875 
L 54.390625 0 
L 12.40625 0 
z
" id="DejaVuSans-49"/>
      </defs>
      <g transform="translate(129.350008 171.771307)scale(0.1 -0.1)">
       <use xlink:href="#DejaVuSans-49"/>
       <use x="63.623047" xlink:href="#DejaVuSans-48"/>
       <use x="127.246094" xlink:href="#DejaVuSans-48"/>
      </g>
     </g>
    </g>
    <g id="xtick_3">
     <g id="line2d_3">
      <g>
       <use style="stroke:#000000;stroke-width:0.8;" x="203.95479" xlink:href="#mf205155528" y="157.17287"/>
      </g>
     </g>
     <g id="text_3">
      <!-- 200 -->
      <defs>
       <path d="M 19.1875 8.296875 
L 53.609375 8.296875 
L 53.609375 0 
L 7.328125 0 
L 7.328125 8.296875 
Q 12.9375 14.109375 22.625 23.890625 
Q 32.328125 33.6875 34.8125 36.53125 
Q 39.546875 41.84375 41.421875 45.53125 
Q 43.3125 49.21875 43.3125 52.78125 
Q 43.3125 58.59375 39.234375 62.25 
Q 35.15625 65.921875 28.609375 65.921875 
Q 23.96875 65.921875 18.8125 64.3125 
Q 13.671875 62.703125 7.8125 59.421875 
L 7.8125 69.390625 
Q 13.765625 71.78125 18.9375 73 
Q 24.125 74.21875 28.421875 74.21875 
Q 39.75 74.21875 46.484375 68.546875 
Q 53.21875 62.890625 53.21875 53.421875 
Q 53.21875 48.921875 51.53125 44.890625 
Q 49.859375 40.875 45.40625 35.40625 
Q 44.1875 33.984375 37.640625 27.21875 
Q 31.109375 20.453125 19.1875 8.296875 
z
" id="DejaVuSans-50"/>
      </defs>
      <g transform="translate(194.41104 171.771307)scale(0.1 -0.1)">
       <use xlink:href="#DejaVuSans-50"/>
       <use x="63.623047" xlink:href="#DejaVuSans-48"/>
       <use x="127.246094" xlink:href="#DejaVuSans-48"/>
      </g>
     </g>
    </g>
    <g id="xtick_4">
     <g id="line2d_4">
      <g>
       <use style="stroke:#000000;stroke-width:0.8;" x="269.015821" xlink:href="#mf205155528" y="157.17287"/>
      </g>
     </g>
     <g id="text_4">
      <!-- 300 -->
      <defs>
       <path d="M 40.578125 39.3125 
Q 47.65625 37.796875 51.625 33 
Q 55.609375 28.21875 55.609375 21.1875 
Q 55.609375 10.40625 48.1875 4.484375 
Q 40.765625 -1.421875 27.09375 -1.421875 
Q 22.515625 -1.421875 17.65625 -0.515625 
Q 12.796875 0.390625 7.625 2.203125 
L 7.625 11.71875 
Q 11.71875 9.328125 16.59375 8.109375 
Q 21.484375 6.890625 26.8125 6.890625 
Q 36.078125 6.890625 40.9375 10.546875 
Q 45.796875 14.203125 45.796875 21.1875 
Q 45.796875 27.640625 41.28125 31.265625 
Q 36.765625 34.90625 28.71875 34.90625 
L 20.21875 34.90625 
L 20.21875 43.015625 
L 29.109375 43.015625 
Q 36.375 43.015625 40.234375 45.921875 
Q 44.09375 48.828125 44.09375 54.296875 
Q 44.09375 59.90625 40.109375 62.90625 
Q 36.140625 65.921875 28.71875 65.921875 
Q 24.65625 65.921875 20.015625 65.03125 
Q 15.375 64.15625 9.8125 62.3125 
L 9.8125 71.09375 
Q 15.4375 72.65625 20.34375 73.4375 
Q 25.25 74.21875 29.59375 74.21875 
Q 40.828125 74.21875 47.359375 69.109375 
Q 53.90625 64.015625 53.90625 55.328125 
Q 53.90625 49.265625 50.4375 45.09375 
Q 46.96875 40.921875 40.578125 39.3125 
z
" id="DejaVuSans-51"/>
      </defs>
      <g transform="translate(259.472071 171.771307)scale(0.1 -0.1)">
       <use xlink:href="#DejaVuSans-51"/>
       <use x="63.623047" xlink:href="#DejaVuSans-48"/>
       <use x="127.246094" xlink:href="#DejaVuSans-48"/>
      </g>
     </g>
    </g>
    <g id="xtick_5">
     <g id="line2d_5">
      <g>
       <use style="stroke:#000000;stroke-width:0.8;" x="334.076852" xlink:href="#mf205155528" y="157.17287"/>
      </g>
     </g>
     <g id="text_5">
      <!-- 400 -->
      <defs>
       <path d="M 37.796875 64.3125 
L 12.890625 25.390625 
L 37.796875 25.390625 
z
M 35.203125 72.90625 
L 47.609375 72.90625 
L 47.609375 25.390625 
L 58.015625 25.390625 
L 58.015625 17.1875 
L 47.609375 17.1875 
L 47.609375 0 
L 37.796875 0 
L 37.796875 17.1875 
L 4.890625 17.1875 
L 4.890625 26.703125 
z
" id="DejaVuSans-52"/>
      </defs>
      <g transform="translate(324.533102 171.771307)scale(0.1 -0.1)">
       <use xlink:href="#DejaVuSans-52"/>
       <use x="63.623047" xlink:href="#DejaVuSans-48"/>
       <use x="127.246094" xlink:href="#DejaVuSans-48"/>
      </g>
     </g>
    </g>
    <g id="xtick_6">
     <g id="line2d_6">
      <g>
       <use style="stroke:#000000;stroke-width:0.8;" x="399.137883" xlink:href="#mf205155528" y="157.17287"/>
      </g>
     </g>
     <g id="text_6">
      <!-- 500 -->
      <defs>
       <path d="M 10.796875 72.90625 
L 49.515625 72.90625 
L 49.515625 64.59375 
L 19.828125 64.59375 
L 19.828125 46.734375 
Q 21.96875 47.46875 24.109375 47.828125 
Q 26.265625 48.1875 28.421875 48.1875 
Q 40.625 48.1875 47.75 41.5 
Q 54.890625 34.8125 54.890625 23.390625 
Q 54.890625 11.625 47.5625 5.09375 
Q 40.234375 -1.421875 26.90625 -1.421875 
Q 22.3125 -1.421875 17.546875 -0.640625 
Q 12.796875 0.140625 7.71875 1.703125 
L 7.71875 11.625 
Q 12.109375 9.234375 16.796875 8.0625 
Q 21.484375 6.890625 26.703125 6.890625 
Q 35.15625 6.890625 40.078125 11.328125 
Q 45.015625 15.765625 45.015625 23.390625 
Q 45.015625 31 40.078125 35.4375 
Q 35.15625 39.890625 26.703125 39.890625 
Q 22.75 39.890625 18.8125 39.015625 
Q 14.890625 38.140625 10.796875 36.28125 
z
" id="DejaVuSans-53"/>
      </defs>
      <g transform="translate(389.594133 171.771307)scale(0.1 -0.1)">
       <use xlink:href="#DejaVuSans-53"/>
       <use x="63.623047" xlink:href="#DejaVuSans-48"/>
       <use x="127.246094" xlink:href="#DejaVuSans-48"/>
      </g>
     </g>
    </g>
    <g id="text_7">
     <!-- episode -->
     <defs>
      <path d="M 56.203125 29.59375 
L 56.203125 25.203125 
L 14.890625 25.203125 
Q 15.484375 15.921875 20.484375 11.0625 
Q 25.484375 6.203125 34.421875 6.203125 
Q 39.59375 6.203125 44.453125 7.46875 
Q 49.3125 8.734375 54.109375 11.28125 
L 54.109375 2.78125 
Q 49.265625 0.734375 44.1875 -0.34375 
Q 39.109375 -1.421875 33.890625 -1.421875 
Q 20.796875 -1.421875 13.15625 6.1875 
Q 5.515625 13.8125 5.515625 26.8125 
Q 5.515625 40.234375 12.765625 48.109375 
Q 20.015625 56 32.328125 56 
Q 43.359375 56 49.78125 48.890625 
Q 56.203125 41.796875 56.203125 29.59375 
z
M 47.21875 32.234375 
Q 47.125 39.59375 43.09375 43.984375 
Q 39.0625 48.390625 32.421875 48.390625 
Q 24.90625 48.390625 20.390625 44.140625 
Q 15.875 39.890625 15.1875 32.171875 
z
" id="DejaVuSans-101"/>
      <path d="M 18.109375 8.203125 
L 18.109375 -20.796875 
L 9.078125 -20.796875 
L 9.078125 54.6875 
L 18.109375 54.6875 
L 18.109375 46.390625 
Q 20.953125 51.265625 25.265625 53.625 
Q 29.59375 56 35.59375 56 
Q 45.5625 56 51.78125 48.09375 
Q 58.015625 40.1875 58.015625 27.296875 
Q 58.015625 14.40625 51.78125 6.484375 
Q 45.5625 -1.421875 35.59375 -1.421875 
Q 29.59375 -1.421875 25.265625 0.953125 
Q 20.953125 3.328125 18.109375 8.203125 
z
M 48.6875 27.296875 
Q 48.6875 37.203125 44.609375 42.84375 
Q 40.53125 48.484375 33.40625 48.484375 
Q 26.265625 48.484375 22.1875 42.84375 
Q 18.109375 37.203125 18.109375 27.296875 
Q 18.109375 17.390625 22.1875 11.75 
Q 26.265625 6.109375 33.40625 6.109375 
Q 40.53125 6.109375 44.609375 11.75 
Q 48.6875 17.390625 48.6875 27.296875 
z
" id="DejaVuSans-112"/>
      <path d="M 9.421875 54.6875 
L 18.40625 54.6875 
L 18.40625 0 
L 9.421875 0 
z
M 9.421875 75.984375 
L 18.40625 75.984375 
L 18.40625 64.59375 
L 9.421875 64.59375 
z
" id="DejaVuSans-105"/>
      <path d="M 44.28125 53.078125 
L 44.28125 44.578125 
Q 40.484375 46.53125 36.375 47.5 
Q 32.28125 48.484375 27.875 48.484375 
Q 21.1875 48.484375 17.84375 46.4375 
Q 14.5 44.390625 14.5 40.28125 
Q 14.5 37.15625 16.890625 35.375 
Q 19.28125 33.59375 26.515625 31.984375 
L 29.59375 31.296875 
Q 39.15625 29.25 43.1875 25.515625 
Q 47.21875 21.78125 47.21875 15.09375 
Q 47.21875 7.46875 41.1875 3.015625 
Q 35.15625 -1.421875 24.609375 -1.421875 
Q 20.21875 -1.421875 15.453125 -0.5625 
Q 10.6875 0.296875 5.421875 2 
L 5.421875 11.28125 
Q 10.40625 8.6875 15.234375 7.390625 
Q 20.0625 6.109375 24.8125 6.109375 
Q 31.15625 6.109375 34.5625 8.28125 
Q 37.984375 10.453125 37.984375 14.40625 
Q 37.984375 18.0625 35.515625 20.015625 
Q 33.0625 21.96875 24.703125 23.78125 
L 21.578125 24.515625 
Q 13.234375 26.265625 9.515625 29.90625 
Q 5.8125 33.546875 5.8125 39.890625 
Q 5.8125 47.609375 11.28125 51.796875 
Q 16.75 56 26.8125 56 
Q 31.78125 56 36.171875 55.265625 
Q 40.578125 54.546875 44.28125 53.078125 
z
" id="DejaVuSans-115"/>
      <path d="M 30.609375 48.390625 
Q 23.390625 48.390625 19.1875 42.75 
Q 14.984375 37.109375 14.984375 27.296875 
Q 14.984375 17.484375 19.15625 11.84375 
Q 23.34375 6.203125 30.609375 6.203125 
Q 37.796875 6.203125 41.984375 11.859375 
Q 46.1875 17.53125 46.1875 27.296875 
Q 46.1875 37.015625 41.984375 42.703125 
Q 37.796875 48.390625 30.609375 48.390625 
z
M 30.609375 56 
Q 42.328125 56 49.015625 48.375 
Q 55.71875 40.765625 55.71875 27.296875 
Q 55.71875 13.875 49.015625 6.21875 
Q 42.328125 -1.421875 30.609375 -1.421875 
Q 18.84375 -1.421875 12.171875 6.21875 
Q 5.515625 13.875 5.515625 27.296875 
Q 5.515625 40.765625 12.171875 48.375 
Q 18.84375 56 30.609375 56 
z
" id="DejaVuSans-111"/>
      <path d="M 45.40625 46.390625 
L 45.40625 75.984375 
L 54.390625 75.984375 
L 54.390625 0 
L 45.40625 0 
L 45.40625 8.203125 
Q 42.578125 3.328125 38.25 0.953125 
Q 33.9375 -1.421875 27.875 -1.421875 
Q 17.96875 -1.421875 11.734375 6.484375 
Q 5.515625 14.40625 5.515625 27.296875 
Q 5.515625 40.1875 11.734375 48.09375 
Q 17.96875 56 27.875 56 
Q 33.9375 56 38.25 53.625 
Q 42.578125 51.265625 45.40625 46.390625 
z
M 14.796875 27.296875 
Q 14.796875 17.390625 18.875 11.75 
Q 22.953125 6.109375 30.078125 6.109375 
Q 37.203125 6.109375 41.296875 11.75 
Q 45.40625 17.390625 45.40625 27.296875 
Q 45.40625 37.203125 41.296875 42.84375 
Q 37.203125 48.484375 30.078125 48.484375 
Q 22.953125 48.484375 18.875 42.84375 
Q 14.796875 37.203125 14.796875 27.296875 
z
" id="DejaVuSans-100"/>
     </defs>
     <g transform="translate(216.605312 185.449432)scale(0.1 -0.1)">
      <use xlink:href="#DejaVuSans-101"/>
      <use x="61.523438" xlink:href="#DejaVuSans-112"/>
      <use x="125" xlink:href="#DejaVuSans-105"/>
      <use x="152.783203" xlink:href="#DejaVuSans-115"/>
      <use x="204.882812" xlink:href="#DejaVuSans-111"/>
      <use x="266.064453" xlink:href="#DejaVuSans-100"/>
      <use x="329.541016" xlink:href="#DejaVuSans-101"/>
     </g>
    </g>
   </g>
   <g id="matplotlib.axis_2">
    <g id="ytick_1">
     <g id="line2d_7">
      <defs>
       <path d="M 0 0 
L -3.5 0 
" id="ma53d6cb42f" style="stroke:#000000;stroke-width:0.8;"/>
      </defs>
      <g>
       <use style="stroke:#000000;stroke-width:0.8;" x="57.6" xlink:href="#ma53d6cb42f" y="153.178433"/>
      </g>
     </g>
     <g id="text_8">
      <!-- 20 -->
      <g transform="translate(37.875 156.977652)scale(0.1 -0.1)">
       <use xlink:href="#DejaVuSans-50"/>
       <use x="63.623047" xlink:href="#DejaVuSans-48"/>
      </g>
     </g>
    </g>
    <g id="ytick_2">
     <g id="line2d_8">
      <g>
       <use style="stroke:#000000;stroke-width:0.8;" x="57.6" xlink:href="#ma53d6cb42f" y="128.731486"/>
      </g>
     </g>
     <g id="text_9">
      <!-- 40 -->
      <g transform="translate(37.875 132.530705)scale(0.1 -0.1)">
       <use xlink:href="#DejaVuSans-52"/>
       <use x="63.623047" xlink:href="#DejaVuSans-48"/>
      </g>
     </g>
    </g>
    <g id="ytick_3">
     <g id="line2d_9">
      <g>
       <use style="stroke:#000000;stroke-width:0.8;" x="57.6" xlink:href="#ma53d6cb42f" y="104.284539"/>
      </g>
     </g>
     <g id="text_10">
      <!-- 60 -->
      <defs>
       <path d="M 33.015625 40.375 
Q 26.375 40.375 22.484375 35.828125 
Q 18.609375 31.296875 18.609375 23.390625 
Q 18.609375 15.53125 22.484375 10.953125 
Q 26.375 6.390625 33.015625 6.390625 
Q 39.65625 6.390625 43.53125 10.953125 
Q 47.40625 15.53125 47.40625 23.390625 
Q 47.40625 31.296875 43.53125 35.828125 
Q 39.65625 40.375 33.015625 40.375 
z
M 52.59375 71.296875 
L 52.59375 62.3125 
Q 48.875 64.0625 45.09375 64.984375 
Q 41.3125 65.921875 37.59375 65.921875 
Q 27.828125 65.921875 22.671875 59.328125 
Q 17.53125 52.734375 16.796875 39.40625 
Q 19.671875 43.65625 24.015625 45.921875 
Q 28.375 48.1875 33.59375 48.1875 
Q 44.578125 48.1875 50.953125 41.515625 
Q 57.328125 34.859375 57.328125 23.390625 
Q 57.328125 12.15625 50.6875 5.359375 
Q 44.046875 -1.421875 33.015625 -1.421875 
Q 20.359375 -1.421875 13.671875 8.265625 
Q 6.984375 17.96875 6.984375 36.375 
Q 6.984375 53.65625 15.1875 63.9375 
Q 23.390625 74.21875 37.203125 74.21875 
Q 40.921875 74.21875 44.703125 73.484375 
Q 48.484375 72.75 52.59375 71.296875 
z
" id="DejaVuSans-54"/>
      </defs>
      <g transform="translate(37.875 108.083758)scale(0.1 -0.1)">
       <use xlink:href="#DejaVuSans-54"/>
       <use x="63.623047" xlink:href="#DejaVuSans-48"/>
      </g>
     </g>
    </g>
    <g id="ytick_4">
     <g id="line2d_10">
      <g>
       <use style="stroke:#000000;stroke-width:0.8;" x="57.6" xlink:href="#ma53d6cb42f" y="79.837592"/>
      </g>
     </g>
     <g id="text_11">
      <!-- 80 -->
      <defs>
       <path d="M 31.78125 34.625 
Q 24.75 34.625 20.71875 30.859375 
Q 16.703125 27.09375 16.703125 20.515625 
Q 16.703125 13.921875 20.71875 10.15625 
Q 24.75 6.390625 31.78125 6.390625 
Q 38.8125 6.390625 42.859375 10.171875 
Q 46.921875 13.96875 46.921875 20.515625 
Q 46.921875 27.09375 42.890625 30.859375 
Q 38.875 34.625 31.78125 34.625 
z
M 21.921875 38.8125 
Q 15.578125 40.375 12.03125 44.71875 
Q 8.5 49.078125 8.5 55.328125 
Q 8.5 64.0625 14.71875 69.140625 
Q 20.953125 74.21875 31.78125 74.21875 
Q 42.671875 74.21875 48.875 69.140625 
Q 55.078125 64.0625 55.078125 55.328125 
Q 55.078125 49.078125 51.53125 44.71875 
Q 48 40.375 41.703125 38.8125 
Q 48.828125 37.15625 52.796875 32.3125 
Q 56.78125 27.484375 56.78125 20.515625 
Q 56.78125 9.90625 50.3125 4.234375 
Q 43.84375 -1.421875 31.78125 -1.421875 
Q 19.734375 -1.421875 13.25 4.234375 
Q 6.78125 9.90625 6.78125 20.515625 
Q 6.78125 27.484375 10.78125 32.3125 
Q 14.796875 37.15625 21.921875 38.8125 
z
M 18.3125 54.390625 
Q 18.3125 48.734375 21.84375 45.5625 
Q 25.390625 42.390625 31.78125 42.390625 
Q 38.140625 42.390625 41.71875 45.5625 
Q 45.3125 48.734375 45.3125 54.390625 
Q 45.3125 60.0625 41.71875 63.234375 
Q 38.140625 66.40625 31.78125 66.40625 
Q 25.390625 66.40625 21.84375 63.234375 
Q 18.3125 60.0625 18.3125 54.390625 
z
" id="DejaVuSans-56"/>
      </defs>
      <g transform="translate(37.875 83.636811)scale(0.1 -0.1)">
       <use xlink:href="#DejaVuSans-56"/>
       <use x="63.623047" xlink:href="#DejaVuSans-48"/>
      </g>
     </g>
    </g>
    <g id="ytick_5">
     <g id="line2d_11">
      <g>
       <use style="stroke:#000000;stroke-width:0.8;" x="57.6" xlink:href="#ma53d6cb42f" y="55.390645"/>
      </g>
     </g>
     <g id="text_12">
      <!-- 100 -->
      <g transform="translate(31.5125 59.189864)scale(0.1 -0.1)">
       <use xlink:href="#DejaVuSans-49"/>
       <use x="63.623047" xlink:href="#DejaVuSans-48"/>
       <use x="127.246094" xlink:href="#DejaVuSans-48"/>
      </g>
     </g>
    </g>
   </g>
   <g id="line2d_12">
    <path clip-path="url(#p22b5c1ce70)" d="M 73.832727 99.132279 
L 74.483338 87.181693 
L 75.133948 72.954814 
L 75.784558 102.924493 
L 76.435169 90.607894 
L 77.085779 120.02109 
L 77.736389 85.699864 
L 78.386999 68.550231 
L 79.03761 71.949639 
L 79.68822 70.302088 
L 80.33883 102.909837 
L 80.989441 123.810241 
L 81.640051 84.348515 
L 82.290661 123.326656 
L 82.941272 99.823497 
L 83.591882 104.365414 
L 84.242492 77.917061 
L 84.893103 83.806877 
L 85.543713 130.089336 
L 86.194323 121.009581 
L 86.844934 96.873278 
L 87.495544 126.433467 
L 88.796764 76.243075 
L 89.447375 81.406467 
L 90.097985 102.17995 
L 90.748595 71.936429 
L 91.399206 99.980035 
L 92.049816 74.090817 
L 92.700426 91.034173 
L 93.351037 88.946893 
L 94.001647 102.386223 
L 95.302868 56.785275 
L 95.953478 99.09046 
L 96.604088 51.467905 
L 97.254698 94.585884 
L 97.905309 51.574055 
L 98.555919 82.27579 
L 99.206529 62.907465 
L 99.85714 67.723897 
L 100.50775 77.091075 
L 101.15836 71.630238 
L 101.808971 59.651273 
L 102.459581 58.632294 
L 103.110191 54.164386 
L 103.760802 61.136889 
L 104.411412 54.443848 
L 105.062022 54.405767 
L 105.712633 53.859241 
L 106.363243 53.826963 
L 107.664463 61.530169 
L 108.315074 79.100822 
L 108.965684 89.616205 
L 109.616294 103.613411 
L 110.266905 70.324934 
L 110.917515 97.560602 
L 111.568125 83.637989 
L 112.218736 62.724562 
L 112.869346 63.181944 
L 113.519956 90.420134 
L 114.170567 100.49812 
L 114.821177 50.696182 
L 115.471787 52.57513 
L 116.122398 51.605862 
L 116.773008 62.057905 
L 117.423618 82.379089 
L 118.074228 65.226524 
L 118.724839 70.517089 
L 119.375449 57.859862 
L 120.026059 70.64313 
L 120.67667 86.581133 
L 121.32728 58.503229 
L 121.97789 62.612674 
L 122.628501 59.532248 
L 123.279111 57.090243 
L 123.929721 92.317598 
L 124.580332 51.646986 
L 125.230942 55.798239 
L 125.881552 94.50576 
L 126.532163 57.917629 
L 127.833383 81.884573 
L 128.483993 80.374514 
L 129.134604 69.27572 
L 129.785214 78.291962 
L 130.435824 52.814319 
L 131.086435 60.006139 
L 131.737045 55.539823 
L 132.387655 53.340328 
L 133.038266 66.196579 
L 133.688876 88.527545 
L 134.339486 62.347725 
L 134.990097 108.74274 
L 135.640707 64.31827 
L 136.291317 66.880945 
L 136.941927 46.73113 
L 137.592538 77.525704 
L 138.243148 56.842968 
L 138.893758 57.731778 
L 139.544369 72.582818 
L 140.194979 52.094214 
L 140.845589 117.140035 
L 141.4962 66.089723 
L 142.14681 75.553095 
L 142.79742 59.038322 
L 143.448031 60.590375 
L 144.098641 72.452425 
L 144.749251 73.994063 
L 145.399862 62.704109 
L 146.050472 61.301302 
L 146.701082 58.261641 
L 147.351692 68.954146 
L 148.002303 72.906142 
L 148.652913 68.988805 
L 149.303523 61.731924 
L 149.954134 85.802665 
L 150.604744 83.247829 
L 151.255354 72.788539 
L 151.905965 66.848704 
L 152.556575 66.729902 
L 153.207185 61.393238 
L 153.857796 74.229133 
L 154.508406 59.847455 
L 155.159016 69.495943 
L 155.809627 63.102724 
L 156.460237 60.861495 
L 157.110847 151.913739 
L 157.761457 62.591723 
L 158.412068 79.140819 
L 159.062678 150.143006 
L 159.713288 57.737682 
L 160.363899 70.379988 
L 161.014509 88.365789 
L 161.665119 89.610518 
L 162.31573 126.906896 
L 162.96634 60.302495 
L 163.61695 80.511591 
L 164.267561 69.705184 
L 164.918171 75.440184 
L 165.568781 82.404152 
L 166.219392 138.676063 
L 166.870002 136.569894 
L 167.520612 86.474783 
L 168.171222 78.825143 
L 168.821833 138.160422 
L 169.472443 101.922643 
L 170.123053 74.801176 
L 170.773664 104.644861 
L 171.424274 139.732612 
L 172.074884 136.06557 
L 172.725495 145.034194 
L 173.376105 137.286611 
L 174.026715 71.939417 
L 174.677326 99.395149 
L 175.327936 73.058892 
L 175.978546 79.837592 
L 176.629156 115.366545 
L 177.279767 123.813951 
L 177.930377 70.562796 
L 178.580987 66.628601 
L 179.231598 99.251627 
L 179.882208 70.607041 
L 181.183429 92.042212 
L 181.834039 63.345524 
L 182.484649 105.845001 
L 183.13526 84.293273 
L 183.78587 75.510387 
L 184.43648 100.617497 
L 185.087091 111.513837 
L 185.737701 90.379074 
L 186.388311 73.510232 
L 187.038921 70.058813 
L 187.689532 86.923724 
L 188.340142 95.720084 
L 188.990752 75.032906 
L 189.641363 72.841327 
L 190.291973 103.68175 
L 190.942583 95.708441 
L 191.593194 105.934249 
L 192.243804 87.882974 
L 192.894414 122.050075 
L 193.545025 99.128562 
L 194.195635 96.089252 
L 194.846245 113.337099 
L 195.496856 67.283858 
L 196.147466 107.38201 
L 196.798076 131.548688 
L 197.448686 115.648203 
L 198.099297 79.172618 
L 198.749907 97.205888 
L 199.400517 101.00159 
L 200.051128 128.071225 
L 200.701738 84.726981 
L 201.352348 96.136862 
L 202.002959 90.838718 
L 202.653569 116.931911 
L 203.304179 107.35689 
L 203.95479 79.37465 
L 204.6054 81.376092 
L 205.25601 105.665741 
L 205.906621 125.261179 
L 206.557231 86.594459 
L 207.207841 133.397737 
L 207.858451 96.950455 
L 208.509062 86.400197 
L 209.159672 96.343925 
L 209.810282 97.739389 
L 210.460893 110.364857 
L 211.111503 80.27187 
L 211.762113 94.864139 
L 212.412724 119.115529 
L 213.063334 81.565058 
L 213.713944 129.49786 
L 214.364555 68.682291 
L 215.015165 86.313293 
L 215.665775 98.63741 
L 216.316385 84.966399 
L 216.966996 80.486907 
L 217.617606 89.669576 
L 218.268216 75.510565 
L 218.918827 83.385366 
L 219.569437 74.931558 
L 220.220047 76.414702 
L 221.521268 88.331847 
L 222.171878 91.458921 
L 222.822489 132.760314 
L 223.473099 68.352056 
L 224.123709 93.731868 
L 224.77432 74.203991 
L 225.42493 71.744868 
L 226.07554 76.117307 
L 226.72615 72.760029 
L 227.376761 59.010821 
L 228.027371 76.377951 
L 228.677981 85.618778 
L 229.328592 73.036635 
L 229.979202 83.895147 
L 230.629812 68.491495 
L 231.280423 62.669944 
L 231.931033 98.102271 
L 232.581643 79.838668 
L 233.232254 78.98506 
L 233.882864 78.665731 
L 234.533474 76.439513 
L 235.184085 73.024776 
L 235.834695 67.619003 
L 236.485305 73.651666 
L 237.135915 83.88117 
L 237.786526 86.491286 
L 238.437136 75.522184 
L 239.087746 93.524903 
L 239.738357 69.526564 
L 240.388967 70.845607 
L 241.039577 68.283621 
L 241.690188 77.653337 
L 242.340798 74.484429 
L 242.991408 67.554616 
L 243.642019 70.845144 
L 244.292629 69.425263 
L 244.943239 75.57815 
L 245.59385 60.429794 
L 246.89507 80.504803 
L 247.54568 72.354037 
L 248.196291 78.68313 
L 248.846901 80.033765 
L 249.497511 73.666674 
L 250.148122 79.236008 
L 250.798732 70.690885 
L 251.449342 76.828685 
L 252.099953 84.133624 
L 252.750563 70.133632 
L 253.401173 78.89759 
L 254.051784 69.83954 
L 254.702394 73.289135 
L 255.353004 73.92656 
L 256.003615 72.39154 
L 256.654225 66.861401 
L 257.304835 73.992933 
L 257.955445 68.380211 
L 258.606056 74.165321 
L 259.256666 73.2504 
L 259.907276 65.654158 
L 260.557887 69.467144 
L 261.208497 78.626008 
L 261.859107 83.806202 
L 262.509718 76.648504 
L 263.160328 66.01274 
L 263.810938 75.149221 
L 264.461549 68.50238 
L 265.112159 71.00996 
L 265.762769 68.785509 
L 266.413379 67.134672 
L 267.06399 69.693777 
L 267.7146 69.337251 
L 268.36521 68.206652 
L 269.015821 67.651016 
L 269.666431 62.829889 
L 270.317041 65.593466 
L 271.618262 74.32614 
L 272.268872 69.049833 
L 272.919483 60.104715 
L 273.570093 67.0007 
L 274.220703 72.455585 
L 274.871314 71.169501 
L 275.521924 69.017933 
L 276.172534 63.7261 
L 276.823144 62.336841 
L 278.124365 72.098862 
L 278.774975 61.251332 
L 279.425586 65.476364 
L 280.076196 66.592781 
L 280.726806 73.665588 
L 281.377417 71.153153 
L 282.028027 66.999718 
L 282.678637 61.688096 
L 283.329248 67.971435 
L 283.979858 70.274989 
L 284.630468 76.209474 
L 285.281079 67.579651 
L 285.931689 64.762294 
L 286.582299 78.816491 
L 287.232909 65.556705 
L 287.88352 65.421383 
L 288.53413 64.900475 
L 289.18474 64.102646 
L 289.835351 69.662557 
L 290.485961 72.380209 
L 291.136571 70.402311 
L 291.787182 73.535201 
L 292.437792 64.514062 
L 293.088402 64.901616 
L 293.739013 65.433809 
L 294.389623 67.700721 
L 295.040233 67.994355 
L 295.690844 70.905715 
L 296.341454 73.105843 
L 296.992064 73.18949 
L 297.642674 66.657506 
L 298.293285 67.140005 
L 298.943895 63.611053 
L 299.594505 59.187719 
L 300.245116 64.951298 
L 301.546336 74.673991 
L 302.196947 69.473991 
L 302.847557 65.675735 
L 303.498167 66.499661 
L 304.148778 62.864339 
L 304.799388 74.802009 
L 305.449998 66.941774 
L 306.100608 70.739146 
L 306.751219 70.497762 
L 307.401829 68.250674 
L 308.052439 69.105354 
L 308.70305 66.540166 
L 310.00427 73.77859 
L 310.654881 69.401781 
L 311.305491 66.802617 
L 311.956101 64.821937 
L 312.606712 66.331095 
L 313.257322 74.044032 
L 313.907932 64.444176 
L 314.558543 66.641251 
L 315.859763 72.889162 
L 316.510373 69.944463 
L 317.160984 60.397695 
L 317.811594 66.022346 
L 318.462204 63.284488 
L 319.763425 67.626123 
L 320.414035 66.412324 
L 321.064646 60.065747 
L 321.715256 65.579619 
L 323.016477 69.95104 
L 323.667087 64.794854 
L 324.968308 68.276673 
L 325.618918 63.182415 
L 326.269528 73.771674 
L 326.920138 64.119527 
L 327.570749 60.157303 
L 328.221359 66.413698 
L 328.871969 68.801815 
L 329.52258 65.412092 
L 330.17319 78.35229 
L 330.8238 74.483443 
L 331.474411 64.891461 
L 332.125021 65.3608 
L 332.775631 70.898304 
L 333.426242 71.867409 
L 334.076852 69.570922 
L 334.727462 70.931814 
L 335.378073 60.275598 
L 336.028683 66.793689 
L 336.679293 71.952378 
L 337.329903 68.173858 
L 337.980514 63.669618 
L 338.631124 58.281865 
L 339.281734 75.875044 
L 339.932345 68.094136 
L 340.582955 62.564305 
L 341.233565 70.37662 
L 341.884176 67.543995 
L 342.534786 65.380866 
L 343.185396 59.873591 
L 343.836007 65.729177 
L 344.486617 63.836818 
L 345.137227 72.19911 
L 345.787837 64.784996 
L 346.438448 68.792387 
L 347.089058 70.37896 
L 347.739668 69.415695 
L 348.390279 68.807967 
L 349.040889 59.653026 
L 349.691499 70.118636 
L 350.34211 71.445612 
L 350.99272 68.078704 
L 351.64333 67.429322 
L 352.293941 65.688066 
L 352.944551 65.888488 
L 353.595161 67.297934 
L 354.245772 60.938486 
L 354.896382 64.681068 
L 356.848213 68.988495 
L 357.498823 69.345482 
L 358.149433 62.159404 
L 358.800044 67.738627 
L 359.450654 69.34576 
L 360.101264 76.06121 
L 361.402485 66.844933 
L 362.053095 67.518021 
L 362.703706 66.384474 
L 363.354316 69.467716 
L 364.004926 65.140686 
L 364.655537 64.009676 
L 365.306147 77.951716 
L 365.956757 66.243541 
L 366.607367 65.771013 
L 367.257978 68.386476 
L 367.908588 62.201877 
L 368.559198 72.420929 
L 369.209809 65.935501 
L 369.860419 64.021592 
L 370.511029 68.741543 
L 371.16164 70.677234 
L 371.81225 65.209752 
L 372.46286 62.035183 
L 373.113471 64.32902 
L 373.764081 67.044263 
L 374.414691 63.04664 
L 375.065302 68.581735 
L 375.715912 61.814924 
L 376.366522 63.99903 
L 377.017132 64.254798 
L 377.667743 63.474066 
L 378.968963 67.820909 
L 379.619574 55.779528 
L 380.270184 65.905848 
L 380.920794 65.527838 
L 381.571405 72.266647 
L 382.222015 66.898401 
L 382.872625 65.38332 
L 383.523236 76.450895 
L 384.173846 65.242982 
L 384.824456 62.243085 
L 385.475066 56.880844 
L 386.125677 64.991838 
L 386.776287 68.074483 
L 387.426897 59.693434 
L 388.077508 65.264147 
L 388.728118 63.627936 
L 389.378728 64.511855 
L 390.029339 67.42749 
L 391.330559 71.106332 
L 391.98117 65.566662 
L 392.63178 65.145427 
L 393.28239 73.312292 
L 393.933001 77.85451 
L 394.583611 68.431278 
L 395.234221 62.515684 
L 395.884831 65.379904 
L 396.535442 71.774797 
L 397.186052 59.848112 
L 397.836662 60.777947 
L 398.487273 62.129383 
L 398.487273 62.129383 
" style="fill:none;stroke:#0000ff;stroke-linecap:square;stroke-width:1.5;"/>
   </g>
   <g id="patch_3">
    <path d="M 57.6 157.17287 
L 57.6 41.472 
" style="fill:none;stroke:#000000;stroke-linecap:square;stroke-linejoin:miter;stroke-width:0.8;"/>
   </g>
   <g id="patch_4">
    <path d="M 414.72 157.17287 
L 414.72 41.472 
" style="fill:none;stroke:#000000;stroke-linecap:square;stroke-linejoin:miter;stroke-width:0.8;"/>
   </g>
   <g id="patch_5">
    <path d="M 57.6 157.17287 
L 414.72 157.17287 
" style="fill:none;stroke:#000000;stroke-linecap:square;stroke-linejoin:miter;stroke-width:0.8;"/>
   </g>
   <g id="patch_6">
    <path d="M 57.6 41.472 
L 414.72 41.472 
" style="fill:none;stroke:#000000;stroke-linecap:square;stroke-linejoin:miter;stroke-width:0.8;"/>
   </g>
   <g id="legend_1">
    <g id="patch_7">
     <path d="M 64.6 152.17287 
L 137.9875 152.17287 
Q 139.9875 152.17287 139.9875 150.17287 
L 139.9875 136.494745 
Q 139.9875 134.494745 137.9875 134.494745 
L 64.6 134.494745 
Q 62.6 134.494745 62.6 136.494745 
L 62.6 150.17287 
Q 62.6 152.17287 64.6 152.17287 
z
" style="fill:#ffffff;opacity:0.8;stroke:#cccccc;stroke-linejoin:miter;"/>
    </g>
    <g id="line2d_13">
     <path d="M 66.6 142.593182 
L 86.6 142.593182 
" style="fill:none;stroke:#0000ff;stroke-linecap:square;stroke-width:1.5;"/>
    </g>
    <g id="line2d_14"/>
    <g id="text_13">
     <!-- reward1 -->
     <defs>
      <path d="M 41.109375 46.296875 
Q 39.59375 47.171875 37.8125 47.578125 
Q 36.03125 48 33.890625 48 
Q 26.265625 48 22.1875 43.046875 
Q 18.109375 38.09375 18.109375 28.8125 
L 18.109375 0 
L 9.078125 0 
L 9.078125 54.6875 
L 18.109375 54.6875 
L 18.109375 46.1875 
Q 20.953125 51.171875 25.484375 53.578125 
Q 30.03125 56 36.53125 56 
Q 37.453125 56 38.578125 55.875 
Q 39.703125 55.765625 41.0625 55.515625 
z
" id="DejaVuSans-114"/>
      <path d="M 4.203125 54.6875 
L 13.1875 54.6875 
L 24.421875 12.015625 
L 35.59375 54.6875 
L 46.1875 54.6875 
L 57.421875 12.015625 
L 68.609375 54.6875 
L 77.59375 54.6875 
L 63.28125 0 
L 52.6875 0 
L 40.921875 44.828125 
L 29.109375 0 
L 18.5 0 
z
" id="DejaVuSans-119"/>
      <path d="M 34.28125 27.484375 
Q 23.390625 27.484375 19.1875 25 
Q 14.984375 22.515625 14.984375 16.5 
Q 14.984375 11.71875 18.140625 8.90625 
Q 21.296875 6.109375 26.703125 6.109375 
Q 34.1875 6.109375 38.703125 11.40625 
Q 43.21875 16.703125 43.21875 25.484375 
L 43.21875 27.484375 
z
M 52.203125 31.203125 
L 52.203125 0 
L 43.21875 0 
L 43.21875 8.296875 
Q 40.140625 3.328125 35.546875 0.953125 
Q 30.953125 -1.421875 24.3125 -1.421875 
Q 15.921875 -1.421875 10.953125 3.296875 
Q 6 8.015625 6 15.921875 
Q 6 25.140625 12.171875 29.828125 
Q 18.359375 34.515625 30.609375 34.515625 
L 43.21875 34.515625 
L 43.21875 35.40625 
Q 43.21875 41.609375 39.140625 45 
Q 35.0625 48.390625 27.6875 48.390625 
Q 23 48.390625 18.546875 47.265625 
Q 14.109375 46.140625 10.015625 43.890625 
L 10.015625 52.203125 
Q 14.9375 54.109375 19.578125 55.046875 
Q 24.21875 56 28.609375 56 
Q 40.484375 56 46.34375 49.84375 
Q 52.203125 43.703125 52.203125 31.203125 
z
" id="DejaVuSans-97"/>
     </defs>
     <g transform="translate(94.6 146.093182)scale(0.1 -0.1)">
      <use xlink:href="#DejaVuSans-114"/>
      <use x="41.082031" xlink:href="#DejaVuSans-101"/>
      <use x="102.605469" xlink:href="#DejaVuSans-119"/>
      <use x="184.392578" xlink:href="#DejaVuSans-97"/>
      <use x="245.671875" xlink:href="#DejaVuSans-114"/>
      <use x="286.769531" xlink:href="#DejaVuSans-100"/>
      <use x="350.246094" xlink:href="#DejaVuSans-49"/>
     </g>
    </g>
   </g>
  </g>
  <g id="axes_2">
   <g id="patch_8">
    <path d="M 57.6 307.584 
L 414.72 307.584 
L 414.72 191.88313 
L 57.6 191.88313 
z
" style="fill:#ffffff;"/>
   </g>
   <g id="matplotlib.axis_3">
    <g id="xtick_7">
     <g id="line2d_15">
      <g>
       <use style="stroke:#000000;stroke-width:0.8;" x="73.832727" xlink:href="#mf205155528" y="307.584"/>
      </g>
     </g>
     <g id="text_14">
      <!-- 0 -->
      <g transform="translate(70.651477 322.182437)scale(0.1 -0.1)">
       <use xlink:href="#DejaVuSans-48"/>
      </g>
     </g>
    </g>
    <g id="xtick_8">
     <g id="line2d_16">
      <g>
       <use style="stroke:#000000;stroke-width:0.8;" x="138.893758" xlink:href="#mf205155528" y="307.584"/>
      </g>
     </g>
     <g id="text_15">
      <!-- 100 -->
      <g transform="translate(129.350008 322.182437)scale(0.1 -0.1)">
       <use xlink:href="#DejaVuSans-49"/>
       <use x="63.623047" xlink:href="#DejaVuSans-48"/>
       <use x="127.246094" xlink:href="#DejaVuSans-48"/>
      </g>
     </g>
    </g>
    <g id="xtick_9">
     <g id="line2d_17">
      <g>
       <use style="stroke:#000000;stroke-width:0.8;" x="203.95479" xlink:href="#mf205155528" y="307.584"/>
      </g>
     </g>
     <g id="text_16">
      <!-- 200 -->
      <g transform="translate(194.41104 322.182437)scale(0.1 -0.1)">
       <use xlink:href="#DejaVuSans-50"/>
       <use x="63.623047" xlink:href="#DejaVuSans-48"/>
       <use x="127.246094" xlink:href="#DejaVuSans-48"/>
      </g>
     </g>
    </g>
    <g id="xtick_10">
     <g id="line2d_18">
      <g>
       <use style="stroke:#000000;stroke-width:0.8;" x="269.015821" xlink:href="#mf205155528" y="307.584"/>
      </g>
     </g>
     <g id="text_17">
      <!-- 300 -->
      <g transform="translate(259.472071 322.182437)scale(0.1 -0.1)">
       <use xlink:href="#DejaVuSans-51"/>
       <use x="63.623047" xlink:href="#DejaVuSans-48"/>
       <use x="127.246094" xlink:href="#DejaVuSans-48"/>
      </g>
     </g>
    </g>
    <g id="xtick_11">
     <g id="line2d_19">
      <g>
       <use style="stroke:#000000;stroke-width:0.8;" x="334.076852" xlink:href="#mf205155528" y="307.584"/>
      </g>
     </g>
     <g id="text_18">
      <!-- 400 -->
      <g transform="translate(324.533102 322.182437)scale(0.1 -0.1)">
       <use xlink:href="#DejaVuSans-52"/>
       <use x="63.623047" xlink:href="#DejaVuSans-48"/>
       <use x="127.246094" xlink:href="#DejaVuSans-48"/>
      </g>
     </g>
    </g>
    <g id="xtick_12">
     <g id="line2d_20">
      <g>
       <use style="stroke:#000000;stroke-width:0.8;" x="399.137883" xlink:href="#mf205155528" y="307.584"/>
      </g>
     </g>
     <g id="text_19">
      <!-- 500 -->
      <g transform="translate(389.594133 322.182437)scale(0.1 -0.1)">
       <use xlink:href="#DejaVuSans-53"/>
       <use x="63.623047" xlink:href="#DejaVuSans-48"/>
       <use x="127.246094" xlink:href="#DejaVuSans-48"/>
      </g>
     </g>
    </g>
    <g id="text_20">
     <!-- episode -->
     <g transform="translate(216.605312 335.860562)scale(0.1 -0.1)">
      <use xlink:href="#DejaVuSans-101"/>
      <use x="61.523438" xlink:href="#DejaVuSans-112"/>
      <use x="125" xlink:href="#DejaVuSans-105"/>
      <use x="152.783203" xlink:href="#DejaVuSans-115"/>
      <use x="204.882812" xlink:href="#DejaVuSans-111"/>
      <use x="266.064453" xlink:href="#DejaVuSans-100"/>
      <use x="329.541016" xlink:href="#DejaVuSans-101"/>
     </g>
    </g>
   </g>
   <g id="matplotlib.axis_4">
    <g id="ytick_6">
     <g id="line2d_21">
      <g>
       <use style="stroke:#000000;stroke-width:0.8;" x="57.6" xlink:href="#ma53d6cb42f" y="294.232187"/>
      </g>
     </g>
     <g id="text_21">
      <!-- 25 -->
      <g transform="translate(37.875 298.031406)scale(0.1 -0.1)">
       <use xlink:href="#DejaVuSans-50"/>
       <use x="63.623047" xlink:href="#DejaVuSans-53"/>
      </g>
     </g>
    </g>
    <g id="ytick_7">
     <g id="line2d_22">
      <g>
       <use style="stroke:#000000;stroke-width:0.8;" x="57.6" xlink:href="#ma53d6cb42f" y="267.018433"/>
      </g>
     </g>
     <g id="text_22">
      <!-- 50 -->
      <g transform="translate(37.875 270.817652)scale(0.1 -0.1)">
       <use xlink:href="#DejaVuSans-53"/>
       <use x="63.623047" xlink:href="#DejaVuSans-48"/>
      </g>
     </g>
    </g>
    <g id="ytick_8">
     <g id="line2d_23">
      <g>
       <use style="stroke:#000000;stroke-width:0.8;" x="57.6" xlink:href="#ma53d6cb42f" y="239.804679"/>
      </g>
     </g>
     <g id="text_23">
      <!-- 75 -->
      <defs>
       <path d="M 8.203125 72.90625 
L 55.078125 72.90625 
L 55.078125 68.703125 
L 28.609375 0 
L 18.3125 0 
L 43.21875 64.59375 
L 8.203125 64.59375 
z
" id="DejaVuSans-55"/>
      </defs>
      <g transform="translate(37.875 243.603897)scale(0.1 -0.1)">
       <use xlink:href="#DejaVuSans-55"/>
       <use x="63.623047" xlink:href="#DejaVuSans-53"/>
      </g>
     </g>
    </g>
    <g id="ytick_9">
     <g id="line2d_24">
      <g>
       <use style="stroke:#000000;stroke-width:0.8;" x="57.6" xlink:href="#ma53d6cb42f" y="212.590924"/>
      </g>
     </g>
     <g id="text_24">
      <!-- 100 -->
      <g transform="translate(31.5125 216.390143)scale(0.1 -0.1)">
       <use xlink:href="#DejaVuSans-49"/>
       <use x="63.623047" xlink:href="#DejaVuSans-48"/>
       <use x="127.246094" xlink:href="#DejaVuSans-48"/>
      </g>
     </g>
    </g>
   </g>
   <g id="line2d_25">
    <path clip-path="url(#p2930165475)" d="M 73.832727 284.413768 
L 74.483338 288.739019 
L 75.133948 284.573601 
L 75.784558 292.612432 
L 76.435169 275.760635 
L 77.085779 284.586603 
L 77.736389 285.659344 
L 78.386999 270.556742 
L 79.03761 282.203542 
L 79.68822 275.420477 
L 80.989441 239.958507 
L 81.640051 275.997763 
L 82.290661 295.993686 
L 82.941272 259.146757 
L 83.591882 249.947933 
L 84.242492 280.973317 
L 84.893103 263.250333 
L 85.543713 291.432706 
L 86.194323 296.025409 
L 86.844934 253.756753 
L 87.495544 234.468433 
L 88.146154 294.348994 
L 88.796764 249.680143 
L 89.447375 250.016417 
L 90.097985 248.915511 
L 90.748595 248.196471 
L 91.399206 244.512047 
L 92.049816 266.608269 
L 92.700426 246.99664 
L 93.351037 253.337256 
L 94.001647 228.231612 
L 94.652257 283.397569 
L 95.302868 285.26543 
L 95.953478 243.386615 
L 96.604088 273.56579 
L 97.254698 241.415093 
L 97.905309 273.801672 
L 98.555919 249.583957 
L 99.206529 249.962204 
L 99.85714 277.395763 
L 100.50775 240.566978 
L 101.15836 255.372535 
L 101.808971 255.823539 
L 102.459581 266.552212 
L 103.110191 260.956198 
L 103.760802 262.330235 
L 104.411412 270.781561 
L 105.062022 269.677314 
L 105.712633 262.833982 
L 106.363243 266.392728 
L 107.013853 261.467631 
L 107.664463 252.783916 
L 108.315074 238.420382 
L 108.965684 247.026835 
L 109.616294 240.346927 
L 110.266905 246.336723 
L 110.917515 235.744259 
L 112.218736 243.502535 
L 112.869346 257.36647 
L 113.519956 286.155161 
L 114.170567 238.290509 
L 114.821177 257.734168 
L 115.471787 265.517736 
L 116.773008 243.276759 
L 117.423618 242.730964 
L 118.074228 258.057598 
L 118.724839 252.141944 
L 119.375449 249.120922 
L 120.026059 252.016772 
L 120.67667 239.602192 
L 121.97789 259.138955 
L 122.628501 253.03553 
L 123.279111 249.604255 
L 123.929721 240.774908 
L 124.580332 268.854567 
L 125.230942 270.361673 
L 125.881552 240.618921 
L 126.532163 249.382489 
L 127.182773 244.607411 
L 127.833383 271.160223 
L 128.483993 244.370474 
L 129.134604 248.861799 
L 129.785214 244.897578 
L 130.435824 252.796961 
L 131.086435 252.752148 
L 131.737045 269.807729 
L 133.038266 238.153673 
L 133.688876 240.80549 
L 134.990097 300.838301 
L 135.640707 243.398231 
L 136.291317 253.127744 
L 136.941927 260.100263 
L 137.592538 248.338915 
L 138.243148 247.993772 
L 138.893758 261.827002 
L 139.544369 257.036714 
L 140.194979 266.614326 
L 140.845589 288.525716 
L 141.4962 251.071516 
L 142.14681 242.093172 
L 142.79742 253.347852 
L 143.448031 252.648413 
L 144.098641 253.476718 
L 144.749251 236.935985 
L 145.399862 253.379436 
L 146.050472 254.01463 
L 146.701082 260.12946 
L 147.351692 282.639039 
L 148.002303 250.338393 
L 148.652913 252.572972 
L 149.303523 250.292064 
L 149.954134 230.028057 
L 150.604744 226.671737 
L 151.255354 229.835039 
L 151.905965 241.865803 
L 152.556575 245.254487 
L 153.207185 257.049941 
L 153.857796 237.973083 
L 154.508406 259.686833 
L 155.159016 243.145091 
L 155.809627 242.094648 
L 156.460237 231.642441 
L 157.110847 302.32487 
L 157.761457 246.406166 
L 158.412068 263.563202 
L 159.062678 297.618036 
L 159.713288 277.304343 
L 160.363899 271.550367 
L 161.014509 288.889409 
L 161.665119 273.819294 
L 162.31573 287.806207 
L 162.96634 243.194759 
L 163.61695 265.841336 
L 164.267561 251.142775 
L 164.918171 244.678243 
L 165.568781 271.187356 
L 166.219392 276.997576 
L 166.870002 296.340512 
L 168.171222 234.502171 
L 168.821833 290.348096 
L 169.472443 217.91019 
L 170.123053 250.946347 
L 170.773664 274.774772 
L 171.424274 282.752039 
L 172.074884 260.155288 
L 172.725495 253.063935 
L 173.376105 291.064083 
L 174.026715 264.180348 
L 174.677326 280.910907 
L 175.327936 250.943074 
L 175.978546 271.371416 
L 176.629156 274.816743 
L 177.279767 254.220364 
L 177.930377 241.794282 
L 178.580987 247.144356 
L 179.231598 261.604161 
L 179.882208 264.651036 
L 180.532818 243.8603 
L 181.834039 268.505277 
L 182.484649 271.66493 
L 183.13526 250.090813 
L 183.78587 253.170734 
L 184.43648 270.054001 
L 185.087091 268.231246 
L 185.737701 247.705319 
L 186.388311 248.444804 
L 187.038921 254.397243 
L 187.689532 262.184522 
L 188.340142 272.054708 
L 188.990752 260.166634 
L 189.641363 262.562449 
L 190.291973 257.433777 
L 190.942583 279.907345 
L 191.593194 274.670757 
L 192.243804 263.112036 
L 192.894414 288.408378 
L 193.545025 279.192982 
L 194.195635 265.229906 
L 194.846245 264.605443 
L 195.496856 250.306153 
L 196.147466 271.553885 
L 196.798076 276.884061 
L 198.099297 242.018038 
L 198.749907 277.495932 
L 199.400517 242.2174 
L 200.051128 251.038959 
L 200.701738 249.243062 
L 201.352348 263.625846 
L 202.002959 268.801461 
L 202.653569 222.667364 
L 203.304179 255.138188 
L 203.95479 247.368757 
L 204.6054 259.474677 
L 205.25601 248.603815 
L 205.906621 274.99836 
L 206.557231 265.531509 
L 207.207841 285.037374 
L 207.858451 261.938794 
L 208.509062 266.841034 
L 209.159672 247.528337 
L 209.810282 265.504696 
L 210.460893 266.451882 
L 211.111503 259.928524 
L 211.762113 262.90412 
L 212.412724 273.19406 
L 213.063334 264.641518 
L 213.713944 273.374072 
L 214.364555 273.127067 
L 215.015165 229.574656 
L 215.665775 277.821226 
L 216.316385 257.372533 
L 216.966996 221.203246 
L 217.617606 218.615894 
L 218.268216 249.496213 
L 218.918827 224.886538 
L 219.569437 227.926515 
L 220.220047 229.779778 
L 220.870658 240.34001 
L 221.521268 226.993404 
L 222.171878 223.285043 
L 222.822489 214.64904 
L 223.473099 239.015374 
L 224.123709 230.592236 
L 224.77432 258.039438 
L 225.42493 232.835171 
L 226.07554 242.265761 
L 226.72615 220.051963 
L 227.376761 240.370317 
L 228.027371 232.487735 
L 228.677981 246.008701 
L 229.328592 230.881567 
L 229.979202 252.459372 
L 230.629812 239.547951 
L 231.280423 241.807986 
L 231.931033 230.655683 
L 232.581643 232.069209 
L 233.882864 245.579414 
L 234.533474 230.932748 
L 235.184085 238.374597 
L 235.834695 240.668606 
L 236.485305 225.570938 
L 237.135915 235.011245 
L 237.786526 242.013414 
L 238.437136 229.096923 
L 239.087746 232.91823 
L 239.738357 232.474633 
L 240.388967 236.640022 
L 241.039577 225.395906 
L 241.690188 240.593509 
L 242.340798 233.471846 
L 242.991408 235.947362 
L 243.642019 222.748604 
L 244.292629 244.66651 
L 244.943239 227.821527 
L 245.59385 243.359429 
L 246.24446 229.978658 
L 246.89507 228.060434 
L 247.54568 225.193773 
L 248.196291 226.956865 
L 248.846901 219.81294 
L 249.497511 225.328741 
L 250.148122 227.720059 
L 250.798732 240.691745 
L 251.449342 239.724735 
L 252.099953 237.612803 
L 252.750563 236.364847 
L 253.401173 225.389038 
L 254.051784 235.600519 
L 254.702394 234.436084 
L 255.353004 227.967375 
L 256.003615 229.64062 
L 256.654225 235.627144 
L 257.304835 222.910928 
L 257.955445 239.525284 
L 259.256666 224.141841 
L 259.907276 234.668127 
L 260.557887 227.550899 
L 261.208497 232.877779 
L 261.859107 225.213131 
L 262.509718 232.497023 
L 263.160328 231.558593 
L 263.810938 219.095816 
L 264.461549 227.217115 
L 265.112159 231.632374 
L 265.762769 220.425765 
L 266.413379 233.809775 
L 267.06399 213.360665 
L 267.7146 224.272271 
L 268.36521 225.779159 
L 269.015821 230.882664 
L 269.666431 229.078035 
L 270.317041 223.42318 
L 270.967652 219.582159 
L 271.618262 221.007573 
L 272.268872 219.871082 
L 272.919483 233.474792 
L 273.570093 221.511122 
L 274.220703 216.972286 
L 274.871314 220.71916 
L 275.521924 232.889077 
L 276.172534 218.197384 
L 276.823144 216.385669 
L 277.473755 220.603867 
L 278.124365 220.132231 
L 278.774975 225.156286 
L 279.425586 207.26154 
L 280.076196 211.975548 
L 280.726806 211.165765 
L 281.377417 213.330645 
L 282.028027 208.854263 
L 282.678637 206.178742 
L 283.329248 215.726421 
L 283.979858 212.058984 
L 284.630468 215.515094 
L 285.281079 212.656948 
L 285.931689 218.159892 
L 286.582299 260.234191 
L 287.232909 209.171042 
L 287.88352 206.955404 
L 288.53413 205.850394 
L 289.18474 212.107601 
L 289.835351 215.003953 
L 290.485961 201.834857 
L 291.136571 204.468355 
L 291.787182 203.104351 
L 292.437792 204.794202 
L 293.088402 207.820579 
L 293.739013 205.687417 
L 294.389623 201.02948 
L 295.040233 202.164329 
L 295.690844 207.927452 
L 296.341454 201.939177 
L 296.992064 208.371753 
L 297.642674 203.676951 
L 298.293285 200.262496 
L 299.594505 210.742104 
L 300.245116 197.322372 
L 300.895726 206.836741 
L 301.546336 199.693092 
L 302.196947 199.893111 
L 302.847557 213.331045 
L 303.498167 203.99496 
L 304.148778 207.60942 
L 304.799388 207.327356 
L 305.449998 206.124832 
L 306.100608 206.13562 
L 306.751219 204.772949 
L 307.401829 203.800037 
L 308.052439 205.05973 
L 308.70305 199.538764 
L 309.35366 200.127577 
L 310.00427 204.941442 
L 310.654881 197.618722 
L 311.305491 204.177083 
L 311.956101 204.5056 
L 312.606712 198.675623 
L 313.257322 197.142261 
L 313.907932 202.347911 
L 314.558543 203.893976 
L 315.859763 205.502644 
L 316.510373 207.917501 
L 317.160984 208.499483 
L 317.811594 202.186963 
L 318.462204 197.835704 
L 319.112815 208.199462 
L 319.763425 206.853328 
L 320.414035 204.931473 
L 321.064646 210.017988 
L 321.715256 204.825865 
L 322.365866 209.097105 
L 323.016477 203.914517 
L 323.667087 200.484087 
L 324.317697 207.965883 
L 324.968308 204.391636 
L 325.618918 206.76538 
L 326.269528 206.216514 
L 326.920138 207.235449 
L 327.570749 206.981036 
L 328.221359 202.565477 
L 328.871969 199.977894 
L 329.52258 200.699081 
L 330.17319 203.555716 
L 330.8238 204.726035 
L 331.474411 204.502214 
L 332.125021 201.189117 
L 332.775631 205.468607 
L 333.426242 199.502843 
L 334.076852 200.013888 
L 334.727462 212.699965 
L 335.378073 209.856157 
L 336.028683 201.361582 
L 336.679293 202.769636 
L 337.329903 200.221113 
L 337.980514 202.646502 
L 338.631124 215.807477 
L 339.281734 204.566384 
L 339.932345 202.61257 
L 340.582955 211.088106 
L 341.233565 206.787107 
L 341.884176 204.922711 
L 342.534786 202.386508 
L 343.185396 204.918582 
L 343.836007 203.644988 
L 344.486617 207.345507 
L 345.137227 208.858361 
L 345.787837 208.535742 
L 346.438448 209.225949 
L 347.089058 210.901693 
L 347.739668 200.319613 
L 348.390279 211.890198 
L 349.040889 207.341854 
L 350.34211 202.026218 
L 350.99272 204.208748 
L 351.64333 201.247337 
L 352.293941 204.7988 
L 352.944551 202.935088 
L 353.595161 206.872776 
L 354.245772 217.933433 
L 354.896382 206.82853 
L 355.546992 204.058747 
L 356.197602 211.097948 
L 356.848213 202.141767 
L 357.498823 205.13436 
L 358.149433 209.019921 
L 358.800044 207.30179 
L 359.450654 203.79953 
L 360.101264 202.393382 
L 360.751875 203.327352 
L 361.402485 201.816451 
L 362.053095 212.458584 
L 362.703706 208.486471 
L 363.354316 200.917266 
L 364.004926 206.931211 
L 364.655537 205.12002 
L 365.306147 209.550215 
L 365.956757 200.873334 
L 366.607367 204.541221 
L 367.257978 209.173951 
L 367.908588 206.807362 
L 368.559198 217.388135 
L 369.209809 213.625068 
L 369.860419 208.796412 
L 370.511029 201.202917 
L 371.16164 207.584313 
L 371.81225 207.675428 
L 372.46286 210.491449 
L 373.113471 210.578237 
L 373.764081 213.296398 
L 374.414691 212.717037 
L 375.065302 215.486094 
L 375.715912 204.662943 
L 376.366522 209.769406 
L 377.017132 206.241717 
L 377.667743 216.930089 
L 378.318353 208.930519 
L 378.968963 205.575175 
L 379.619574 215.824898 
L 380.270184 200.433427 
L 380.920794 206.05892 
L 381.571405 203.086358 
L 382.222015 210.288684 
L 382.872625 204.877648 
L 383.523236 203.588511 
L 384.173846 211.051541 
L 384.824456 210.448137 
L 385.475066 213.577978 
L 386.776287 204.321979 
L 387.426897 211.157279 
L 388.077508 202.93906 
L 388.728118 205.795938 
L 390.029339 204.930335 
L 390.679949 205.498532 
L 391.330559 206.575324 
L 391.98117 209.823548 
L 392.63178 204.650966 
L 393.28239 206.588033 
L 393.933001 203.934783 
L 394.583611 207.36614 
L 395.234221 211.730212 
L 395.884831 207.272536 
L 396.535442 204.405147 
L 397.186052 206.384395 
L 397.836662 209.249417 
L 398.487273 209.353959 
L 398.487273 209.353959 
" style="fill:none;stroke:#ff0000;stroke-linecap:square;stroke-width:1.5;"/>
   </g>
   <g id="patch_9">
    <path d="M 57.6 307.584 
L 57.6 191.88313 
" style="fill:none;stroke:#000000;stroke-linecap:square;stroke-linejoin:miter;stroke-width:0.8;"/>
   </g>
   <g id="patch_10">
    <path d="M 414.72 307.584 
L 414.72 191.88313 
" style="fill:none;stroke:#000000;stroke-linecap:square;stroke-linejoin:miter;stroke-width:0.8;"/>
   </g>
   <g id="patch_11">
    <path d="M 57.6 307.584 
L 414.72 307.584 
" style="fill:none;stroke:#000000;stroke-linecap:square;stroke-linejoin:miter;stroke-width:0.8;"/>
   </g>
   <g id="patch_12">
    <path d="M 57.6 191.88313 
L 414.72 191.88313 
" style="fill:none;stroke:#000000;stroke-linecap:square;stroke-linejoin:miter;stroke-width:0.8;"/>
   </g>
   <g id="legend_2">
    <g id="patch_13">
     <path d="M 64.6 214.561255 
L 137.9875 214.561255 
Q 139.9875 214.561255 139.9875 212.561255 
L 139.9875 198.88313 
Q 139.9875 196.88313 137.9875 196.88313 
L 64.6 196.88313 
Q 62.6 196.88313 62.6 198.88313 
L 62.6 212.561255 
Q 62.6 214.561255 64.6 214.561255 
z
" style="fill:#ffffff;opacity:0.8;stroke:#cccccc;stroke-linejoin:miter;"/>
    </g>
    <g id="line2d_26">
     <path d="M 66.6 204.981568 
L 86.6 204.981568 
" style="fill:none;stroke:#ff0000;stroke-linecap:square;stroke-width:1.5;"/>
    </g>
    <g id="line2d_27"/>
    <g id="text_25">
     <!-- reward2 -->
     <g transform="translate(94.6 208.481568)scale(0.1 -0.1)">
      <use xlink:href="#DejaVuSans-114"/>
      <use x="41.082031" xlink:href="#DejaVuSans-101"/>
      <use x="102.605469" xlink:href="#DejaVuSans-119"/>
      <use x="184.392578" xlink:href="#DejaVuSans-97"/>
      <use x="245.671875" xlink:href="#DejaVuSans-114"/>
      <use x="286.769531" xlink:href="#DejaVuSans-100"/>
      <use x="350.246094" xlink:href="#DejaVuSans-50"/>
     </g>
    </g>
   </g>
  </g>
 </g>
 <defs>
  <clipPath id="p22b5c1ce70">
   <rect height="115.70087" width="357.12" x="57.6" y="41.472"/>
  </clipPath>
  <clipPath id="p2930165475">
   <rect height="115.70087" width="357.12" x="57.6" y="191.88313"/>
  </clipPath>
 </defs>
</svg>
